<svg version="1.1" viewBox="0.0 0.0 908.0 562.0" fill="none" stroke="none" stroke-linecap="square" stroke-miterlimit="10" width="908" height="562" xmlns:xlink="http://www.w3.org/1999/xlink" xmlns="http://www.w3.org/2000/svg"><path fill="#ffffff" d="M0 0L908.0 0L908.0 562.0L0 562.0L0 0Z" fill-rule="nonzero"/><path stroke="#333333" stroke-width="1.0" stroke-linecap="butt" d="M153.5 75.5L153.5 480.5" fill-rule="nonzero"/><path stroke="#cccccc" stroke-width="1.0" stroke-linecap="butt" d="M371.5 75.5L371.5 480.5" fill-rule="nonzero"/><path stroke="#cccccc" stroke-width="1.0" stroke-linecap="butt" d="M589.5 75.5L589.5 480.5" fill-rule="nonzero"/><path stroke="#cccccc" stroke-width="1.0" stroke-linecap="butt" d="M807.5 75.5L807.5 480.5" fill-rule="nonzero"/><path stroke="#000000" stroke-width="1.0" stroke-linecap="butt" stroke-opacity="0.0" d="M225.5 75.5L225.5 480.5" fill-rule="nonzero"/><path stroke="#000000" stroke-width="1.0" stroke-linecap="butt" stroke-opacity="0.0" d="M298.5 75.5L298.5 480.5" fill-rule="nonzero"/><path stroke="#000000" stroke-width="1.0" stroke-linecap="butt" stroke-opacity="0.0" d="M443.5 75.5L443.5 480.5" fill-rule="nonzero"/><path stroke="#000000" stroke-width="1.0" stroke-linecap="butt" stroke-opacity="0.0" d="M516.5 75.5L516.5 480.5" fill-rule="nonzero"/><path stroke="#000000" stroke-width="1.0" stroke-linecap="butt" stroke-opacity="0.0" d="M661.5 75.5L661.5 480.5" fill-rule="nonzero"/><path stroke="#000000" stroke-width="1.0" stroke-linecap="butt" stroke-opacity="0.0" d="M734.5 75.5L734.5 480.5" fill-rule="nonzero"/><path stroke="#000000" stroke-width="1.0" stroke-linecap="butt" d="M879.5 480.5L153.5 480.5" fill-rule="nonzero"/><clipPath id="id_0"><path d="M153.1 75.833336L879.9 75.833336L879.9 480.9L153.1 480.9L153.1 75.833336Z" clip-rule="nonzero"/></clipPath><path stroke="#000000" stroke-width="2.0" stroke-linecap="butt" stroke-opacity="0.0" clip-path="url(#id_0)" d="M153.0 170.0L153.0 109.0L878.0 109.0C879.10455 109.0 880.0 109.89543 880.0 111.0L880.0 168.0C880.0 169.10457 879.10455 170.0 878.0 170.0Z" fill-rule="nonzero"/><path fill="#5445ff" clip-path="url(#id_0)" d="M153.0 170.0L153.0 109.0L878.0 109.0C879.10455 109.0 880.0 109.89543 880.0 111.0L880.0 168.0C880.0 169.10457 879.10455 170.0 878.0 170.0Z" fill-rule="nonzero"/><path stroke="#000000" stroke-width="2.0" stroke-linecap="butt" stroke-opacity="0.0" clip-path="url(#id_0)" d="M153.0 263.0L153.0 202.0L587.0 202.0C588.10455 202.0 589.0 202.89543 589.0 204.0L589.0 261.0C589.0 262.10458 588.10455 263.0 587.0 263.0Z" fill-rule="nonzero"/><path fill="#5445ff" clip-path="url(#id_0)" d="M153.0 263.0L153.0 202.0L587.0 202.0C588.10455 202.0 589.0 202.89543 589.0 204.0L589.0 261.0C589.0 262.10458 588.10455 263.0 587.0 263.0Z" fill-rule="nonzero"/><path stroke="#000000" stroke-width="2.0" stroke-linecap="butt" stroke-opacity="0.0" clip-path="url(#id_0)" d="M153.0 356.0L153.0 295.0L369.0 295.0C370.10458 295.0 371.0 295.89542 371.0 297.0L371.0 354.0C371.0 355.10458 370.10458 356.0 369.0 356.0Z" fill-rule="nonzero"/><path fill="#5445ff" clip-path="url(#id_0)" d="M153.0 356.0L153.0 295.0L369.0 295.0C370.10458 295.0 371.0 295.89542 371.0 297.0L371.0 354.0C371.0 355.10458 370.10458 356.0 369.0 356.0Z" fill-rule="nonzero"/><path stroke="#000000" stroke-width="2.0" stroke-linecap="butt" stroke-opacity="0.0" clip-path="url(#id_0)" d="M153.0 449.0L153.0 388.0L224.0 388.0C225.10457 388.0 226.0 388.89542 226.0 390.0L226.0 447.0C226.0 448.10458 225.10457 449.0 224.0 449.0Z" fill-rule="nonzero"/><path fill="#5445ff" clip-path="url(#id_0)" d="M153.0 449.0L153.0 388.0L224.0 388.0C225.10457 388.0 226.0 388.89542 226.0 390.0L226.0 447.0C226.0 448.10458 225.10457 449.0 224.0 449.0Z" fill-rule="nonzero"/><path fill="#000000" d="M427.98438 530.9L427.98438 522.3063L433.78125 522.3063L433.78125 523.3219L429.125 523.3219L429.125 525.97815L433.15625 525.97815L433.15625 526.9938L429.125 526.9938L429.125 530.9L427.98438 530.9ZM434.78125 530.9L434.78125 524.6813L435.73438 524.6813L435.73438 525.6188Q436.09375 524.9625 436.39062 524.7594Q436.70312 524.54065 437.07812 524.54065Q437.60938 524.54065 438.15625 524.8688L437.79688 525.85315Q437.40625 525.6188 437.03125 525.6188Q436.67188 525.6188 436.39062 525.8375Q436.125 526.04065 436.01562 526.41565Q435.82812 526.97815 435.82812 527.6344L435.82812 530.9L434.78125 530.9ZM442.85938 530.1344Q442.26562 530.6344 441.71875 530.8375Q441.1875 531.04065 440.5625 531.04065Q439.53125 531.04065 438.98438 530.54065Q438.4375 530.04065 438.4375 529.2594Q438.4375 528.8063 438.64062 528.4313Q438.84375 528.04065 439.1875 527.8219Q439.53125 527.5875 439.95312 527.47815Q440.25 527.3844 440.89062 527.3063Q442.15625 527.16565 442.76562 526.9469Q442.76562 526.72815 442.76562 526.6813Q442.76562 526.025 442.46875 525.7594Q442.0625 525.41565 441.26562 525.41565Q440.53125 525.41565 440.17188 525.6813Q439.8125 525.9313 439.64062 526.5875L438.60938 526.4469Q438.75 525.79065 439.07812 525.3844Q439.40625 524.97815 440.01562 524.7594Q440.625 524.54065 441.42188 524.54065Q442.21875 524.54065 442.71875 524.72815Q443.21875 524.91565 443.45312 525.1969Q443.6875 525.47815 443.78125 525.91565Q443.82812 526.1813 443.82812 526.8844L443.82812 528.29065Q443.82812 529.7594 443.89062 530.15Q443.96875 530.54065 444.17188 530.9L443.0625 530.9Q442.90625 530.5719 442.85938 530.1344ZM442.76562 527.775Q442.1875 528.0094 441.04688 528.1813Q440.39062 528.275 440.125 528.4Q439.85938 528.5094 439.70312 528.72815Q439.5625 528.9469 439.5625 529.22815Q439.5625 529.65 439.875 529.9313Q440.20312 530.2125 440.8125 530.2125Q441.42188 530.2125 441.89062 529.9469Q442.375 529.6813 442.59375 529.2125Q442.76562 528.85315 442.76562 528.16565L442.76562 527.775ZM445.79688 530.9L445.79688 524.6813L446.73438 524.6813L446.73438 525.5563Q447.03125 525.0875 447.51562 524.8219Q448.0 524.54065 448.625 524.54065Q449.3125 524.54065 449.75 524.8219Q450.20312 525.10315 450.375 525.6188Q451.125 524.54065 452.29688 524.54065Q453.23438 524.54065 453.71875 525.0563Q454.21875 525.5563 454.21875 526.6344L454.21875 530.9L453.17188 530.9L453.17188 526.97815Q453.17188 526.35315 453.0625 526.0719Q452.96875 525.79065 452.70312 525.6188Q452.4375 525.4469 452.0625 525.4469Q451.40625 525.4469 450.96875 525.8844Q450.54688 526.3219 450.54688 527.29065L450.54688 530.9L449.48438 530.9L449.48438 526.85315Q449.48438 526.15 449.21875 525.8063Q448.96875 525.4469 448.39062 525.4469Q447.9375 525.4469 447.5625 525.6813Q447.1875 525.91565 447.01562 526.3688Q446.84375 526.8219 446.84375 527.66565L446.84375 530.9L445.79688 530.9ZM461.04688 528.9L462.14062 529.025Q461.89062 529.97815 461.1875 530.5094Q460.48438 531.04065 459.40625 531.04065Q458.04688 531.04065 457.23438 530.1969Q456.4375 529.35315 456.4375 527.8375Q456.4375 526.275 457.25 525.41565Q458.0625 524.54065 459.34375 524.54065Q460.59375 524.54065 461.375 525.3844Q462.17188 526.22815 462.17188 527.775Q462.17188 527.8688 462.17188 528.0563L457.53125 528.0563Q457.59375 529.0875 458.10938 529.6344Q458.625 530.16565 459.40625 530.16565Q459.98438 530.16565 460.39062 529.8688Q460.8125 529.5563 461.04688 528.9ZM457.59375 527.1969L461.0625 527.1969Q461.0 526.4 460.67188 526.0094Q460.15625 525.4 459.35938 525.4Q458.625 525.4 458.125 525.8844Q457.64062 526.3688 457.59375 527.1969ZM466.78125 530.9L466.78125 524.6813L467.73438 524.6813L467.73438 525.6188Q468.09375 524.9625 468.39062 524.7594Q468.70312 524.54065 469.07812 524.54065Q469.60938 524.54065 470.15625 524.8688L469.79688 525.85315Q469.40625 525.6188 469.03125 525.6188Q468.67188 525.6188 468.39062 525.8375Q468.125 526.04065 468.01562 526.41565Q467.82812 526.97815 467.82812 527.6344L467.82812 530.9L466.78125 530.9ZM474.85938 530.1344Q474.26562 530.6344 473.71875 530.8375Q473.1875 531.04065 472.5625 531.04065Q471.53125 531.04065 470.98438 530.54065Q470.4375 530.04065 470.4375 529.2594Q470.4375 528.8063 470.64062 528.4313Q470.84375 528.04065 471.1875 527.8219Q471.53125 527.5875 471.95312 527.47815Q472.25 527.3844 472.89062 527.3063Q474.15625 527.16565 474.76562 526.9469Q474.76562 526.72815 474.76562 526.6813Q474.76562 526.025 474.46875 525.7594Q474.0625 525.41565 473.26562 525.41565Q472.53125 525.41565 472.17188 525.6813Q471.8125 525.9313 471.64062 526.5875L470.60938 526.4469Q470.75 525.79065 471.07812 525.3844Q471.40625 524.97815 472.01562 524.7594Q472.625 524.54065 473.42188 524.54065Q474.21875 524.54065 474.71875 524.72815Q475.21875 524.91565 475.45312 525.1969Q475.6875 525.47815 475.78125 525.91565Q475.82812 526.1813 475.82812 526.8844L475.82812 528.29065Q475.82812 529.7594 475.89062 530.15Q475.96875 530.54065 476.17188 530.9L475.0625 530.9Q474.90625 530.5719 474.85938 530.1344ZM474.76562 527.775Q474.1875 528.0094 473.04688 528.1813Q472.39062 528.275 472.125 528.4Q471.85938 528.5094 471.70312 528.72815Q471.5625 528.9469 471.5625 529.22815Q471.5625 529.65 471.875 529.9313Q472.20312 530.2125 472.8125 530.2125Q473.42188 530.2125 473.89062 529.9469Q474.375 529.6813 474.59375 529.2125Q474.76562 528.85315 474.76562 528.16565L474.76562 527.775ZM480.09375 529.9625L480.25 530.8844Q479.79688 530.97815 479.45312 530.97815Q478.875 530.97815 478.5625 530.8063Q478.25 530.6188 478.10938 530.3219Q477.98438 530.025 477.98438 529.0719L477.98438 525.4938L477.21875 525.4938L477.21875 524.6813L477.98438 524.6813L477.98438 523.1344L479.03125 522.5094L479.03125 524.6813L480.09375 524.6813L480.09375 525.4938L479.03125 525.4938L479.03125 529.1344Q479.03125 529.5875 479.07812 529.7125Q479.14062 529.8375 479.26562 529.91565Q479.39062 529.9938 479.625 529.9938Q479.8125 529.9938 480.09375 529.9625ZM485.04688 528.9L486.14062 529.025Q485.89062 529.97815 485.1875 530.5094Q484.48438 531.04065 483.40625 531.04065Q482.04688 531.04065 481.23438 530.1969Q480.4375 529.35315 480.4375 527.8375Q480.4375 526.275 481.25 525.41565Q482.0625 524.54065 483.34375 524.54065Q484.59375 524.54065 485.375 525.3844Q486.17188 526.22815 486.17188 527.775Q486.17188 527.8688 486.17188 528.0563L481.53125 528.0563Q481.59375 529.0875 482.10938 529.6344Q482.625 530.16565 483.40625 530.16565Q483.98438 530.16565 484.39062 529.8688Q484.8125 529.5563 485.04688 528.9ZM481.59375 527.1969L485.0625 527.1969Q485.0 526.4 484.67188 526.0094Q484.15625 525.4 483.35938 525.4Q482.625 525.4 482.125 525.8844Q481.64062 526.3688 481.59375 527.1969ZM492.8125 533.4313Q491.9375 532.3219 491.32812 530.85315Q490.73438 529.3688 490.73438 527.79065Q490.73438 526.4 491.17188 525.1188Q491.70312 523.6344 492.8125 522.16565L493.5625 522.16565Q492.85938 523.3844 492.625 523.9Q492.26562 524.7125 492.0625 525.5875Q491.8125 526.6813 491.8125 527.79065Q491.8125 530.6188 493.5625 533.4313L492.8125 533.4313ZM494.98438 530.9L494.98438 522.3063L500.78125 522.3063L500.78125 523.3219L496.125 523.3219L496.125 525.97815L500.15625 525.97815L500.15625 526.9938L496.125 526.9938L496.125 530.9L494.98438 530.9ZM501.78125 530.9L501.78125 524.6813L502.73438 524.6813L502.73438 525.6188Q503.09375 524.9625 503.39062 524.7594Q503.70312 524.54065 504.07812 524.54065Q504.60938 524.54065 505.15625 524.8688L504.79688 525.85315Q504.40625 525.6188 504.03125 525.6188Q503.67188 525.6188 503.39062 525.8375Q503.125 526.04065 503.01562 526.41565Q502.82812 526.97815 502.82812 527.6344L502.82812 530.9L501.78125 530.9ZM509.85938 530.1344Q509.26562 530.6344 508.71875 530.8375Q508.1875 531.04065 507.5625 531.04065Q506.53125 531.04065 505.98438 530.54065Q505.4375 530.04065 505.4375 529.2594Q505.4375 528.8063 505.64062 528.4313Q505.84375 528.04065 506.1875 527.8219Q506.53125 527.5875 506.95312 527.47815Q507.25 527.3844 507.89062 527.3063Q509.15625 527.16565 509.76562 526.9469Q509.76562 526.72815 509.76562 526.6813Q509.76562 526.025 509.46875 525.7594Q509.0625 525.41565 508.26562 525.41565Q507.53125 525.41565 507.17188 525.6813Q506.8125 525.9313 506.64062 526.5875L505.60938 526.4469Q505.75 525.79065 506.07812 525.3844Q506.40625 524.97815 507.01562 524.7594Q507.625 524.54065 508.42188 524.54065Q509.21875 524.54065 509.71875 524.72815Q510.21875 524.91565 510.45312 525.1969Q510.6875 525.47815 510.78125 525.91565Q510.82812 526.1813 510.82812 526.8844L510.82812 528.29065Q510.82812 529.7594 510.89062 530.15Q510.96875 530.54065 511.17188 530.9L510.0625 530.9Q509.90625 530.5719 509.85938 530.1344ZM509.76562 527.775Q509.1875 528.0094 508.04688 528.1813Q507.39062 528.275 507.125 528.4Q506.85938 528.5094 506.70312 528.72815Q506.5625 528.9469 506.5625 529.22815Q506.5625 529.65 506.875 529.9313Q507.20312 530.2125 507.8125 530.2125Q508.42188 530.2125 508.89062 529.9469Q509.375 529.6813 509.59375 529.2125Q509.76562 528.85315 509.76562 528.16565L509.76562 527.775ZM512.7969 530.9L512.7969 524.6813L513.7344 524.6813L513.7344 525.5563Q514.03125 525.0875 514.5156 524.8219Q515.0 524.54065 515.625 524.54065Q516.3125 524.54065 516.75 524.8219Q517.2031 525.10315 517.375 525.6188Q518.125 524.54065 519.2969 524.54065Q520.2344 524.54065 520.71875 525.0563Q521.21875 525.5563 521.21875 526.6344L521.21875 530.9L520.1719 530.9L520.1719 526.97815Q520.1719 526.35315 520.0625 526.0719Q519.96875 525.79065 519.7031 525.6188Q519.4375 525.4469 519.0625 525.4469Q518.40625 525.4469 517.96875 525.8844Q517.5469 526.3219 517.5469 527.29065L517.5469 530.9L516.4844 530.9L516.4844 526.85315Q516.4844 526.15 516.21875 525.8063Q515.96875 525.4469 515.3906 525.4469Q514.9375 525.4469 514.5625 525.6813Q514.1875 525.91565 514.0156 526.3688Q513.84375 526.8219 513.84375 527.66565L513.84375 530.9L512.7969 530.9ZM528.0469 528.9L529.1406 529.025Q528.8906 529.97815 528.1875 530.5094Q527.4844 531.04065 526.40625 531.04065Q525.0469 531.04065 524.2344 530.1969Q523.4375 529.35315 523.4375 527.8375Q523.4375 526.275 524.25 525.41565Q525.0625 524.54065 526.34375 524.54065Q527.59375 524.54065 528.375 525.3844Q529.1719 526.22815 529.1719 527.775Q529.1719 527.8688 529.1719 528.0563L524.53125 528.0563Q524.59375 529.0875 525.1094 529.6344Q525.625 530.16565 526.40625 530.16565Q526.9844 530.16565 527.3906 529.8688Q527.8125 529.5563 528.0469 528.9ZM524.59375 527.1969L528.0625 527.1969Q528.0 526.4 527.6719 526.0094Q527.15625 525.4 526.3594 525.4Q525.625 525.4 525.125 525.8844Q524.6406 526.3688 524.59375 527.1969ZM530.375 529.04065L531.40625 528.8844Q531.5 529.5094 531.8906 529.8375Q532.2969 530.16565 533.03125 530.16565Q533.75 530.16565 534.09375 529.8844Q534.4531 529.5875 534.4531 529.1813Q534.4531 528.8219 534.1406 528.6188Q533.9219 528.47815 533.0625 528.2594Q531.90625 527.9625 531.4531 527.7594Q531.0156 527.54065 530.78125 527.16565Q530.5469 526.79065 530.5469 526.3219Q530.5469 525.91565 530.7344 525.5563Q530.9219 525.1969 531.25 524.9625Q531.5 524.79065 531.9219 524.66565Q532.34375 524.54065 532.84375 524.54065Q533.5625 524.54065 534.1094 524.7594Q534.6719 524.9625 534.9375 525.3219Q535.2031 525.6813 535.2969 526.275L534.2656 526.41565Q534.2031 525.9469 533.8594 525.6813Q533.53125 525.4 532.90625 525.4Q532.1875 525.4 531.875 525.65Q531.5625 525.8844 531.5625 526.2125Q531.5625 526.41565 531.6875 526.5719Q531.8281 526.7438 532.09375 526.85315Q532.25 526.91565 533.03125 527.1188Q534.15625 527.4313 534.59375 527.6188Q535.03125 527.8063 535.28125 528.16565Q535.53125 528.525 535.53125 529.0719Q535.53125 529.60315 535.21875 530.0719Q534.9219 530.525 534.34375 530.79065Q533.7656 531.04065 533.03125 531.04065Q531.8125 531.04065 531.1719 530.54065Q530.5469 530.025 530.375 529.04065ZM540.7969 533.29065L540.7969 524.6813L541.75 524.6813L541.75 525.47815Q542.09375 525.0094 542.5156 524.775Q542.9531 524.54065 543.5625 524.54065Q544.3594 524.54065 544.96875 524.9469Q545.5781 525.35315 545.875 526.10315Q546.1875 526.85315 546.1875 527.7438Q546.1875 528.6969 545.84375 529.4625Q545.5156 530.22815 544.8594 530.6344Q544.2031 531.04065 543.4844 531.04065Q542.9531 531.04065 542.53125 530.8219Q542.1094 530.5875 541.84375 530.2594L541.84375 533.29065L540.7969 533.29065ZM541.75 527.8219Q541.75 529.025 542.2344 529.60315Q542.71875 530.16565 543.40625 530.16565Q544.1094 530.16565 544.6094 529.5719Q545.1094 528.97815 545.1094 527.72815Q545.1094 526.54065 544.625 525.9625Q544.1406 525.3688 543.4531 525.3688Q542.78125 525.3688 542.2656 525.9938Q541.75 526.6188 541.75 527.8219ZM552.0469 528.9L553.1406 529.025Q552.8906 529.97815 552.1875 530.5094Q551.4844 531.04065 550.40625 531.04065Q549.0469 531.04065 548.2344 530.1969Q547.4375 529.35315 547.4375 527.8375Q547.4375 526.275 548.25 525.41565Q549.0625 524.54065 550.34375 524.54065Q551.59375 524.54065 552.375 525.3844Q553.1719 526.22815 553.1719 527.775Q553.1719 527.8688 553.1719 528.0563L548.53125 528.0563Q548.59375 529.0875 549.1094 529.6344Q549.625 530.16565 550.40625 530.16565Q550.9844 530.16565 551.3906 529.8688Q551.8125 529.5563 552.0469 528.9ZM548.59375 527.1969L552.0625 527.1969Q552.0 526.4 551.6719 526.0094Q551.15625 525.4 550.3594 525.4Q549.625 525.4 549.125 525.8844Q548.6406 526.3688 548.59375 527.1969ZM554.78125 530.9L554.78125 524.6813L555.7344 524.6813L555.7344 525.6188Q556.09375 524.9625 556.3906 524.7594Q556.7031 524.54065 557.0781 524.54065Q557.6094 524.54065 558.15625 524.8688L557.7969 525.85315Q557.40625 525.6188 557.03125 525.6188Q556.6719 525.6188 556.3906 525.8375Q556.125 526.04065 556.0156 526.41565Q555.8281 526.97815 555.8281 527.6344L555.8281 530.9L554.78125 530.9ZM561.375 529.04065L562.40625 528.8844Q562.5 529.5094 562.8906 529.8375Q563.2969 530.16565 564.03125 530.16565Q564.75 530.16565 565.09375 529.8844Q565.4531 529.5875 565.4531 529.1813Q565.4531 528.8219 565.1406 528.6188Q564.9219 528.47815 564.0625 528.2594Q562.90625 527.9625 562.4531 527.7594Q562.0156 527.54065 561.78125 527.16565Q561.5469 526.79065 561.5469 526.3219Q561.5469 525.91565 561.7344 525.5563Q561.9219 525.1969 562.25 524.9625Q562.5 524.79065 562.9219 524.66565Q563.34375 524.54065 563.84375 524.54065Q564.5625 524.54065 565.1094 524.7594Q565.6719 524.9625 565.9375 525.3219Q566.2031 525.6813 566.2969 526.275L565.2656 526.41565Q565.2031 525.9469 564.8594 525.6813Q564.53125 525.4 563.90625 525.4Q563.1875 525.4 562.875 525.65Q562.5625 525.8844 562.5625 526.2125Q562.5625 526.41565 562.6875 526.5719Q562.8281 526.7438 563.09375 526.85315Q563.25 526.91565 564.03125 527.1188Q565.15625 527.4313 565.59375 527.6188Q566.03125 527.8063 566.28125 528.16565Q566.53125 528.525 566.53125 529.0719Q566.53125 529.60315 566.21875 530.0719Q565.9219 530.525 565.34375 530.79065Q564.7656 531.04065 564.03125 531.04065Q562.8125 531.04065 562.1719 530.54065Q561.5469 530.025 561.375 529.04065ZM573.0469 528.9L574.1406 529.025Q573.8906 529.97815 573.1875 530.5094Q572.4844 531.04065 571.40625 531.04065Q570.0469 531.04065 569.2344 530.1969Q568.4375 529.35315 568.4375 527.8375Q568.4375 526.275 569.25 525.41565Q570.0625 524.54065 571.34375 524.54065Q572.59375 524.54065 573.375 525.3844Q574.1719 526.22815 574.1719 527.775Q574.1719 527.8688 574.1719 528.0563L569.53125 528.0563Q569.59375 529.0875 570.1094 529.6344Q570.625 530.16565 571.40625 530.16565Q571.9844 530.16565 572.3906 529.8688Q572.8125 529.5563 573.0469 528.9ZM569.59375 527.1969L573.0625 527.1969Q573.0 526.4 572.6719 526.0094Q572.15625 525.4 571.3594 525.4Q570.625 525.4 570.125 525.8844Q569.6406 526.3688 569.59375 527.1969ZM579.8594 528.6188L580.8906 528.7594Q580.71875 529.8219 580.0156 530.4313Q579.3125 531.04065 578.2969 531.04065Q577.0156 531.04065 576.2344 530.2125Q575.46875 529.3688 575.46875 527.8063Q575.46875 526.8063 575.7969 526.0563Q576.1406 525.29065 576.8125 524.91565Q577.5 524.54065 578.3125 524.54065Q579.3125 524.54065 579.9531 525.0563Q580.6094 525.5563 580.7969 526.5094L579.7656 526.66565Q579.625 526.04065 579.25 525.72815Q578.875 525.4 578.34375 525.4Q577.5469 525.4 577.0469 525.97815Q576.5469 526.54065 576.5469 527.775Q576.5469 529.04065 577.03125 529.60315Q577.5156 530.16565 578.28125 530.16565Q578.90625 530.16565 579.3125 529.79065Q579.7344 529.41565 579.8594 528.6188ZM581.40625 527.79065Q581.40625 526.0563 582.3594 525.22815Q583.15625 524.54065 584.3125 524.54065Q585.59375 524.54065 586.40625 525.3844Q587.2344 526.2125 587.2344 527.6969Q587.2344 528.9 586.875 529.5875Q586.5156 530.275 585.8125 530.66565Q585.125 531.04065 584.3125 531.04065Q583.0156 531.04065 582.2031 530.2125Q581.40625 529.3688 581.40625 527.79065ZM582.4844 527.79065Q582.4844 528.97815 583.0 529.5719Q583.53125 530.16565 584.3125 530.16565Q585.1094 530.16565 585.625 529.5719Q586.1406 528.97815 586.1406 527.7594Q586.1406 526.60315 585.6094 526.0094Q585.09375 525.41565 584.3125 525.41565Q583.53125 525.41565 583.0 526.0094Q582.4844 526.5875 582.4844 527.79065ZM588.7969 530.9L588.7969 524.6813L589.7344 524.6813L589.7344 525.5563Q590.4219 524.54065 591.71875 524.54065Q592.28125 524.54065 592.75 524.7438Q593.2344 524.9469 593.46875 525.275Q593.7031 525.60315 593.7969 526.04065Q593.84375 526.3375 593.84375 527.0719L593.84375 530.9L592.7969 530.9L592.7969 527.1188Q592.7969 526.4625 592.6719 526.15Q592.5469 525.8375 592.2344 525.65Q591.9219 525.4469 591.5 525.4469Q590.8281 525.4469 590.3281 525.8844Q589.84375 526.3063 589.84375 527.4938L589.84375 530.9L588.7969 530.9ZM599.8281 530.9L599.8281 530.1188Q599.2344 531.04065 598.09375 531.04065Q597.34375 531.04065 596.71875 530.6344Q596.09375 530.2125 595.75 529.47815Q595.40625 528.7438 595.40625 527.79065Q595.40625 526.8688 595.71875 526.10315Q596.03125 525.3375 596.65625 524.9469Q597.28125 524.54065 598.0469 524.54065Q598.6094 524.54065 599.0469 524.775Q599.4844 525.0094 599.7656 525.3844L599.7656 522.3063L600.8125 522.3063L600.8125 530.9L599.8281 530.9ZM596.5 527.79065Q596.5 528.9938 597.0 529.5875Q597.5 530.16565 598.1875 530.16565Q598.875 530.16565 599.3594 529.60315Q599.84375 529.04065 599.84375 527.8844Q599.84375 526.60315 599.34375 526.0094Q598.8594 525.41565 598.1406 525.41565Q597.4375 525.41565 596.96875 525.9938Q596.5 526.5563 596.5 527.79065ZM603.4844 533.4313L602.7344 533.4313Q604.4844 530.6188 604.4844 527.79065Q604.4844 526.6969 604.2344 525.60315Q604.03125 524.72815 603.6719 523.91565Q603.4375 523.4 602.7344 522.16565L603.4844 522.16565Q604.5781 523.6344 605.1094 525.1188Q605.5625 526.4 605.5625 527.79065Q605.5625 529.3688 604.9531 530.85315Q604.34375 532.3219 603.4844 533.4313Z" fill-rule="nonzero"/><path fill="#000000" d="M83.39687 142.0635Q82.95937 142.6885 82.17812 143.001Q81.39687 143.3135 80.36562 143.3135Q79.33437 143.3135 78.52187 142.82913Q77.70937 142.32913 77.27187 141.42288Q76.83437 140.51663 76.81875 139.32913L76.81875 138.59476Q76.81875 136.65726 77.70937 135.59476Q78.61562 134.53226 80.24062 134.53226Q81.58437 134.53226 82.39687 135.21976Q83.20937 135.90726 83.39687 137.15726L82.27187 137.15726Q81.94375 135.46976 80.25625 135.46976Q79.11562 135.46976 78.5375 136.26663Q77.95937 137.04788 77.94375 138.5635L77.94375 139.251Q77.94375 140.6885 78.6 141.54788Q79.25625 142.39163 80.38125 142.39163Q81.00625 142.39163 81.475 142.251Q81.95937 142.11038 82.27187 141.76663L82.27187 139.86038L80.30312 139.86038L80.30312 138.9385L83.39687 138.9385L83.39687 142.0635ZM86.20937 139.84476L86.20937 143.1885L85.08437 143.1885L85.08437 134.65726L88.24062 134.65726Q89.63125 134.65726 90.42812 135.376Q91.225 136.07913 91.225 137.26663Q91.225 138.501 90.44375 139.17288Q89.67812 139.84476 88.225 139.84476L86.20937 139.84476ZM86.20937 138.92288L88.24062 138.92288Q89.14687 138.92288 89.61562 138.501Q90.1 138.07913 90.1 137.28226Q90.1 136.51663 89.61562 136.0635Q89.14687 135.59476 88.30312 135.57913L86.20937 135.57913L86.20937 138.92288ZM99.1 134.65726L99.1 140.45413Q99.08437 141.65726 98.33437 142.4385Q97.58437 143.20413 96.30312 143.29788L95.99062 143.3135Q94.6 143.3135 93.75625 142.5635Q92.92812 141.79788 92.92812 140.46976L92.92812 134.65726L94.0375 134.65726L94.0375 140.4385Q94.0375 141.36038 94.5375 141.876Q95.05312 142.39163 95.99062 142.39163Q96.95937 142.39163 97.45937 141.876Q97.95937 141.36038 97.95937 140.4385L97.95937 134.65726L99.1 134.65726ZM104.08437 143.1885L104.08437 134.65726L106.50625 134.65726Q107.61562 134.65726 108.45937 135.15726Q109.31875 135.64163 109.7875 136.54788Q110.25625 137.45413 110.25625 138.64163L110.25625 139.17288Q110.25625 140.39163 109.7875 141.29788Q109.33437 142.20413 108.45937 142.6885Q107.6 143.17288 106.45937 143.1885L104.08437 143.1885ZM105.20937 135.57913L105.20937 142.26663L106.39687 142.26663Q107.69375 142.26663 108.4125 141.46976Q109.14687 140.65726 109.14687 139.15726L109.14687 138.65726Q109.14687 137.20413 108.45937 136.40726Q107.7875 135.59476 106.52187 135.57913L105.20937 135.57913ZM114.55312 143.3135Q113.25625 143.3135 112.44375 142.46976Q111.64687 141.61038 111.64687 140.1885L111.64687 140.001Q111.64687 139.04788 112.00625 138.3135Q112.36562 137.5635 113.00625 137.15726Q113.6625 136.73538 114.4125 136.73538Q115.64687 136.73538 116.33437 137.54788Q117.02187 138.36038 117.02187 139.876L117.02187 140.32913L112.725 140.32913Q112.75625 141.26663 113.27187 141.84476Q113.80312 142.42288 114.61562 142.42288Q115.17812 142.42288 115.56875 142.1885Q115.975 141.95413 116.2875 141.5635L116.94375 142.07913Q116.14687 143.3135 114.55312 143.3135ZM114.4125 137.626Q113.75625 137.626 113.30312 138.11038Q112.86562 138.57913 112.77187 139.4385L115.94375 139.4385L115.94375 139.36038Q115.89687 138.53226 115.49062 138.07913Q115.1 137.626 114.4125 137.626ZM121.61562 141.501Q121.61562 141.0635 121.27187 140.82913Q120.94375 140.57913 120.11562 140.40726Q119.30312 140.23538 118.81875 139.98538Q118.33437 139.73538 118.1 139.40726Q117.88125 139.0635 117.88125 138.59476Q117.88125 137.8135 118.5375 137.28226Q119.19375 136.73538 120.225 136.73538Q121.30312 136.73538 121.95937 137.29788Q122.63125 137.84476 122.63125 138.70413L121.55312 138.70413Q121.55312 138.26663 121.1625 137.95413Q120.7875 137.626 120.225 137.626Q119.63125 137.626 119.2875 137.89163Q118.95937 138.14163 118.95937 138.54788Q118.95937 138.9385 119.27187 139.14163Q119.58437 139.34476 120.39687 139.53226Q121.20937 139.70413 121.70937 139.95413Q122.20937 140.20413 122.44375 140.5635Q122.69375 140.92288 122.69375 141.42288Q122.69375 142.28226 122.00625 142.79788Q121.33437 143.3135 120.25625 143.3135Q119.49062 143.3135 118.89687 143.04788Q118.31875 142.76663 117.99062 142.28226Q117.6625 141.79788 117.6625 141.23538L118.74062 141.23538Q118.77187 141.78226 119.17812 142.11038Q119.58437 142.42288 120.25625 142.42288Q120.86562 142.42288 121.24062 142.17288Q121.61562 141.92288 121.61562 141.501ZM125.69375 140.251L125.00625 140.95413L125.00625 143.1885L123.92812 143.1885L123.92812 134.1885L125.00625 134.1885L125.00625 139.626L125.58437 138.9385L127.56875 136.84476L128.88126 136.84476L126.4125 139.501L129.17813 143.1885L127.89687 143.1885L125.69375 140.251ZM131.39688 135.3135L131.39688 136.84476L132.56876 136.84476L132.56876 137.6885L131.39688 137.6885L131.39688 141.61038Q131.39688 142.001 131.55313 142.1885Q131.70938 142.376 132.08438 142.376Q132.27188 142.376 132.6 142.3135L132.6 143.1885Q132.17813 143.3135 131.77188 143.3135Q131.05313 143.3135 130.67813 142.876Q130.30313 142.42288 130.30313 141.61038L130.30313 137.6885L129.14688 137.6885L129.14688 136.84476L130.30313 136.84476L130.30313 135.3135L131.39688 135.3135ZM133.63126 139.95413Q133.63126 139.03226 133.99063 138.28226Q134.36563 137.53226 135.02188 137.14163Q135.67813 136.73538 136.50626 136.73538Q137.80313 136.73538 138.6 137.626Q139.4125 138.51663 139.4125 140.01663L139.4125 140.09476Q139.4125 141.01663 139.05313 141.751Q138.69376 142.48538 138.0375 142.90726Q137.38126 143.3135 136.52188 143.3135Q135.24063 143.3135 134.42813 142.42288Q133.63126 141.51663 133.63126 140.03226L133.63126 139.95413ZM134.725 140.09476Q134.725 141.14163 135.20938 141.78226Q135.70938 142.42288 136.52188 142.42288Q137.35 142.42288 137.83438 141.78226Q138.31876 141.126 138.31876 139.95413Q138.31876 138.92288 137.81876 138.28226Q137.33438 137.626 136.50626 137.626Q135.70938 137.626 135.20938 138.26663Q134.725 138.89163 134.725 140.09476ZM146.27188 140.09476Q146.27188 141.53226 145.61563 142.42288Q144.95938 143.3135 143.81876 143.3135Q142.6625 143.3135 142.00626 142.57913L142.00626 145.626L140.92813 145.626L140.92813 136.84476L141.9125 136.84476L141.95938 137.54788Q142.63126 136.73538 143.80313 136.73538Q144.94376 136.73538 145.6 137.59476Q146.27188 138.45413 146.27188 139.98538L146.27188 140.09476ZM145.19376 139.96976Q145.19376 138.89163 144.725 138.28226Q144.27188 137.65726 143.475 137.65726Q142.49063 137.65726 142.00626 138.51663L142.00626 141.54788Q142.49063 142.42288 143.49063 142.42288Q144.27188 142.42288 144.725 141.8135Q145.19376 141.1885 145.19376 139.96976Z" fill-rule="nonzero"/><path fill="#000000" d="M63.646873 236.30728L62.521873 236.30728L58.225 229.72916L58.225 236.30728L57.084373 236.30728L57.084373 227.77603L58.225 227.77603L62.521873 234.3854L62.521873 227.77603L63.646873 227.77603L63.646873 236.30728ZM65.63125 233.0729Q65.63125 232.15103 65.99062 231.40103Q66.36562 230.65103 67.02187 230.2604Q67.67812 229.85416 68.50625 229.85416Q69.80312 229.85416 70.6 230.74478Q71.4125 231.6354 71.4125 233.1354L71.4125 233.21353Q71.4125 234.1354 71.05312 234.86978Q70.69375 235.60416 70.0375 236.02603Q69.38125 236.43228 68.52187 236.43228Q67.24062 236.43228 66.42812 235.54166Q65.63125 234.6354 65.63125 233.15103L65.63125 233.0729ZM66.725 233.21353Q66.725 234.2604 67.20937 234.90103Q67.70937 235.54166 68.52187 235.54166Q69.35 235.54166 69.83437 234.90103Q70.31875 234.24478 70.31875 233.0729Q70.31875 232.04166 69.81875 231.40103Q69.33437 230.74478 68.50625 230.74478Q67.70937 230.74478 67.20937 231.3854Q66.725 232.0104 66.725 233.21353ZM73.94375 229.96353L73.975 230.7604Q74.70937 229.85416 75.88125 229.85416Q77.89687 229.85416 77.9125 232.11978L77.9125 236.30728L76.81875 236.30728L76.81875 232.10416Q76.81875 231.43228 76.50625 231.10416Q76.20937 230.77603 75.55312 230.77603Q75.02187 230.77603 74.61562 231.05728Q74.225 231.33853 74.00625 231.79166L74.00625 236.30728L72.92812 236.30728L72.92812 229.96353L73.94375 229.96353ZM82.17812 233.11978L79.31875 233.11978L79.31875 232.24478L82.17812 232.24478L82.17812 233.11978ZM89.39687 235.18228Q88.95937 235.80728 88.17812 236.11978Q87.39687 236.43228 86.36562 236.43228Q85.33437 236.43228 84.52187 235.9479Q83.70937 235.4479 83.27187 234.54166Q82.83437 233.6354 82.81875 232.4479L82.81875 231.71353Q82.81875 229.77603 83.70937 228.71353Q84.61562 227.65103 86.24062 227.65103Q87.58437 227.65103 88.39687 228.33853Q89.20937 229.02603 89.39687 230.27603L88.27187 230.27603Q87.94375 228.58853 86.25625 228.58853Q85.11562 228.58853 84.5375 229.3854Q83.95937 230.16666 83.94375 231.68228L83.94375 232.36978Q83.94375 233.80728 84.6 234.66666Q85.25625 235.5104 86.38125 235.5104Q87.00625 235.5104 87.475 235.36978Q87.95937 235.22916 88.27187 234.8854L88.27187 232.97916L86.30312 232.97916L86.30312 232.05728L89.39687 232.05728L89.39687 235.18228ZM92.20937 232.96353L92.20937 236.30728L91.08437 236.30728L91.08437 227.77603L94.24062 227.77603Q95.63125 227.77603 96.42812 228.49478Q97.225 229.1979 97.225 230.3854Q97.225 231.61978 96.44375 232.29166Q95.67812 232.96353 94.225 232.96353L92.20937 232.96353ZM92.20937 232.04166L94.24062 232.04166Q95.14687 232.04166 95.61562 231.61978Q96.1 231.1979 96.1 230.40103Q96.1 229.6354 95.61562 229.18228Q95.14687 228.71353 94.30312 228.6979L92.20937 228.6979L92.20937 232.04166ZM105.1 227.77603L105.1 233.5729Q105.08437 234.77603 104.33437 235.55728Q103.58437 236.3229 102.30312 236.41666L101.99062 236.43228Q100.6 236.43228 99.75625 235.68228Q98.92812 234.91666 98.92812 233.58853L98.92812 227.77603L100.0375 227.77603L100.0375 233.55728Q100.0375 234.47916 100.5375 234.99478Q101.05312 235.5104 101.99062 235.5104Q102.95937 235.5104 103.45937 234.99478Q103.95937 234.47916 103.95937 233.55728L103.95937 227.77603L105.1 227.77603ZM111.225 235.3854L115.27187 235.3854L115.27187 236.30728L110.08437 236.30728L110.08437 227.77603L111.225 227.77603L111.225 235.3854ZM119.83437 236.30728Q119.74062 236.11978 119.67812 235.6354Q118.92812 236.43228 117.88125 236.43228Q116.94375 236.43228 116.33437 235.90103Q115.74062 235.36978 115.74062 234.54166Q115.74062 233.55728 116.49062 233.0104Q117.24062 232.46353 118.61562 232.46353L119.6625 232.46353L119.6625 231.96353Q119.6625 231.40103 119.31875 231.0729Q118.99062 230.72916 118.31875 230.72916Q117.74062 230.72916 117.35 231.02603Q116.95937 231.30728 116.95937 231.72916L115.86562 231.72916Q115.86562 231.24478 116.19375 230.80728Q116.5375 230.36978 117.11562 230.11978Q117.69375 229.85416 118.38125 229.85416Q119.49062 229.85416 120.1 230.40103Q120.725 230.9479 120.75625 231.90103L120.75625 234.8229Q120.75625 235.6979 120.975 236.21353L120.975 236.30728L119.83437 236.30728ZM118.0375 235.47916Q118.55312 235.47916 119.00625 235.21353Q119.45937 234.9479 119.6625 234.52603L119.6625 233.22916L118.81875 233.22916Q116.81875 233.22916 116.81875 234.40103Q116.81875 234.90103 117.1625 235.1979Q117.50625 235.47916 118.0375 235.47916ZM128.27188 233.21353Q128.27188 234.65103 127.61562 235.54166Q126.95937 236.43228 125.81875 236.43228Q124.6625 236.43228 124.00625 235.6979L124.00625 238.74478L122.92812 238.74478L122.92812 229.96353L123.9125 229.96353L123.95937 230.66666Q124.63125 229.85416 125.80312 229.85416Q126.94375 229.85416 127.6 230.71353Q128.27188 231.5729 128.27188 233.10416L128.27188 233.21353ZM127.19375 233.08853Q127.19375 232.0104 126.725 231.40103Q126.27187 230.77603 125.475 230.77603Q124.49062 230.77603 124.00625 231.6354L124.00625 234.66666Q124.49062 235.54166 125.49062 235.54166Q126.27187 235.54166 126.725 234.93228Q127.19375 234.30728 127.19375 233.08853ZM131.39688 228.43228L131.39688 229.96353L132.56876 229.96353L132.56876 230.80728L131.39688 230.80728L131.39688 234.72916Q131.39688 235.11978 131.55313 235.30728Q131.70938 235.49478 132.08438 235.49478Q132.27188 235.49478 132.6 235.43228L132.6 236.30728Q132.17813 236.43228 131.77188 236.43228Q131.05313 236.43228 130.67813 235.99478Q130.30313 235.54166 130.30313 234.72916L130.30313 230.80728L129.14688 230.80728L129.14688 229.96353L130.30313 229.96353L130.30313 228.43228L131.39688 228.43228ZM133.63126 233.0729Q133.63126 232.15103 133.99063 231.40103Q134.36563 230.65103 135.02188 230.2604Q135.67813 229.85416 136.50626 229.85416Q137.80313 229.85416 138.6 230.74478Q139.4125 231.6354 139.4125 233.1354L139.4125 233.21353Q139.4125 234.1354 139.05313 234.86978Q138.69376 235.60416 138.0375 236.02603Q137.38126 236.43228 136.52188 236.43228Q135.24063 236.43228 134.42813 235.54166Q133.63126 234.6354 133.63126 233.15103L133.63126 233.0729ZM134.725 233.21353Q134.725 234.2604 135.20938 234.90103Q135.70938 235.54166 136.52188 235.54166Q137.35 235.54166 137.83438 234.90103Q138.31876 234.24478 138.31876 233.0729Q138.31876 232.04166 137.81876 231.40103Q137.33438 230.74478 136.50626 230.74478Q135.70938 230.74478 135.20938 231.3854Q134.725 232.0104 134.725 233.21353ZM146.27188 233.21353Q146.27188 234.65103 145.61563 235.54166Q144.95938 236.43228 143.81876 236.43228Q142.6625 236.43228 142.00626 235.6979L142.00626 238.74478L140.92813 238.74478L140.92813 229.96353L141.9125 229.96353L141.95938 230.66666Q142.63126 229.85416 143.80313 229.85416Q144.94376 229.85416 145.6 230.71353Q146.27188 231.5729 146.27188 233.10416L146.27188 233.21353ZM145.19376 233.08853Q145.19376 232.0104 144.725 231.40103Q144.27188 230.77603 143.475 230.77603Q142.49063 230.77603 142.00626 231.6354L142.00626 234.66666Q142.49063 235.54166 143.49063 235.54166Q144.27188 235.54166 144.725 234.93228Q145.19376 234.30728 145.19376 233.08853Z" fill-rule="nonzero"/><path fill="#000000" d="M35.646873 329.42606L34.521873 329.42606L34.521873 325.48856L30.209375 325.48856L30.209375 329.42606L29.084375 329.42606L29.084375 320.8948L30.209375 320.8948L30.209375 324.56668L34.521873 324.56668L34.521873 320.8948L35.646873 320.8948L35.646873 329.42606ZM39.1 329.42606L38.021873 329.42606L38.021873 323.0823L39.1 323.0823L39.1 329.42606ZM37.928123 321.41043Q37.928123 321.1448 38.084373 320.9573Q38.25625 320.7698 38.56875 320.7698Q38.88125 320.7698 39.0375 320.9573Q39.209373 321.1448 39.209373 321.41043Q39.209373 321.66043 39.0375 321.84793Q38.88125 322.0198 38.56875 322.0198Q38.25625 322.0198 38.084373 321.84793Q37.928123 321.66043 37.928123 321.41043ZM40.6625 326.2073Q40.6625 324.72293 41.35 323.84793Q42.0375 322.97293 43.1625 322.97293Q44.31875 322.97293 44.975 323.78543L45.021873 323.0823L46.021873 323.0823L46.021873 329.2698Q46.021873 330.50418 45.2875 331.2073Q44.553123 331.92606 43.334373 331.92606Q42.646873 331.92606 41.990623 331.62918Q41.334373 331.3323 40.990623 330.8323L41.553123 330.17606Q42.240623 331.03543 43.25625 331.03543Q44.0375 331.03543 44.475 330.5823Q44.928123 330.1448 44.928123 329.3323L44.928123 328.78543Q44.271873 329.55106 43.146873 329.55106Q42.0375 329.55106 41.35 328.66043Q40.6625 327.75418 40.6625 326.2073ZM41.75625 326.3323Q41.75625 327.3948 42.19375 328.0198Q42.63125 328.62918 43.428123 328.62918Q44.44375 328.62918 44.928123 327.69168L44.928123 324.80106Q44.428123 323.8948 43.428123 323.8948Q42.646873 323.8948 42.19375 324.50418Q41.75625 325.11356 41.75625 326.3323ZM49.00625 323.84793Q49.725 322.97293 50.88125 322.97293Q52.896873 322.97293 52.9125 325.23856L52.9125 329.42606L51.81875 329.42606L51.81875 325.22293Q51.81875 324.55106 51.50625 324.22293Q51.209373 323.8948 50.553123 323.8948Q50.021873 323.8948 49.615623 324.17606Q49.225 324.4573 49.00625 324.91043L49.00625 329.42606L47.928123 329.42606L47.928123 320.42606L49.00625 320.42606L49.00625 323.84793ZM57.178123 326.23856L54.31875 326.23856L54.31875 325.36356L57.178123 325.36356L57.178123 326.23856ZM62.9125 325.48856L59.209373 325.48856L59.209373 328.50418L63.50625 328.50418L63.50625 329.42606L58.084373 329.42606L58.084373 320.8948L63.459373 320.8948L63.459373 321.81668L59.209373 321.81668L59.209373 324.56668L62.9125 324.56668L62.9125 325.48856ZM65.94375 323.0823L65.975 323.87918Q66.70937 322.97293 67.88125 322.97293Q69.89687 322.97293 69.9125 325.23856L69.9125 329.42606L68.81875 329.42606L68.81875 325.22293Q68.81875 324.55106 68.50625 324.22293Q68.20937 323.8948 67.55312 323.8948Q67.02187 323.8948 66.61562 324.17606Q66.225 324.4573 66.00625 324.91043L66.00625 329.42606L64.92812 329.42606L64.92812 323.0823L65.94375 323.0823ZM71.6625 326.2073Q71.6625 324.73856 72.35 323.86356Q73.0375 322.97293 74.1625 322.97293Q75.27187 322.97293 75.92812 323.72293L75.92812 320.42606L77.00625 320.42606L77.00625 329.42606L76.00625 329.42606L75.95937 328.73856Q75.30312 329.55106 74.14687 329.55106Q73.05312 329.55106 72.35 328.6448Q71.6625 327.73856 71.6625 326.28543L71.6625 326.2073ZM72.74062 326.3323Q72.74062 327.41043 73.17812 328.0198Q73.63125 328.62918 74.4125 328.62918Q75.44375 328.62918 75.92812 327.69168L75.92812 324.78543Q75.44375 323.8948 74.42812 323.8948Q73.63125 323.8948 73.17812 324.50418Q72.74062 325.11356 72.74062 326.3323ZM85.61562 327.73856Q85.61562 327.30106 85.27187 327.06668Q84.94375 326.81668 84.11562 326.6448Q83.30312 326.47293 82.81875 326.22293Q82.33437 325.97293 82.1 325.6448Q81.88125 325.30106 81.88125 324.8323Q81.88125 324.05106 82.5375 323.5198Q83.19375 322.97293 84.225 322.97293Q85.30312 322.97293 85.95937 323.53543Q86.63125 324.0823 86.63125 324.94168L85.55312 324.94168Q85.55312 324.50418 85.1625 324.19168Q84.7875 323.86356 84.225 323.86356Q83.63125 323.86356 83.2875 324.12918Q82.95937 324.37918 82.95937 324.78543Q82.95937 325.17606 83.27187 325.37918Q83.58437 325.5823 84.39687 325.7698Q85.20937 325.94168 85.70937 326.19168Q86.20937 326.44168 86.44375 326.80106Q86.69375 327.16043 86.69375 327.66043Q86.69375 328.5198 86.00625 329.03543Q85.33437 329.55106 84.25625 329.55106Q83.49062 329.55106 82.89687 329.28543Q82.31875 329.00418 81.99062 328.5198Q81.6625 328.03543 81.6625 327.47293L82.74062 327.47293Q82.77187 328.0198 83.17812 328.34793Q83.58437 328.66043 84.25625 328.66043Q84.86562 328.66043 85.24062 328.41043Q85.61562 328.16043 85.61562 327.73856ZM88.94375 323.0823L88.975 323.78543Q89.6625 322.97293 90.85 322.97293Q92.17812 322.97293 92.6625 323.98856Q92.975 323.53543 93.475 323.25418Q93.99062 322.97293 94.67812 322.97293Q96.77187 322.97293 96.80312 325.17606L96.80312 329.42606L95.725 329.42606L95.725 325.23856Q95.725 324.56668 95.4125 324.23856Q95.1 323.8948 94.36562 323.8948Q93.75625 323.8948 93.35 324.25418Q92.95937 324.61356 92.89687 325.22293L92.89687 329.42606L91.81875 329.42606L91.81875 325.2698Q91.81875 323.8948 90.45937 323.8948Q89.39687 323.8948 89.00625 324.80106L89.00625 329.42606L87.9125 329.42606L87.9125 323.0823L88.94375 323.0823ZM102.83437 329.42606Q102.74062 329.23856 102.67812 328.75418Q101.92812 329.55106 100.88125 329.55106Q99.94375 329.55106 99.33437 329.0198Q98.74062 328.48856 98.74062 327.66043Q98.74062 326.67606 99.49062 326.12918Q100.24062 325.5823 101.61562 325.5823L102.6625 325.5823L102.6625 325.0823Q102.6625 324.5198 102.31875 324.19168Q101.99062 323.84793 101.31875 323.84793Q100.74062 323.84793 100.35 324.1448Q99.95937 324.42606 99.95937 324.84793L98.86562 324.84793Q98.86562 324.36356 99.19375 323.92606Q99.5375 323.48856 100.11562 323.23856Q100.69375 322.97293 101.38125 322.97293Q102.49062 322.97293 103.1 323.5198Q103.725 324.06668 103.75625 325.0198L103.75625 327.94168Q103.75625 328.81668 103.975 329.3323L103.975 329.42606L102.83437 329.42606ZM101.0375 328.59793Q101.55312 328.59793 102.00625 328.3323Q102.45937 328.06668 102.6625 327.6448L102.6625 326.34793L101.81875 326.34793Q99.81875 326.34793 99.81875 327.5198Q99.81875 328.0198 100.1625 328.31668Q100.50625 328.59793 101.0375 328.59793ZM108.99062 324.05106Q108.74062 324.0198 108.45937 324.0198Q107.38125 324.0198 107.00625 324.92606L107.00625 329.42606L105.92812 329.42606L105.92812 323.0823L106.975 323.0823L106.99062 323.81668Q107.52187 322.97293 108.50625 322.97293Q108.81875 322.97293 108.99062 323.05106L108.99062 324.05106ZM111.39687 321.55106L111.39687 323.0823L112.56875 323.0823L112.56875 323.92606L111.39687 323.92606L111.39687 327.84793Q111.39687 328.23856 111.55312 328.42606Q111.70937 328.61356 112.08437 328.61356Q112.27187 328.61356 112.6 328.55106L112.6 329.42606Q112.17812 329.55106 111.77187 329.55106Q111.05312 329.55106 110.67812 329.11356Q110.30312 328.66043 110.30312 327.84793L110.30312 323.92606L109.14687 323.92606L109.14687 323.0823L110.30312 323.0823L110.30312 321.55106L111.39687 321.55106ZM119.27187 326.3323Q119.27187 327.7698 118.61562 328.66043Q117.95937 329.55106 116.81875 329.55106Q115.6625 329.55106 115.00625 328.81668L115.00625 331.86356L113.92812 331.86356L113.92812 323.0823L114.9125 323.0823L114.95937 323.78543Q115.63125 322.97293 116.80312 322.97293Q117.94375 322.97293 118.6 323.8323Q119.27187 324.69168 119.27187 326.22293L119.27187 326.3323ZM118.19375 326.2073Q118.19375 325.12918 117.725 324.5198Q117.27187 323.8948 116.475 323.8948Q115.49062 323.8948 115.00625 324.75418L115.00625 327.78543Q115.49062 328.66043 116.49062 328.66043Q117.27187 328.66043 117.725 328.05106Q118.19375 327.42606 118.19375 326.2073ZM122.00625 323.84793Q122.725 322.97293 123.88125 322.97293Q125.89687 322.97293 125.9125 325.23856L125.9125 329.42606L124.81875 329.42606L124.81875 325.22293Q124.81875 324.55106 124.50625 324.22293Q124.20937 323.8948 123.55312 323.8948Q123.02187 323.8948 122.61562 324.17606Q122.225 324.4573 122.00625 324.91043L122.00625 329.42606L120.92812 329.42606L120.92812 320.42606L122.00625 320.42606L122.00625 323.84793ZM127.63125 326.19168Q127.63125 325.2698 127.99062 324.5198Q128.36563 323.7698 129.02188 323.37918Q129.67813 322.97293 130.50626 322.97293Q131.80313 322.97293 132.6 323.86356Q133.4125 324.75418 133.4125 326.25418L133.4125 326.3323Q133.4125 327.25418 133.05313 327.98856Q132.69376 328.72293 132.0375 329.1448Q131.38126 329.55106 130.52188 329.55106Q129.24063 329.55106 128.42813 328.66043Q127.63125 327.75418 127.63125 326.2698L127.63125 326.19168ZM128.725 326.3323Q128.725 327.37918 129.20938 328.0198Q129.70938 328.66043 130.52188 328.66043Q131.35 328.66043 131.83438 328.0198Q132.31876 327.36356 132.31876 326.19168Q132.31876 325.16043 131.81876 324.5198Q131.33438 323.86356 130.50626 323.86356Q129.70938 323.86356 129.20938 324.50418Q128.725 325.12918 128.725 326.3323ZM135.94376 323.0823L135.975 323.87918Q136.70938 322.97293 137.88126 322.97293Q139.89688 322.97293 139.9125 325.23856L139.9125 329.42606L138.81876 329.42606L138.81876 325.22293Q138.81876 324.55106 138.50626 324.22293Q138.20938 323.8948 137.55313 323.8948Q137.02188 323.8948 136.61563 324.17606Q136.225 324.4573 136.00626 324.91043L136.00626 329.42606L134.92813 329.42606L134.92813 323.0823L135.94376 323.0823ZM144.55313 329.55106Q143.25626 329.55106 142.44376 328.7073Q141.64688 327.84793 141.64688 326.42606L141.64688 326.23856Q141.64688 325.28543 142.00626 324.55106Q142.36563 323.80106 143.00626 323.3948Q143.6625 322.97293 144.4125 322.97293Q145.64688 322.97293 146.33438 323.78543Q147.02188 324.59793 147.02188 326.11356L147.02188 326.56668L142.725 326.56668Q142.75626 327.50418 143.27188 328.0823Q143.80313 328.66043 144.61563 328.66043Q145.17813 328.66043 145.56876 328.42606Q145.975 328.19168 146.2875 327.80106L146.94376 328.31668Q146.14688 329.55106 144.55313 329.55106ZM144.4125 323.86356Q143.75626 323.86356 143.30313 324.34793Q142.86563 324.81668 142.77188 325.67606L145.94376 325.67606L145.94376 325.59793Q145.89688 324.7698 145.49063 324.31668Q145.1 323.86356 144.4125 323.86356Z" fill-rule="nonzero"/><path fill="#000000" d="M34.225 421.62296L38.271873 421.62296L38.271873 422.54483L33.084373 422.54483L33.084373 414.01358L34.225 414.01358L34.225 421.62296ZM38.63125 419.31046Q38.63125 418.38858 38.990623 417.63858Q39.365623 416.88858 40.021873 416.49796Q40.678123 416.0917 41.50625 416.0917Q42.803123 416.0917 43.6 416.98233Q44.4125 417.87296 44.4125 419.37296L44.4125 419.45108Q44.4125 420.37296 44.053123 421.10733Q43.69375 421.8417 43.0375 422.26358Q42.38125 422.66983 41.521873 422.66983Q40.240623 422.66983 39.428123 421.7792Q38.63125 420.87296 38.63125 419.38858L38.63125 419.31046ZM39.725 419.45108Q39.725 420.49796 40.209373 421.13858Q40.709373 421.7792 41.521873 421.7792Q42.35 421.7792 42.834373 421.13858Q43.31875 420.48233 43.31875 419.31046Q43.31875 418.2792 42.81875 417.63858Q42.334373 416.98233 41.50625 416.98233Q40.709373 416.98233 40.209373 417.62296Q39.725 418.24796 39.725 419.45108ZM51.5375 421.04483L52.75625 416.20108L53.834373 416.20108L51.990623 422.54483L51.115623 422.54483L49.56875 417.73233L48.06875 422.54483L47.19375 422.54483L45.35 416.20108L46.428123 416.20108L47.678123 420.95108L49.1625 416.20108L50.021873 416.20108L51.5375 421.04483ZM60.553123 422.66983Q59.25625 422.66983 58.44375 421.82608Q57.646873 420.9667 57.646873 419.54483L57.646873 419.35733Q57.646873 418.4042 58.00625 417.66983Q58.365623 416.91983 59.00625 416.51358Q59.6625 416.0917 60.4125 416.0917Q61.646873 416.0917 62.334373 416.9042Q63.021873 417.7167 63.021873 419.23233L63.021873 419.68546L58.725 419.68546Q58.75625 420.62296 59.271873 421.20108Q59.803123 421.7792 60.615623 421.7792Q61.178123 421.7792 61.56875 421.54483Q61.975 421.31046 62.2875 420.91983L62.94375 421.43546Q62.146873 422.66983 60.553123 422.66983ZM60.4125 416.98233Q59.75625 416.98233 59.303123 417.4667Q58.865623 417.93546 58.771873 418.79483L61.94375 418.79483L61.94375 418.7167Q61.896873 417.88858 61.490623 417.43546Q61.1 416.98233 60.4125 416.98233ZM64.94375 416.20108L64.975 416.99796Q65.70937 416.0917 66.88125 416.0917Q68.89687 416.0917 68.9125 418.35733L68.9125 422.54483L67.81875 422.54483L67.81875 418.3417Q67.81875 417.66983 67.50625 417.3417Q67.20937 417.01358 66.55312 417.01358Q66.02187 417.01358 65.61562 417.29483Q65.225 417.57608 65.00625 418.0292L65.00625 422.54483L63.928123 422.54483L63.928123 416.20108L64.94375 416.20108ZM70.6625 419.32608Q70.6625 417.85733 71.35 416.98233Q72.0375 416.0917 73.1625 416.0917Q74.27187 416.0917 74.92812 416.8417L74.92812 413.54483L76.00625 413.54483L76.00625 422.54483L75.00625 422.54483L74.95937 421.85733Q74.30312 422.66983 73.14687 422.66983Q72.05312 422.66983 71.35 421.76358Q70.6625 420.85733 70.6625 419.4042L70.6625 419.32608ZM71.74062 419.45108Q71.74062 420.5292 72.17812 421.13858Q72.63125 421.74796 73.4125 421.74796Q74.44375 421.74796 74.92812 420.81046L74.92812 417.9042Q74.44375 417.01358 73.42812 417.01358Q72.63125 417.01358 72.17812 417.62296Q71.74062 418.23233 71.74062 419.45108ZM83.6 418.74796Q82.1625 418.32608 81.49062 417.7167Q80.83437 417.10733 80.83437 416.2167Q80.83437 415.2167 81.63125 414.56046Q82.44375 413.88858 83.74062 413.88858Q84.61562 413.88858 85.30312 414.23233Q85.99062 414.57608 86.36562 415.16983Q86.75625 415.76358 86.75625 416.48233L85.61562 416.48233Q85.61562 415.70108 85.11562 415.26358Q84.63125 414.82608 83.74062 414.82608Q82.9125 414.82608 82.44375 415.20108Q81.975 415.56046 81.975 416.20108Q81.975 416.73233 82.4125 417.0917Q82.86562 417.45108 83.92812 417.74796Q84.99062 418.04483 85.58437 418.4042Q86.19375 418.76358 86.475 419.24796Q86.77187 419.73233 86.77187 420.37296Q86.77187 421.41983 85.95937 422.04483Q85.14687 422.66983 83.80312 422.66983Q82.9125 422.66983 82.14687 422.32608Q81.39687 421.98233 80.975 421.4042Q80.56875 420.81046 80.56875 420.07608L81.69375 420.07608Q81.69375 420.8417 82.27187 421.29483Q82.85 421.74796 83.80312 421.74796Q84.69375 421.74796 85.1625 421.38858Q85.63125 421.01358 85.63125 420.38858Q85.63125 419.76358 85.19375 419.41983Q84.75625 419.07608 83.6 418.74796ZM88.94375 416.20108L88.975 416.9042Q89.6625 416.0917 90.85 416.0917Q92.17812 416.0917 92.6625 417.10733Q92.975 416.6542 93.475 416.37296Q93.99062 416.0917 94.67812 416.0917Q96.77187 416.0917 96.80312 418.29483L96.80312 422.54483L95.725 422.54483L95.725 418.35733Q95.725 417.68546 95.4125 417.35733Q95.1 417.01358 94.36562 417.01358Q93.75625 417.01358 93.35 417.37296Q92.95937 417.73233 92.89687 418.3417L92.89687 422.54483L91.81875 422.54483L91.81875 418.38858Q91.81875 417.01358 90.45937 417.01358Q89.39687 417.01358 89.00625 417.91983L89.00625 422.54483L87.9125 422.54483L87.9125 416.20108L88.94375 416.20108ZM102.83437 422.54483Q102.74062 422.35733 102.67812 421.87296Q101.92812 422.66983 100.88125 422.66983Q99.94375 422.66983 99.33437 422.13858Q98.74062 421.60733 98.74062 420.7792Q98.74062 419.79483 99.49062 419.24796Q100.24062 418.70108 101.61562 418.70108L102.6625 418.70108L102.6625 418.20108Q102.6625 417.63858 102.31875 417.31046Q101.99062 416.9667 101.31875 416.9667Q100.74062 416.9667 100.35 417.26358Q99.95937 417.54483 99.95937 417.9667L98.86562 417.9667Q98.86562 417.48233 99.19375 417.04483Q99.5375 416.60733 100.11562 416.35733Q100.69375 416.0917 101.38125 416.0917Q102.49062 416.0917 103.1 416.63858Q103.725 417.18546 103.75625 418.13858L103.75625 421.06046Q103.75625 421.93546 103.975 422.45108L103.975 422.54483L102.83437 422.54483ZM101.0375 421.7167Q101.55312 421.7167 102.00625 421.45108Q102.45937 421.18546 102.6625 420.76358L102.6625 419.4667L101.81875 419.4667Q99.81875 419.4667 99.81875 420.63858Q99.81875 421.13858 100.1625 421.43546Q100.50625 421.7167 101.0375 421.7167ZM108.99062 417.16983Q108.74062 417.13858 108.45937 417.13858Q107.38125 417.13858 107.00625 418.04483L107.00625 422.54483L105.92812 422.54483L105.92812 416.20108L106.975 416.20108L106.99062 416.93546Q107.52187 416.0917 108.50625 416.0917Q108.81875 416.0917 108.99062 416.16983L108.99062 417.16983ZM111.39687 414.66983L111.39687 416.20108L112.56875 416.20108L112.56875 417.04483L111.39687 417.04483L111.39687 420.9667Q111.39687 421.35733 111.55312 421.54483Q111.70937 421.73233 112.08437 421.73233Q112.27187 421.73233 112.6 421.66983L112.6 422.54483Q112.17812 422.66983 111.77187 422.66983Q111.05312 422.66983 110.67812 422.23233Q110.30312 421.7792 110.30312 420.9667L110.30312 417.04483L109.14687 417.04483L109.14687 416.20108L110.30312 416.20108L110.30312 414.66983L111.39687 414.66983ZM119.27187 419.45108Q119.27187 420.88858 118.61562 421.7792Q117.95937 422.66983 116.81875 422.66983Q115.6625 422.66983 115.00625 421.93546L115.00625 424.98233L113.92812 424.98233L113.92812 416.20108L114.9125 416.20108L114.95937 416.9042Q115.63125 416.0917 116.80312 416.0917Q117.94375 416.0917 118.6 416.95108Q119.27187 417.81046 119.27187 419.3417L119.27187 419.45108ZM118.19375 419.32608Q118.19375 418.24796 117.725 417.63858Q117.27187 417.01358 116.475 417.01358Q115.49062 417.01358 115.00625 417.87296L115.00625 420.9042Q115.49062 421.7792 116.49062 421.7792Q117.27187 421.7792 117.725 421.16983Q118.19375 420.54483 118.19375 419.32608ZM122.00625 416.9667Q122.725 416.0917 123.88125 416.0917Q125.89687 416.0917 125.9125 418.35733L125.9125 422.54483L124.81875 422.54483L124.81875 418.3417Q124.81875 417.66983 124.50625 417.3417Q124.20937 417.01358 123.55312 417.01358Q123.02187 417.01358 122.61562 417.29483Q122.225 417.57608 122.00625 418.0292L122.00625 422.54483L120.92812 422.54483L120.92812 413.54483L122.00625 413.54483L122.00625 416.9667ZM127.63125 419.31046Q127.63125 418.38858 127.99062 417.63858Q128.36563 416.88858 129.02188 416.49796Q129.67813 416.0917 130.50626 416.0917Q131.80313 416.0917 132.6 416.98233Q133.4125 417.87296 133.4125 419.37296L133.4125 419.45108Q133.4125 420.37296 133.05313 421.10733Q132.69376 421.8417 132.0375 422.26358Q131.38126 422.66983 130.52188 422.66983Q129.24063 422.66983 128.42813 421.7792Q127.63125 420.87296 127.63125 419.38858L127.63125 419.31046ZM128.725 419.45108Q128.725 420.49796 129.20938 421.13858Q129.70938 421.7792 130.52188 421.7792Q131.35 421.7792 131.83438 421.13858Q132.31876 420.48233 132.31876 419.31046Q132.31876 418.2792 131.81876 417.63858Q131.33438 416.98233 130.50626 416.98233Q129.70938 416.98233 129.20938 417.62296Q128.725 418.24796 128.725 419.45108ZM135.94376 416.20108L135.975 416.99796Q136.70938 416.0917 137.88126 416.0917Q139.89688 416.0917 139.9125 418.35733L139.9125 422.54483L138.81876 422.54483L138.81876 418.3417Q138.81876 417.66983 138.50626 417.3417Q138.20938 417.01358 137.55313 417.01358Q137.02188 417.01358 136.61563 417.29483Q136.225 417.57608 136.00626 418.0292L136.00626 422.54483L134.92813 422.54483L134.92813 416.20108L135.94376 416.20108ZM144.55313 422.66983Q143.25626 422.66983 142.44376 421.82608Q141.64688 420.9667 141.64688 419.54483L141.64688 419.35733Q141.64688 418.4042 142.00626 417.66983Q142.36563 416.91983 143.00626 416.51358Q143.6625 416.0917 144.4125 416.0917Q145.64688 416.0917 146.33438 416.9042Q147.02188 417.7167 147.02188 419.23233L147.02188 419.68546L142.725 419.68546Q142.75626 420.62296 143.27188 421.20108Q143.80313 421.7792 144.61563 421.7792Q145.17813 421.7792 145.56876 421.54483Q145.975 421.31046 146.2875 420.91983L146.94376 421.43546Q146.14688 422.66983 144.55313 422.66983ZM144.4125 416.98233Q143.75626 416.98233 143.30313 417.4667Q142.86563 417.93546 142.77188 418.79483L145.94376 418.79483L145.94376 418.7167Q145.89688 417.88858 145.49063 417.43546Q145.1 416.98233 144.4125 416.98233Z" fill-rule="nonzero"/><path fill="#17206d" d="M155.6625 495.25937Q155.6625 497.16562 155.00626 498.10312Q154.36563 499.025 152.975 499.025Q151.61563 499.025 150.95938 498.11874Q150.30313 497.2125 150.27188 495.4L150.27188 493.9625Q150.27188 492.07187 150.9125 491.16562Q151.56876 490.24374 152.95938 490.24374Q154.33438 490.24374 154.99063 491.13437Q155.64688 492.00937 155.6625 493.85312L155.6625 495.25937ZM154.56876 493.775Q154.56876 492.4 154.17813 491.775Q153.80313 491.13437 152.95938 491.13437Q152.13126 491.13437 151.74063 491.775Q151.36563 492.4 151.36563 493.69687L151.36563 495.43124Q151.36563 496.80624 151.75626 497.47812Q152.1625 498.13437 152.975 498.13437Q153.77188 498.13437 154.1625 497.50937Q154.55313 496.88437 154.56876 495.55624L154.56876 493.775Z" fill-rule="nonzero"/><path fill="#17206d" d="M366.42126 494.10312L367.23376 494.10312Q368.015 494.0875 368.4525 493.69687Q368.89 493.30624 368.89 492.63437Q368.89 491.13437 367.39 491.13437Q366.6869 491.13437 366.265 491.54062Q365.85876 491.94687 365.85876 492.60312L364.765 492.60312Q364.765 491.5875 365.4994 490.91562Q366.2494 490.24374 367.39 490.24374Q368.59314 490.24374 369.28064 490.88437Q369.96814 491.525 369.96814 492.66562Q369.96814 493.22812 369.60876 493.74374Q369.2494 494.25937 368.6244 494.525Q369.3275 494.74374 369.7025 495.25937Q370.09314 495.775 370.09314 496.525Q370.09314 497.66562 369.34314 498.35312Q368.59314 499.025 367.39 499.025Q366.2025 499.025 365.4369 498.36874Q364.6869 497.7125 364.6869 496.65L365.78064 496.65Q365.78064 497.32187 366.21814 497.72812Q366.65564 498.13437 367.40564 498.13437Q368.1869 498.13437 368.59314 497.72812Q369.015 497.30624 369.015 496.54062Q369.015 495.80624 368.5619 495.41562Q368.10876 495.00937 367.23376 494.99374L366.42126 494.99374L366.42126 494.10312ZM377.2025 495.25937Q377.2025 497.16562 376.54626 498.10312Q375.90564 499.025 374.515 499.025Q373.15564 499.025 372.4994 498.11874Q371.84314 497.2125 371.8119 495.4L371.8119 493.9625Q371.8119 492.07187 372.4525 491.16562Q373.10876 490.24374 374.4994 490.24374Q375.8744 490.24374 376.53064 491.13437Q377.1869 492.00937 377.2025 493.85312L377.2025 495.25937ZM376.10876 493.775Q376.10876 492.4 375.71814 491.775Q375.34314 491.13437 374.4994 491.13437Q373.67126 491.13437 373.28064 491.775Q372.90564 492.4 372.90564 493.69687L372.90564 495.43124Q372.90564 496.80624 373.29626 497.47812Q373.7025 498.13437 374.515 498.13437Q375.3119 498.13437 375.7025 497.50937Q376.09314 496.88437 376.10876 495.55624L376.10876 493.775Z" fill-rule="nonzero"/><path fill="#17206d" d="M587.14874 490.36874L587.14874 491.275L586.9456 491.275Q585.68 491.30624 584.93 492.04062Q584.18 492.75937 584.055 494.07187Q584.7425 493.30624 585.89874 493.30624Q587.0081 493.30624 587.68 494.0875Q588.35187 494.86874 588.35187 496.11874Q588.35187 497.43124 587.6331 498.22812Q586.91437 499.025 585.6956 499.025Q584.47687 499.025 583.71124 498.0875Q582.96124 497.13437 582.96124 495.65L582.96124 495.24374Q582.96124 492.88437 583.96124 491.63437Q584.96124 490.38437 586.9456 490.36874L587.14874 490.36874ZM585.72687 494.2125Q585.16437 494.2125 584.6956 494.54062Q584.22687 494.86874 584.03937 495.38437L584.03937 495.775Q584.03937 496.8375 584.5081 497.47812Q584.9925 498.11874 585.6956 498.11874Q586.43 498.11874 586.85187 497.5875Q587.27374 497.04062 587.27374 496.16562Q587.27374 495.29062 586.85187 494.75937Q586.43 494.2125 585.72687 494.2125ZM595.2425 495.25937Q595.2425 497.16562 594.58624 498.10312Q593.9456 499.025 592.555 499.025Q591.1956 499.025 590.53937 498.11874Q589.8831 497.2125 589.85187 495.4L589.85187 493.9625Q589.85187 492.07187 590.4925 491.16562Q591.14874 490.24374 592.53937 490.24374Q593.91437 490.24374 594.5706 491.13437Q595.22687 492.00937 595.2425 493.85312L595.2425 495.25937ZM594.14874 493.775Q594.14874 492.4 593.7581 491.775Q593.3831 491.13437 592.53937 491.13437Q591.71124 491.13437 591.3206 491.775Q590.9456 492.4 590.9456 493.69687L590.9456 495.43124Q590.9456 496.80624 591.33624 497.47812Q591.7425 498.13437 592.555 498.13437Q593.35187 498.13437 593.7425 497.50937Q594.1331 496.88437 594.14874 495.55624L594.14874 493.775Z" fill-rule="nonzero"/><path fill="#17206d" d="M805.07935 495.15Q804.7512 495.55624 804.26685 495.80624Q803.7981 496.04062 803.2356 496.04062Q802.5012 496.04062 801.95435 495.68124Q801.4075 495.32187 801.1106 494.66562Q800.8137 493.99374 800.8137 493.19687Q800.8137 492.35312 801.1262 491.66562Q801.45435 490.97812 802.0481 490.61874Q802.6575 490.24374 803.45435 490.24374Q804.72 490.24374 805.4387 491.19687Q806.1731 492.15 806.1731 493.775L806.1731 494.0875Q806.1731 496.5875 805.1887 497.72812Q804.20435 498.86874 802.22 498.9L802.0012 498.9L802.0012 497.99374L802.2356 497.99374Q803.57935 497.9625 804.2981 497.29062Q805.01685 496.61874 805.07935 495.15ZM803.4075 495.15Q803.95435 495.15 804.4075 494.82187Q804.8762 494.47812 805.095 493.99374L805.095 493.55624Q805.095 492.49374 804.6262 491.82187Q804.1575 491.15 803.45435 491.15Q802.7356 491.15 802.2981 491.69687Q801.8762 492.24374 801.8762 493.15Q801.8762 494.025 802.2825 494.5875Q802.70435 495.15 803.4075 495.15ZM813.2825 495.25937Q813.2825 497.16562 812.6262 498.10312Q811.9856 499.025 810.595 499.025Q809.2356 499.025 808.57935 498.11874Q807.9231 497.2125 807.89185 495.4L807.89185 493.9625Q807.89185 492.07187 808.5325 491.16562Q809.1887 490.24374 810.57935 490.24374Q811.95435 490.24374 812.6106 491.13437Q813.26685 492.00937 813.2825 493.85312L813.2825 495.25937ZM812.1887 493.775Q812.1887 492.4 811.7981 491.775Q811.4231 491.13437 810.57935 491.13437Q809.7512 491.13437 809.3606 491.775Q808.9856 492.4 808.9856 493.69687L808.9856 495.43124Q808.9856 496.80624 809.3762 497.47812Q809.7825 498.13437 810.595 498.13437Q811.39185 498.13437 811.7825 497.50937Q812.1731 496.88437 812.1887 495.55624L812.1887 493.775Z" fill-rule="nonzero"/><path fill="#000000" d="M35.928123 46.865623L39.803123 34.0375L43.709373 34.0375L37.771873 51.1L34.1 51.1L28.178125 34.0375L32.084373 34.0375L35.928123 46.865623ZM48.975 51.1L45.584373 51.1L45.584373 38.4125L48.975 38.4125L48.975 51.1ZM45.38125 35.13125Q45.38125 34.38125 45.88125 33.896873Q46.396873 33.396873 47.271873 33.396873Q48.146873 33.396873 48.6625 33.896873Q49.178123 34.38125 49.178123 35.13125Q49.178123 35.9125 48.646873 36.4125Q48.13125 36.896873 47.271873 36.896873Q46.428123 36.896873 45.896873 36.4125Q45.38125 35.9125 45.38125 35.13125ZM58.521873 41.6Q57.834373 41.50625 57.303123 41.50625Q55.38125 41.50625 54.7875 42.803123L54.7875 51.1L51.396873 51.1L51.396873 38.4125L54.6 38.4125L54.69375 39.928123Q55.709373 38.178123 57.521873 38.178123Q58.084373 38.178123 58.56875 38.334373L58.521873 41.6ZM64.45937 35.303123L64.45937 38.4125L66.63125 38.4125L66.63125 40.896873L64.45937 40.896873L64.45937 47.225Q64.45937 47.928123 64.725 48.240623Q64.99062 48.5375 65.75625 48.5375Q66.31875 48.5375 66.75625 48.459373L66.75625 51.021873Q65.75625 51.334373 64.70937 51.334373Q61.146873 51.334373 61.06875 47.740623L61.06875 40.896873L59.225 40.896873L59.225 38.4125L61.06875 38.4125L61.06875 35.303123L64.45937 35.303123ZM75.99062 49.803123Q74.74062 51.334373 72.52187 51.334373Q70.49062 51.334373 69.4125 50.1625Q68.35 48.990623 68.31875 46.725L68.31875 38.4125L71.70937 38.4125L71.70937 46.615623Q71.70937 48.584373 73.50625 48.584373Q75.24062 48.584373 75.88125 47.396873L75.88125 38.4125L79.27187 38.4125L79.27187 51.1L76.08437 51.1L75.99062 49.803123ZM88.75625 51.1Q88.52187 50.646873 88.4125 49.959373Q87.17812 51.334373 85.20937 51.334373Q83.35 51.334373 82.11562 50.25625Q80.89687 49.178123 80.89687 47.5375Q80.89687 45.521873 82.38125 44.44375Q83.88125 43.365623 86.70937 43.35L88.27187 43.35L88.27187 42.63125Q88.27187 41.740623 87.81875 41.225Q87.36562 40.69375 86.39687 40.69375Q85.5375 40.69375 85.05312 41.1Q84.56875 41.50625 84.56875 42.225L81.17812 42.225Q81.17812 41.13125 81.85 40.19375Q82.5375 39.25625 83.77187 38.725Q85.02187 38.178123 86.56875 38.178123Q88.9125 38.178123 90.2875 39.365623Q91.6625 40.5375 91.6625 42.678123L91.6625 48.1625Q91.67812 49.975 92.17812 50.896873L92.17812 51.1L88.75625 51.1ZM85.94375 48.740623Q86.69375 48.740623 87.31875 48.4125Q87.95937 48.06875 88.27187 47.50625L88.27187 45.334373L87.00625 45.334373Q84.45937 45.334373 84.30312 47.084373L84.2875 47.2875Q84.2875 47.928123 84.725 48.334373Q85.17812 48.740623 85.94375 48.740623ZM97.975 51.1L94.58437 51.1L94.58437 33.1L97.975 33.1L97.975 51.1ZM106.63125 51.1L106.63125 34.0375L112.6 34.0375Q115.70937 34.0375 117.30312 35.225Q118.9125 36.4125 118.9125 38.709373Q118.9125 39.959373 118.27187 40.928123Q117.63125 41.88125 116.475 42.31875Q117.7875 42.646873 118.5375 43.646873Q119.30312 44.646873 119.30312 46.084373Q119.30312 48.5375 117.725 49.803123Q116.1625 51.06875 113.25625 51.1L106.63125 51.1ZM110.14687 43.6625L110.14687 48.271873L113.14687 48.271873Q114.39687 48.271873 115.08437 47.678123Q115.7875 47.084373 115.7875 46.053123Q115.7875 43.709373 113.36562 43.6625L110.14687 43.6625ZM110.14687 41.178123L112.74062 41.178123Q115.39687 41.13125 115.39687 39.06875Q115.39687 37.896873 114.725 37.396873Q114.05312 36.88125 112.6 36.88125L110.14687 36.88125L110.14687 41.178123ZM128.75626 51.1Q128.52188 50.646873 128.4125 49.959373Q127.17812 51.334373 125.20937 51.334373Q123.35 51.334373 122.11562 50.25625Q120.89687 49.178123 120.89687 47.5375Q120.89687 45.521873 122.38125 44.44375Q123.88125 43.365623 126.70937 43.35L128.27188 43.35L128.27188 42.63125Q128.27188 41.740623 127.81875 41.225Q127.36562 40.69375 126.39687 40.69375Q125.5375 40.69375 125.05312 41.1Q124.56875 41.50625 124.56875 42.225L121.17812 42.225Q121.17812 41.13125 121.85 40.19375Q122.5375 39.25625 123.77187 38.725Q125.02187 38.178123 126.56875 38.178123Q128.9125 38.178123 130.2875 39.365623Q131.6625 40.5375 131.6625 42.678123L131.6625 48.1625Q131.67813 49.975 132.17813 50.896873L132.17813 51.1L128.75626 51.1ZM125.94375 48.740623Q126.69375 48.740623 127.31875 48.4125Q127.95937 48.06875 128.27188 47.50625L128.27188 45.334373L127.00625 45.334373Q124.45937 45.334373 124.30312 47.084373L124.2875 47.2875Q124.2875 47.928123 124.725 48.334373Q125.17812 48.740623 125.94375 48.740623ZM139.67813 48.6Q140.61563 48.6 141.19376 48.084373Q141.7875 47.56875 141.80313 46.709373L144.99063 46.709373Q144.975 48.00625 144.27188 49.084373Q143.58438 50.146873 142.38126 50.740623Q141.19376 51.334373 139.74063 51.334373Q137.02188 51.334373 135.44376 49.615623Q133.88126 47.88125 133.88126 44.834373L133.88126 44.6Q133.88126 41.678123 135.42813 39.928123Q136.99063 38.178123 139.70938 38.178123Q142.08438 38.178123 143.52188 39.5375Q144.95938 40.896873 144.99063 43.146873L141.80313 43.146873Q141.7875 42.1625 141.19376 41.553123Q140.61563 40.928123 139.64688 40.928123Q138.475 40.928123 137.86563 41.7875Q137.25626 42.646873 137.25626 44.584373L137.25626 44.928123Q137.25626 46.896873 137.85 47.75625Q138.45938 48.6 139.67813 48.6ZM152.00626 46.00625L150.7875 47.225L150.7875 51.1L147.39688 51.1L147.39688 33.1L150.7875 33.1L150.7875 43.06875L151.44376 42.225L154.69376 38.4125L158.75626 38.4125L154.17813 43.709373L159.1625 51.1L155.27188 51.1L152.00626 46.00625ZM159.9125 44.6625Q159.9125 41.740623 161.30313 39.959373Q162.69376 38.178123 165.0375 38.178123Q167.13126 38.178123 168.2875 39.615623L168.42813 38.4125L171.50626 38.4125L171.50626 50.678123Q171.50626 52.35 170.74063 53.56875Q169.99063 54.803123 168.61563 55.44375Q167.24063 56.1 165.4125 56.1Q164.00626 56.1 162.67813 55.5375Q161.36563 54.975 160.67813 54.1L162.17813 52.0375Q163.44376 53.459373 165.25626 53.459373Q166.6 53.459373 167.35 52.740623Q168.1 52.021873 168.1 50.69375L168.1 50.00625Q166.92813 51.334373 165.02188 51.334373Q162.74063 51.334373 161.31876 49.553123Q159.9125 47.75625 159.9125 44.803123L159.9125 44.6625ZM163.30313 44.9125Q163.30313 46.63125 163.99063 47.615623Q164.67813 48.584373 165.88126 48.584373Q167.42813 48.584373 168.1 47.428123L168.1 42.1Q167.42813 40.94375 165.9125 40.94375Q164.69376 40.94375 163.99063 41.94375Q163.30313 42.928123 163.30313 44.9125ZM181.52188 41.6Q180.83438 41.50625 180.30313 41.50625Q178.38126 41.50625 177.7875 42.803123L177.7875 51.1L174.39688 51.1L174.39688 38.4125L177.6 38.4125L177.69376 39.928123Q178.70938 38.178123 180.52188 38.178123Q181.08438 38.178123 181.56876 38.334373L181.52188 41.6ZM182.88126 44.646873Q182.88126 42.75625 183.6 41.2875Q184.33438 39.803123 185.69376 38.990623Q187.05313 38.178123 188.86563 38.178123Q191.42813 38.178123 193.05313 39.75625Q194.67813 41.31875 194.86563 44.021873L194.88126 44.88125Q194.88126 47.803123 193.25626 49.56875Q191.63126 51.334373 188.88126 51.334373Q186.14688 51.334373 184.50626 49.584373Q182.88126 47.81875 182.88126 44.7875L182.88126 44.646873ZM186.25626 44.88125Q186.25626 46.69375 186.92813 47.646873Q187.61563 48.6 188.88126 48.6Q190.11563 48.6 190.80313 47.6625Q191.50626 46.709373 191.50626 44.646873Q191.50626 42.865623 190.80313 41.896873Q190.11563 40.928123 188.86563 40.928123Q187.61563 40.928123 186.92813 41.896873Q186.25626 42.865623 186.25626 44.88125ZM204.99063 49.803123Q203.74063 51.334373 201.52188 51.334373Q199.49063 51.334373 198.4125 50.1625Q197.35 48.990623 197.31876 46.725L197.31876 38.4125L200.70938 38.4125L200.70938 46.615623Q200.70938 48.584373 202.50626 48.584373Q204.24063 48.584373 204.88126 47.396873L204.88126 38.4125L208.27188 38.4125L208.27188 51.1L205.08438 51.1L204.99063 49.803123ZM213.52188 38.4125L213.63126 39.88125Q214.99063 38.178123 217.27188 38.178123Q219.2875 38.178123 220.27188 39.365623Q221.25626 40.553123 221.27188 42.9125L221.27188 51.1L217.89688 51.1L217.89688 42.990623Q217.89688 41.9125 217.42813 41.428123Q216.95938 40.94375 215.86563 40.94375Q214.42813 40.94375 213.725 42.1625L213.725 51.1L210.33438 51.1L210.33438 38.4125L213.52188 38.4125ZM222.88126 44.6625Q222.88126 41.69375 224.20938 39.94375Q225.5375 38.178123 227.85 38.178123Q229.69376 38.178123 230.89688 39.56875L230.89688 33.1L234.30313 33.1L234.30313 51.1L231.24063 51.1L231.08438 49.75625Q229.81876 51.334373 227.81876 51.334373Q225.58438 51.334373 224.225 49.56875Q222.88126 47.803123 222.88126 44.6625ZM226.25626 44.9125Q226.25626 46.69375 226.88126 47.646873Q227.50626 48.584373 228.69376 48.584373Q230.25626 48.584373 230.89688 47.271873L230.89688 42.25625Q230.27188 40.94375 228.70938 40.94375Q226.25626 40.94375 226.25626 44.9125ZM244.33438 51.1L244.33438 40.896873L242.44376 40.896873L242.44376 38.4125L244.33438 38.4125L244.33438 37.334373Q244.33438 35.209373 245.55313 34.0375Q246.77188 32.85 248.975 32.85Q249.67813 32.85 250.70938 33.084373L250.6625 35.709373Q250.24063 35.6 249.63126 35.6Q247.725 35.6 247.725 37.396873L247.725 38.4125L250.24063 38.4125L250.24063 40.896873L247.725 40.896873L247.725 51.1L244.33438 51.1ZM259.52188 41.6Q258.83438 41.50625 258.30313 41.50625Q256.38126 41.50625 255.7875 42.803123L255.7875 51.1L252.39688 51.1L252.39688 38.4125L255.6 38.4125L255.69376 39.928123Q256.70938 38.178123 258.52188 38.178123Q259.08438 38.178123 259.56876 38.334373L259.52188 41.6ZM268.75626 51.1Q268.52188 50.646873 268.4125 49.959373Q267.17813 51.334373 265.20938 51.334373Q263.35 51.334373 262.11563 50.25625Q260.89688 49.178123 260.89688 47.5375Q260.89688 45.521873 262.38126 44.44375Q263.88126 43.365623 266.70938 43.35L268.27188 43.35L268.27188 42.63125Q268.27188 41.740623 267.81876 41.225Q267.36563 40.69375 266.39688 40.69375Q265.5375 40.69375 265.05313 41.1Q264.56876 41.50625 264.56876 42.225L261.17813 42.225Q261.17813 41.13125 261.85 40.19375Q262.5375 39.25625 263.77188 38.725Q265.02188 38.178123 266.56876 38.178123Q268.9125 38.178123 270.2875 39.365623Q271.6625 40.5375 271.6625 42.678123L271.6625 48.1625Q271.67813 49.975 272.17813 50.896873L272.17813 51.1L268.75626 51.1ZM265.94376 48.740623Q266.69376 48.740623 267.31876 48.4125Q267.95938 48.06875 268.27188 47.50625L268.27188 45.334373L267.00626 45.334373Q264.45938 45.334373 264.30313 47.084373L264.2875 47.2875Q264.2875 47.928123 264.725 48.334373Q265.17813 48.740623 265.94376 48.740623ZM277.58438 38.4125L277.67813 39.834373Q279.0375 38.178123 281.33438 38.178123Q283.77188 38.178123 284.69376 40.115623Q286.02188 38.178123 288.50626 38.178123Q290.56876 38.178123 291.56876 39.38125Q292.58438 40.584373 292.58438 43.00625L292.58438 51.1L289.17813 51.1L289.17813 43.00625Q289.17813 41.928123 288.75626 41.44375Q288.33438 40.94375 287.27188 40.94375Q285.74063 40.94375 285.1625 42.396873L285.17813 51.1L281.7875 51.1L281.7875 43.021873Q281.7875 41.928123 281.35 41.44375Q280.9125 40.94375 279.88126 40.94375Q278.42813 40.94375 277.7875 42.13125L277.7875 51.1L274.39688 51.1L274.39688 38.4125L277.58438 38.4125ZM301.24063 51.334373Q298.44376 51.334373 296.69376 49.63125Q294.94376 47.9125 294.94376 45.06875L294.94376 44.740623Q294.94376 42.81875 295.67813 41.31875Q296.42813 39.81875 297.77188 39.00625Q299.13126 38.178123 300.86563 38.178123Q303.45938 38.178123 304.95938 39.81875Q306.45938 41.459373 306.45938 44.475L306.45938 45.865623L298.38126 45.865623Q298.5375 47.1 299.36563 47.85Q300.19376 48.6 301.45938 48.6Q303.4125 48.6 304.52188 47.178123L306.17813 49.053123Q305.42813 50.13125 304.11563 50.740623Q302.81876 51.334373 301.24063 51.334373ZM300.85 40.928123Q299.85 40.928123 299.20938 41.615623Q298.58438 42.2875 298.4125 43.553123L303.13126 43.553123L303.13126 43.2875Q303.1 42.1625 302.50626 41.553123Q301.92813 40.928123 300.85 40.928123ZM315.52188 41.6Q314.83438 41.50625 314.30313 41.50625Q312.38126 41.50625 311.7875 42.803123L311.7875 51.1L308.39688 51.1L308.39688 38.4125L311.6 38.4125L311.69376 39.928123Q312.70938 38.178123 314.52188 38.178123Q315.08438 38.178123 315.56876 38.334373L315.52188 41.6ZM324.75626 51.1Q324.52188 50.646873 324.4125 49.959373Q323.17813 51.334373 321.20938 51.334373Q319.35 51.334373 318.11563 50.25625Q316.89688 49.178123 316.89688 47.5375Q316.89688 45.521873 318.38126 44.44375Q319.88126 43.365623 322.70938 43.35L324.27188 43.35L324.27188 42.63125Q324.27188 41.740623 323.81876 41.225Q323.36563 40.69375 322.39688 40.69375Q321.5375 40.69375 321.05313 41.1Q320.56876 41.50625 320.56876 42.225L317.17813 42.225Q317.17813 41.13125 317.85 40.19375Q318.5375 39.25625 319.77188 38.725Q321.02188 38.178123 322.56876 38.178123Q324.9125 38.178123 326.2875 39.365623Q327.6625 40.5375 327.6625 42.678123L327.6625 48.1625Q327.67813 49.975 328.17813 50.896873L328.17813 51.1L324.75626 51.1ZM321.94376 48.740623Q322.69376 48.740623 323.31876 48.4125Q323.95938 48.06875 324.27188 47.50625L324.27188 45.334373L323.00626 45.334373Q320.45938 45.334373 320.30313 47.084373L320.2875 47.2875Q320.2875 47.928123 320.725 48.334373Q321.17813 48.740623 321.94376 48.740623ZM334.45938 35.303123L334.45938 38.4125L336.63126 38.4125L336.63126 40.896873L334.45938 40.896873L334.45938 47.225Q334.45938 47.928123 334.725 48.240623Q334.99063 48.5375 335.75626 48.5375Q336.31876 48.5375 336.75626 48.459373L336.75626 51.021873Q335.75626 51.334373 334.70938 51.334373Q331.14688 51.334373 331.06876 47.740623L331.06876 40.896873L329.225 40.896873L329.225 38.4125L331.06876 38.4125L331.06876 35.303123L334.45938 35.303123ZM344.24063 51.334373Q341.44376 51.334373 339.69376 49.63125Q337.94376 47.9125 337.94376 45.06875L337.94376 44.740623Q337.94376 42.81875 338.67813 41.31875Q339.42813 39.81875 340.77188 39.00625Q342.13126 38.178123 343.86563 38.178123Q346.45938 38.178123 347.95938 39.81875Q349.45938 41.459373 349.45938 44.475L349.45938 45.865623L341.38126 45.865623Q341.5375 47.1 342.36563 47.85Q343.19376 48.6 344.45938 48.6Q346.4125 48.6 347.52188 47.178123L349.17813 49.053123Q348.42813 50.13125 347.11563 50.740623Q345.81876 51.334373 344.24063 51.334373ZM343.85 40.928123Q342.85 40.928123 342.20938 41.615623Q341.58438 42.2875 341.4125 43.553123L346.13126 43.553123L346.13126 43.2875Q346.1 42.1625 345.50626 41.553123Q344.92813 40.928123 343.85 40.928123ZM356.88126 44.646873Q356.88126 42.75625 357.6 41.2875Q358.33438 39.803123 359.69376 38.990623Q361.05313 38.178123 362.86563 38.178123Q365.42813 38.178123 367.05313 39.75625Q368.67813 41.31875 368.86563 44.021873L368.88126 44.88125Q368.88126 47.803123 367.25626 49.56875Q365.63126 51.334373 362.88126 51.334373Q360.14688 51.334373 358.50626 49.584373Q356.88126 47.81875 356.88126 44.7875L356.88126 44.646873ZM360.25626 44.88125Q360.25626 46.69375 360.92813 47.646873Q361.61563 48.6 362.88126 48.6Q364.11563 48.6 364.80313 47.6625Q365.50626 46.709373 365.50626 44.646873Q365.50626 42.865623 364.80313 41.896873Q364.11563 40.928123 362.86563 40.928123Q361.61563 40.928123 360.92813 41.896873Q360.25626 42.865623 360.25626 44.88125ZM374.52188 38.4125L374.63126 39.88125Q375.99063 38.178123 378.27188 38.178123Q380.2875 38.178123 381.27188 39.365623Q382.25626 40.553123 382.27188 42.9125L382.27188 51.1L378.89688 51.1L378.89688 42.990623Q378.89688 41.9125 378.42813 41.428123Q377.95938 40.94375 376.86563 40.94375Q375.42813 40.94375 374.725 42.1625L374.725 51.1L371.33438 51.1L371.33438 38.4125L374.52188 38.4125ZM395.14688 46.959373L397.50626 38.4125L401.0375 38.4125L396.77188 51.1L393.5375 51.1L389.25626 38.4125L392.7875 38.4125L395.14688 46.959373ZM409.75626 51.1Q409.52188 50.646873 409.4125 49.959373Q408.17813 51.334373 406.20938 51.334373Q404.35 51.334373 403.11563 50.25625Q401.89688 49.178123 401.89688 47.5375Q401.89688 45.521873 403.38126 44.44375Q404.88126 43.365623 407.70938 43.35L409.27188 43.35L409.27188 42.63125Q409.27188 41.740623 408.81876 41.225Q408.36563 40.69375 407.39688 40.69375Q406.5375 40.69375 406.05313 41.1Q405.56876 41.50625 405.56876 42.225L402.17813 42.225Q402.17813 41.13125 402.85 40.19375Q403.5375 39.25625 404.77188 38.725Q406.02188 38.178123 407.56876 38.178123Q409.9125 38.178123 411.2875 39.365623Q412.6625 40.5375 412.6625 42.678123L412.6625 48.1625Q412.67813 49.975 413.17813 50.896873L413.17813 51.1L409.75626 51.1ZM406.94376 48.740623Q407.69376 48.740623 408.31876 48.4125Q408.95938 48.06875 409.27188 47.50625L409.27188 45.334373L408.00626 45.334373Q405.45938 45.334373 405.30313 47.084373L405.2875 47.2875Q405.2875 47.928123 405.725 48.334373Q406.17813 48.740623 406.94376 48.740623ZM422.52188 41.6Q421.83438 41.50625 421.30313 41.50625Q419.38126 41.50625 418.7875 42.803123L418.7875 51.1L415.39688 51.1L415.39688 38.4125L418.6 38.4125L418.69376 39.928123Q419.70938 38.178123 421.52188 38.178123Q422.08438 38.178123 422.56876 38.334373L422.52188 41.6ZM427.975 51.1L424.58438 51.1L424.58438 38.4125L427.975 38.4125L427.975 51.1ZM424.38126 35.13125Q424.38126 34.38125 424.88126 33.896873Q425.39688 33.396873 426.27188 33.396873Q427.14688 33.396873 427.6625 33.896873Q428.17813 34.38125 428.17813 35.13125Q428.17813 35.9125 427.64688 36.4125Q427.13126 36.896873 426.27188 36.896873Q425.42813 36.896873 424.89688 36.4125Q424.38126 35.9125 424.38126 35.13125ZM429.88126 44.646873Q429.88126 42.75625 430.6 41.2875Q431.33438 39.803123 432.69376 38.990623Q434.05313 38.178123 435.86563 38.178123Q438.42813 38.178123 440.05313 39.75625Q441.67813 41.31875 441.86563 44.021873L441.88126 44.88125Q441.88126 47.803123 440.25626 49.56875Q438.63126 51.334373 435.88126 51.334373Q433.14688 51.334373 431.50626 49.584373Q429.88126 47.81875 429.88126 44.7875L429.88126 44.646873ZM433.25626 44.88125Q433.25626 46.69375 433.92813 47.646873Q434.61563 48.6 435.88126 48.6Q437.11563 48.6 437.80313 47.6625Q438.50626 46.709373 438.50626 44.646873Q438.50626 42.865623 437.80313 41.896873Q437.11563 40.928123 435.86563 40.928123Q434.61563 40.928123 433.92813 41.896873Q433.25626 42.865623 433.25626 44.88125ZM451.99063 49.803123Q450.74063 51.334373 448.52188 51.334373Q446.49063 51.334373 445.4125 50.1625Q444.35 48.990623 444.31876 46.725L444.31876 38.4125L447.70938 38.4125L447.70938 46.615623Q447.70938 48.584373 449.50626 48.584373Q451.24063 48.584373 451.88126 47.396873L451.88126 38.4125L455.27188 38.4125L455.27188 51.1L452.08438 51.1L451.99063 49.803123ZM464.27188 47.6Q464.27188 46.975 463.64688 46.615623Q463.0375 46.25625 461.67813 45.975Q457.1625 45.021873 457.1625 42.13125Q457.1625 40.44375 458.55313 39.31875Q459.95938 38.178123 462.225 38.178123Q464.63126 38.178123 466.06876 39.31875Q467.52188 40.459373 467.52188 42.271873L464.14688 42.271873Q464.14688 41.553123 463.67813 41.084373Q463.20938 40.6 462.20938 40.6Q461.35 40.6 460.88126 40.990623Q460.4125 41.365623 460.4125 41.975Q460.4125 42.5375 460.94376 42.88125Q461.475 43.225 462.74063 43.475Q464.00626 43.725 464.88126 44.0375Q467.56876 45.021873 467.56876 47.459373Q467.56876 49.19375 466.06876 50.271873Q464.58438 51.334373 462.225 51.334373Q460.63126 51.334373 459.39688 50.771873Q458.1625 50.19375 457.45938 49.209373Q456.75626 48.209373 456.75626 47.06875L459.975 47.06875Q460.02188 47.975 460.63126 48.459373Q461.25626 48.928123 462.30313 48.928123Q463.27188 48.928123 463.77188 48.56875Q464.27188 48.19375 464.27188 47.6ZM474.88126 44.6625Q474.88126 41.69375 476.20938 39.94375Q477.5375 38.178123 479.85 38.178123Q481.69376 38.178123 482.89688 39.56875L482.89688 33.1L486.30313 33.1L486.30313 51.1L483.24063 51.1L483.08438 49.75625Q481.81876 51.334373 479.81876 51.334373Q477.58438 51.334373 476.225 49.56875Q474.88126 47.803123 474.88126 44.6625ZM478.25626 44.9125Q478.25626 46.69375 478.88126 47.646873Q479.50626 48.584373 480.69376 48.584373Q482.25626 48.584373 482.89688 47.271873L482.89688 42.25625Q482.27188 40.94375 480.70938 40.94375Q478.25626 40.94375 478.25626 44.9125ZM495.24063 51.334373Q492.44376 51.334373 490.69376 49.63125Q488.94376 47.9125 488.94376 45.06875L488.94376 44.740623Q488.94376 42.81875 489.67813 41.31875Q490.42813 39.81875 491.77188 39.00625Q493.13126 38.178123 494.86563 38.178123Q497.45938 38.178123 498.95938 39.81875Q500.45938 41.459373 500.45938 44.475L500.45938 45.865623L492.38126 45.865623Q492.5375 47.1 493.36563 47.85Q494.19376 48.6 495.45938 48.6Q497.4125 48.6 498.52188 47.178123L500.17813 49.053123Q499.42813 50.13125 498.11563 50.740623Q496.81876 51.334373 495.24063 51.334373ZM494.85 40.928123Q493.85 40.928123 493.20938 41.615623Q492.58438 42.2875 492.4125 43.553123L497.13126 43.553123L497.13126 43.2875Q497.1 42.1625 496.50626 41.553123Q495.92813 40.928123 494.85 40.928123ZM507.14688 46.959373L509.50626 38.4125L513.0375 38.4125L508.77188 51.1L505.5375 51.1L501.25626 38.4125L504.7875 38.4125L507.14688 46.959373ZM517.975 51.1L514.58435 51.1L514.58435 38.4125L517.975 38.4125L517.975 51.1ZM514.3812 35.13125Q514.3812 34.38125 514.8812 33.896873Q515.39685 33.396873 516.27185 33.396873Q517.14685 33.396873 517.6625 33.896873Q518.1781 34.38125 518.1781 35.13125Q518.1781 35.9125 517.64685 36.4125Q517.1312 36.896873 516.27185 36.896873Q515.4281 36.896873 514.89685 36.4125Q514.3812 35.9125 514.3812 35.13125ZM525.6781 48.6Q526.6156 48.6 527.1937 48.084373Q527.7875 47.56875 527.8031 46.709373L530.9906 46.709373Q530.975 48.00625 530.27185 49.084373Q529.58435 50.146873 528.3812 50.740623Q527.1937 51.334373 525.7406 51.334373Q523.02185 51.334373 521.4437 49.615623Q519.8812 47.88125 519.8812 44.834373L519.8812 44.6Q519.8812 41.678123 521.4281 39.928123Q522.9906 38.178123 525.70935 38.178123Q528.08435 38.178123 529.52185 39.5375Q530.95935 40.896873 530.9906 43.146873L527.8031 43.146873Q527.7875 42.1625 527.1937 41.553123Q526.6156 40.928123 525.64685 40.928123Q524.475 40.928123 523.8656 41.7875Q523.2562 42.646873 523.2562 44.584373L523.2562 44.928123Q523.2562 46.896873 523.85 47.75625Q524.45935 48.6 525.6781 48.6ZM539.2406 51.334373Q536.4437 51.334373 534.6937 49.63125Q532.9437 47.9125 532.9437 45.06875L532.9437 44.740623Q532.9437 42.81875 533.6781 41.31875Q534.4281 39.81875 535.77185 39.00625Q537.1312 38.178123 538.8656 38.178123Q541.45935 38.178123 542.95935 39.81875Q544.45935 41.459373 544.45935 44.475L544.45935 45.865623L536.3812 45.865623Q536.5375 47.1 537.3656 47.85Q538.1937 48.6 539.45935 48.6Q541.4125 48.6 542.52185 47.178123L544.1781 49.053123Q543.4281 50.13125 542.1156 50.740623Q540.8187 51.334373 539.2406 51.334373ZM538.85 40.928123Q537.85 40.928123 537.20935 41.615623Q536.58435 42.2875 536.4125 43.553123L541.1312 43.553123L541.1312 43.2875Q541.1 42.1625 540.5062 41.553123Q539.9281 40.928123 538.85 40.928123ZM553.27185 47.6Q553.27185 46.975 552.64685 46.615623Q552.0375 46.25625 550.6781 45.975Q546.1625 45.021873 546.1625 42.13125Q546.1625 40.44375 547.5531 39.31875Q548.95935 38.178123 551.225 38.178123Q553.6312 38.178123 555.0687 39.31875Q556.52185 40.459373 556.52185 42.271873L553.14685 42.271873Q553.14685 41.553123 552.6781 41.084373Q552.20935 40.6 551.20935 40.6Q550.35 40.6 549.8812 40.990623Q549.4125 41.365623 549.4125 41.975Q549.4125 42.5375 549.9437 42.88125Q550.475 43.225 551.7406 43.475Q553.0062 43.725 553.8812 44.0375Q556.5687 45.021873 556.5687 47.459373Q556.5687 49.19375 555.0687 50.271873Q553.58435 51.334373 551.225 51.334373Q549.6312 51.334373 548.39685 50.771873Q547.1625 50.19375 546.45935 49.209373Q545.7562 48.209373 545.7562 47.06875L548.975 47.06875Q549.02185 47.975 549.6312 48.459373Q550.2562 48.928123 551.3031 48.928123Q552.27185 48.928123 552.77185 48.56875Q553.27185 48.19375 553.27185 47.6Z" fill-rule="nonzero"/></svg>