<svg version="1.1" viewBox="0.0 0.0 906.0 561.0" fill="none" stroke="none" stroke-linecap="square" stroke-miterlimit="10" width="906" height="561" xmlns:xlink="http://www.w3.org/1999/xlink" xmlns="http://www.w3.org/2000/svg"><path fill="#ffffff" d="M0 0L906.0 0L906.0 561.0L0 561.0L0 0Z" fill-rule="nonzero"/><path stroke="#333333" stroke-width="1.0" stroke-linecap="butt" d="M79.5 109.5L79.5 478.5" fill-rule="nonzero"/><path stroke="#cccccc" stroke-width="1.0" stroke-linecap="butt" d="M278.5 109.5L278.5 478.5" fill-rule="nonzero"/><path stroke="#cccccc" stroke-width="1.0" stroke-linecap="butt" d="M478.5 109.5L478.5 478.5" fill-rule="nonzero"/><path stroke="#cccccc" stroke-width="1.0" stroke-linecap="butt" d="M678.5 109.5L678.5 478.5" fill-rule="nonzero"/><path stroke="#cccccc" stroke-width="1.0" stroke-linecap="butt" d="M877.5 109.5L877.5 478.5" fill-rule="nonzero"/><path stroke="#e6e6e6" stroke-width="1.0" stroke-linecap="butt" d="M118.5 109.5L118.5 478.5" fill-rule="nonzero"/><path stroke="#e6e6e6" stroke-width="1.0" stroke-linecap="butt" d="M158.5 109.5L158.5 478.5" fill-rule="nonzero"/><path stroke="#e6e6e6" stroke-width="1.0" stroke-linecap="butt" d="M198.5 109.5L198.5 478.5" fill-rule="nonzero"/><path stroke="#e6e6e6" stroke-width="1.0" stroke-linecap="butt" d="M238.5 109.5L238.5 478.5" fill-rule="nonzero"/><path stroke="#e6e6e6" stroke-width="1.0" stroke-linecap="butt" d="M318.5 109.5L318.5 478.5" fill-rule="nonzero"/><path stroke="#e6e6e6" stroke-width="1.0" stroke-linecap="butt" d="M358.5 109.5L358.5 478.5" fill-rule="nonzero"/><path stroke="#e6e6e6" stroke-width="1.0" stroke-linecap="butt" d="M398.5 109.5L398.5 478.5" fill-rule="nonzero"/><path stroke="#e6e6e6" stroke-width="1.0" stroke-linecap="butt" d="M438.5 109.5L438.5 478.5" fill-rule="nonzero"/><path stroke="#e6e6e6" stroke-width="1.0" stroke-linecap="butt" d="M518.5 109.5L518.5 478.5" fill-rule="nonzero"/><path stroke="#e6e6e6" stroke-width="1.0" stroke-linecap="butt" d="M558.5 109.5L558.5 478.5" fill-rule="nonzero"/><path stroke="#e6e6e6" stroke-width="1.0" stroke-linecap="butt" d="M598.5 109.5L598.5 478.5" fill-rule="nonzero"/><path stroke="#e6e6e6" stroke-width="1.0" stroke-linecap="butt" d="M638.5 109.5L638.5 478.5" fill-rule="nonzero"/><path stroke="#e6e6e6" stroke-width="1.0" stroke-linecap="butt" d="M718.5 109.5L718.5 478.5" fill-rule="nonzero"/><path stroke="#e6e6e6" stroke-width="1.0" stroke-linecap="butt" d="M758.5 109.5L758.5 478.5" fill-rule="nonzero"/><path stroke="#e6e6e6" stroke-width="1.0" stroke-linecap="butt" d="M798.5 109.5L798.5 478.5" fill-rule="nonzero"/><path stroke="#e6e6e6" stroke-width="1.0" stroke-linecap="butt" d="M838.5 109.5L838.5 478.5" fill-rule="nonzero"/><path stroke="#000000" stroke-width="1.0" stroke-linecap="butt" d="M877.5 478.5L79.5 478.5" fill-rule="nonzero"/><clipPath id="id_0"><path d="M79.05 109.45L877.95 109.45L877.95 478.95L79.05 478.95L79.05 109.45Z" clip-rule="nonzero"/></clipPath><path stroke="#000000" stroke-width="2.0" stroke-linecap="butt" stroke-opacity="0.0" clip-path="url(#id_0)" d="M79.0 183.0L79.0 149.0L676.0 149.0C677.10455 149.0 678.0 149.89543 678.0 151.0L678.0 181.0C678.0 182.10457 677.10455 183.0 676.0 183.0Z" fill-rule="nonzero"/><path fill="#8f86fb" clip-path="url(#id_0)" d="M79.0 183.0L79.0 149.0L676.0 149.0C677.10455 149.0 678.0 149.89543 678.0 151.0L678.0 181.0C678.0 182.10457 677.10455 183.0 676.0 183.0Z" fill-rule="nonzero"/><path stroke="#000000" stroke-width="2.0" stroke-linecap="butt" stroke-opacity="0.0" clip-path="url(#id_0)" d="M79.0 293.0L79.0 259.0L461.0 259.0C462.10458 259.0 463.0 259.89542 463.0 261.0L463.0 291.0C463.0 292.10458 462.10458 293.0 461.0 293.0Z" fill-rule="nonzero"/><path fill="#8f86fb" clip-path="url(#id_0)" d="M79.0 293.0L79.0 259.0L461.0 259.0C462.10458 259.0 463.0 259.89542 463.0 261.0L463.0 291.0C463.0 292.10458 462.10458 293.0 461.0 293.0Z" fill-rule="nonzero"/><path stroke="#000000" stroke-width="2.0" stroke-linecap="butt" stroke-opacity="0.0" clip-path="url(#id_0)" d="M79.0 403.0L79.0 369.0L724.0 369.0C725.10455 369.0 726.0 369.89542 726.0 371.0L726.0 401.0C726.0 402.10458 725.10455 403.0 724.0 403.0Z" fill-rule="nonzero"/><path fill="#8f86fb" clip-path="url(#id_0)" d="M79.0 403.0L79.0 369.0L724.0 369.0C725.10455 369.0 726.0 369.89542 726.0 371.0L726.0 401.0C726.0 402.10458 725.10455 403.0 724.0 403.0Z" fill-rule="nonzero"/><path stroke="#000000" stroke-width="2.0" stroke-linecap="butt" stroke-opacity="0.0" clip-path="url(#id_0)" d="M79.0 219.0L79.0 185.0L724.0 185.0C725.10455 185.0 726.0 185.89543 726.0 187.0L726.0 217.0C726.0 218.10457 725.10455 219.0 724.0 219.0Z" fill-rule="nonzero"/><path fill="#5445ff" clip-path="url(#id_0)" d="M79.0 219.0L79.0 185.0L724.0 185.0C725.10455 185.0 726.0 185.89543 726.0 187.0L726.0 217.0C726.0 218.10457 725.10455 219.0 724.0 219.0Z" fill-rule="nonzero"/><path stroke="#000000" stroke-width="2.0" stroke-linecap="butt" stroke-opacity="0.0" clip-path="url(#id_0)" d="M79.0 329.0L79.0 295.0L532.0 295.0C533.10455 295.0 534.0 295.89542 534.0 297.0L534.0 327.0C534.0 328.10458 533.10455 329.0 532.0 329.0Z" fill-rule="nonzero"/><path fill="#5445ff" clip-path="url(#id_0)" d="M79.0 329.0L79.0 295.0L532.0 295.0C533.10455 295.0 534.0 295.89542 534.0 297.0L534.0 327.0C534.0 328.10458 533.10455 329.0 532.0 329.0Z" fill-rule="nonzero"/><path stroke="#000000" stroke-width="2.0" stroke-linecap="butt" stroke-opacity="0.0" clip-path="url(#id_0)" d="M79.0 439.0L79.0 405.0L780.0 405.0C781.10455 405.0 782.0 405.89542 782.0 407.0L782.0 437.0C782.0 438.10458 781.10455 439.0 780.0 439.0Z" fill-rule="nonzero"/><path fill="#5445ff" clip-path="url(#id_0)" d="M79.0 439.0L79.0 405.0L780.0 405.0C781.10455 405.0 782.0 405.89542 782.0 407.0L782.0 437.0C782.0 438.10458 781.10455 439.0 780.0 439.0Z" fill-rule="nonzero"/><path fill="#000000" d="M448.3125 528.45L450.75 521.41876L451.98438 521.41876L448.8125 529.95L447.82812 529.95L444.67188 521.41876L445.89062 521.41876L448.3125 528.45ZM454.9375 521.41876L457.73438 528.3719L460.51562 521.41876L461.98438 521.41876L461.98438 529.95L460.85938 529.95L460.85938 526.6219L460.96875 523.04376L458.15625 529.95L457.29688 529.95L454.5 523.0594L454.60938 526.6219L454.60938 529.95L453.48438 529.95L453.48438 521.41876L454.9375 521.41876ZM468.20312 527.71564L464.625 527.71564L463.82812 529.95L462.67188 529.95L465.92188 521.41876L466.90625 521.41876L470.17188 529.95L469.01562 529.95L468.20312 527.71564ZM464.96875 526.79376L467.875 526.79376L466.42188 522.8094L464.96875 526.79376ZM476.20312 526.1844L472.60938 526.1844L472.60938 529.95L471.48438 529.95L471.48438 521.41876L476.78125 521.41876L476.78125 522.34064L472.60938 522.34064L472.60938 525.2625L476.20312 525.2625L476.20312 526.1844ZM484.0 526.15314Q482.5625 525.73126 481.89062 525.1219Q481.23438 524.5125 481.23438 523.6219Q481.23438 522.6219 482.03125 521.96564Q482.84375 521.29376 484.14062 521.29376Q485.01562 521.29376 485.70312 521.6375Q486.39062 521.98126 486.76562 522.575Q487.15625 523.16876 487.15625 523.8875L486.01562 523.8875Q486.01562 523.10626 485.51562 522.66876Q485.03125 522.23126 484.14062 522.23126Q483.3125 522.23126 482.84375 522.60626Q482.375 522.96564 482.375 523.60626Q482.375 524.1375 482.8125 524.4969Q483.26562 524.85626 484.32812 525.15314Q485.39062 525.45 485.98438 525.8094Q486.59375 526.16876 486.875 526.65314Q487.17188 527.1375 487.17188 527.77814Q487.17188 528.825 486.35938 529.45Q485.54688 530.075 484.20312 530.075Q483.3125 530.075 482.54688 529.73126Q481.79688 529.3875 481.375 528.8094Q480.96875 528.21564 480.96875 527.48126L482.09375 527.48126Q482.09375 528.2469 482.67188 528.7Q483.25 529.15314 484.20312 529.15314Q485.09375 529.15314 485.5625 528.79376Q486.03125 528.41876 486.03125 527.79376Q486.03125 527.16876 485.59375 526.825Q485.15625 526.48126 484.0 526.15314ZM494.76562 527.2469Q494.60938 528.59064 493.76562 529.34064Q492.92188 530.075 491.53125 530.075Q490.01562 530.075 489.10938 528.9969Q488.20312 527.90314 488.20312 526.075L488.20312 525.2625Q488.20312 524.075 488.625 523.16876Q489.04688 522.2625 489.82812 521.77814Q490.60938 521.29376 491.625 521.29376Q492.98438 521.29376 493.79688 522.0594Q494.625 522.825 494.76562 524.15314L493.64062 524.15314Q493.48438 523.1375 493.0 522.6844Q492.51562 522.23126 491.625 522.23126Q490.54688 522.23126 489.9375 523.02814Q489.32812 523.825 489.32812 525.29376L489.32812 526.1219Q489.32812 527.5125 489.90625 528.34064Q490.48438 529.15314 491.53125 529.15314Q492.46875 529.15314 492.96875 528.73126Q493.46875 528.29376 493.64062 527.2469L494.76562 527.2469ZM496.03125 526.71564Q496.03125 525.79376 496.39062 525.04376Q496.76562 524.29376 497.42188 523.90314Q498.07812 523.4969 498.90625 523.4969Q500.20312 523.4969 501.0 524.3875Q501.8125 525.27814 501.8125 526.77814L501.8125 526.85626Q501.8125 527.77814 501.45312 528.5125Q501.09375 529.2469 500.4375 529.66876Q499.78125 530.075 498.92188 530.075Q497.64062 530.075 496.82812 529.1844Q496.03125 528.27814 496.03125 526.79376L496.03125 526.71564ZM497.125 526.85626Q497.125 527.90314 497.60938 528.54376Q498.10938 529.1844 498.92188 529.1844Q499.75 529.1844 500.23438 528.54376Q500.71875 527.8875 500.71875 526.71564Q500.71875 525.6844 500.21875 525.04376Q499.73438 524.3875 498.90625 524.3875Q498.10938 524.3875 497.60938 525.02814Q497.125 525.65314 497.125 526.85626ZM506.39062 524.575Q506.14062 524.54376 505.85938 524.54376Q504.78125 524.54376 504.40625 525.45L504.40625 529.95L503.32812 529.95L503.32812 523.60626L504.375 523.60626L504.39062 524.34064Q504.92188 523.4969 505.90625 523.4969Q506.21875 523.4969 506.39062 523.575L506.39062 524.575ZM509.95312 530.075Q508.65625 530.075 507.84375 529.23126Q507.04688 528.3719 507.04688 526.95L507.04688 526.7625Q507.04688 525.8094 507.40625 525.075Q507.76562 524.325 508.40625 523.91876Q509.0625 523.4969 509.8125 523.4969Q511.04688 523.4969 511.73438 524.3094Q512.4219 525.1219 512.4219 526.6375L512.4219 527.09064L508.125 527.09064Q508.15625 528.02814 508.67188 528.60626Q509.20312 529.1844 510.01562 529.1844Q510.57812 529.1844 510.96875 528.95Q511.375 528.71564 511.6875 528.325L512.34375 528.84064Q511.54688 530.075 509.95312 530.075ZM509.8125 524.3875Q509.15625 524.3875 508.70312 524.8719Q508.26562 525.34064 508.17188 526.2L511.34375 526.2L511.34375 526.1219Q511.29688 525.29376 510.89062 524.84064Q510.5 524.3875 509.8125 524.3875Z" fill-rule="nonzero"/><path fill="#000000" d="M32.6125 179.87024L33.753124 179.87024L33.753124 185.91711Q33.753124 187.13586 33.003124 187.83899Q32.26875 188.52649 31.05 188.52649Q29.784374 188.52649 29.065624 187.87024Q28.3625 187.21399 28.3625 186.04211L29.4875 186.04211Q29.4875 186.77649 29.878124 187.19836Q30.284374 187.60461 31.05 187.60461Q31.753124 187.60461 32.175 187.16711Q32.6125 186.71399 32.6125 185.93274L32.6125 179.87024ZM38.503124 188.52649Q37.20625 188.52649 36.39375 187.68274Q35.596874 186.82336 35.596874 185.40149L35.596874 185.21399Q35.596874 184.26086 35.95625 183.52649Q36.315624 182.77649 36.95625 182.37024Q37.6125 181.94836 38.3625 181.94836Q39.596874 181.94836 40.284374 182.76086Q40.971874 183.57336 40.971874 185.08899L40.971874 185.54211L36.675 185.54211Q36.70625 186.47961 37.221874 187.05774Q37.753124 187.63586 38.565624 187.63586Q39.128124 187.63586 39.51875 187.40149Q39.925 187.16711 40.2375 186.77649L40.89375 187.29211Q40.096874 188.52649 38.503124 188.52649ZM38.3625 182.83899Q37.70625 182.83899 37.253124 183.32336Q36.815624 183.79211 36.721874 184.65149L39.89375 184.65149L39.89375 184.57336Q39.846874 183.74524 39.440624 183.29211Q39.05 182.83899 38.3625 182.83899ZM43.05 188.40149L41.971874 188.40149L41.971874 179.40149L43.05 179.40149L43.05 188.40149ZM46.05 188.40149L44.971874 188.40149L44.971874 179.40149L46.05 179.40149L46.05 188.40149ZM49.940624 186.80774L51.425 182.05774L52.58125 182.05774L50.034374 189.38586Q49.440624 190.96399 48.159374 190.96399L47.940624 190.94836L47.55 190.87024L47.55 189.99524L47.83125 190.01086Q48.39375 190.01086 48.690624 189.79211Q49.003124 189.57336 49.20625 188.97961L49.440624 188.32336L47.175 182.05774L48.3625 182.05774L49.940624 186.80774ZM54.409374 188.40149L54.409374 182.90149L53.409374 182.90149L53.409374 182.05774L54.409374 182.05774L54.409374 181.41711Q54.409374 180.38586 54.940624 179.83899Q55.4875 179.27649 56.4875 179.27649Q56.8625 179.27649 57.2375 179.37024L57.175 180.26086Q56.89375 180.19836 56.596874 180.19836Q56.065624 180.19836 55.76875 180.51086Q55.4875 180.82336 55.4875 181.38586L55.4875 182.05774L56.846874 182.05774L56.846874 182.90149L55.4875 182.90149L55.4875 188.40149L54.409374 188.40149ZM59.05 188.40149L57.971874 188.40149L57.971874 182.05774L59.05 182.05774L59.05 188.40149ZM57.878124 180.38586Q57.878124 180.12024 58.034374 179.93274Q58.20625 179.74524 58.51875 179.74524Q58.83125 179.74524 58.9875 179.93274Q59.159374 180.12024 59.159374 180.38586Q59.159374 180.63586 58.9875 180.82336Q58.83125 180.99524 58.51875 180.99524Q58.20625 180.99524 58.034374 180.82336Q57.878124 180.63586 57.878124 180.38586ZM64.56563 186.71399Q64.56563 186.27649 64.22188 186.04211Q63.89375 185.79211 63.065624 185.62024Q62.253124 185.44836 61.76875 185.19836Q61.284374 184.94836 61.05 184.62024Q60.83125 184.27649 60.83125 183.80774Q60.83125 183.02649 61.4875 182.49524Q62.14375 181.94836 63.175 181.94836Q64.25313 181.94836 64.90938 182.51086Q65.58125 183.05774 65.58125 183.91711L64.50313 183.91711Q64.50313 183.47961 64.1125 183.16711Q63.7375 182.83899 63.175 182.83899Q62.58125 182.83899 62.2375 183.10461Q61.909374 183.35461 61.909374 183.76086Q61.909374 184.15149 62.221874 184.35461Q62.534374 184.55774 63.346874 184.74524Q64.15938 184.91711 64.65938 185.16711Q65.15938 185.41711 65.39375 185.77649Q65.64375 186.13586 65.64375 186.63586Q65.64375 187.49524 64.95625 188.01086Q64.28438 188.52649 63.20625 188.52649Q62.440624 188.52649 61.846874 188.26086Q61.26875 187.97961 60.940624 187.49524Q60.6125 187.01086 60.6125 186.44836L61.690624 186.44836Q61.721874 186.99524 62.128124 187.32336Q62.534374 187.63586 63.20625 187.63586Q63.815624 187.63586 64.19063 187.38586Q64.56563 187.13586 64.56563 186.71399ZM67.95625 182.82336Q68.675 181.94836 69.83125 181.94836Q71.84688 181.94836 71.8625 184.21399L71.8625 188.40149L70.76875 188.40149L70.76875 184.19836Q70.76875 183.52649 70.45625 183.19836Q70.15938 182.87024 69.50313 182.87024Q68.97188 182.87024 68.56563 183.15149Q68.175 183.43274 67.95625 183.88586L67.95625 188.40149L66.87813 188.40149L66.87813 179.40149L67.95625 179.40149L67.95625 182.82336Z" fill-rule="nonzero"/><path fill="#000000" d="M41.034374 298.7L41.034374 290.16876L43.45625 290.16876Q44.565624 290.16876 45.409374 290.66876Q46.26875 291.15314 46.7375 292.0594Q47.20625 292.96564 47.20625 294.15314L47.20625 294.6844Q47.20625 295.90314 46.7375 296.8094Q46.284374 297.71564 45.409374 298.2Q44.55 298.6844 43.409374 298.7L41.034374 298.7ZM42.159374 291.09064L42.159374 297.77814L43.346874 297.77814Q44.64375 297.77814 45.3625 296.98126Q46.096874 296.16876 46.096874 294.66876L46.096874 294.16876Q46.096874 292.71564 45.409374 291.91876Q44.7375 291.10626 43.471874 291.09064L42.159374 291.09064ZM52.784374 298.075Q52.159374 298.825 50.925 298.825Q49.909374 298.825 49.378124 298.23126Q48.846874 297.6375 48.846874 296.48126L48.846874 292.35626L49.925 292.35626L49.925 296.45Q49.925 297.90314 51.096874 297.90314Q52.346874 297.90314 52.753124 296.96564L52.753124 292.35626L53.846874 292.35626L53.846874 298.7L52.815624 298.7L52.784374 298.075ZM58.409374 297.9344Q58.9875 297.9344 59.425 297.59064Q59.8625 297.23126 59.909374 296.7L60.940624 296.7Q60.909374 297.2469 60.55 297.7469Q60.20625 298.23126 59.628124 298.52814Q59.065624 298.825 58.409374 298.825Q57.1125 298.825 56.346874 297.96564Q55.596874 297.09064 55.596874 295.59064L55.596874 295.40314Q55.596874 294.48126 55.925 293.7625Q56.26875 293.04376 56.89375 292.65314Q57.534374 292.2469 58.409374 292.2469Q59.471874 292.2469 60.175 292.8875Q60.89375 293.5125 60.940624 294.54376L59.909374 294.54376Q59.8625 293.91876 59.440624 293.52814Q59.01875 293.1375 58.409374 293.1375Q57.58125 293.1375 57.128124 293.73126Q56.675 294.325 56.675 295.45L56.675 295.65314Q56.675 296.7469 57.128124 297.34064Q57.58125 297.9344 58.409374 297.9344ZM63.64375 295.7625L62.95625 296.46564L62.95625 298.7L61.878124 298.7L61.878124 289.7L62.95625 289.7L62.95625 295.1375L63.534374 294.45L65.51875 292.35626L66.83125 292.35626L64.3625 295.0125L67.12813 298.7L65.84688 298.7L63.64375 295.7625ZM71.56563 297.0125Q71.56563 296.575 71.22188 296.34064Q70.89375 296.09064 70.06563 295.91876Q69.25313 295.7469 68.76875 295.4969Q68.28438 295.2469 68.05 294.91876Q67.83125 294.575 67.83125 294.10626Q67.83125 293.325 68.4875 292.79376Q69.14375 292.2469 70.175 292.2469Q71.25313 292.2469 71.90938 292.8094Q72.58125 293.35626 72.58125 294.21564L71.50313 294.21564Q71.50313 293.77814 71.1125 293.46564Q70.7375 293.1375 70.175 293.1375Q69.58125 293.1375 69.2375 293.40314Q68.90938 293.65314 68.90938 294.0594Q68.90938 294.45 69.22188 294.65314Q69.53438 294.85626 70.34688 295.04376Q71.15938 295.21564 71.65938 295.46564Q72.15938 295.71564 72.39375 296.075Q72.64375 296.4344 72.64375 296.9344Q72.64375 297.79376 71.95625 298.3094Q71.28438 298.825 70.20625 298.825Q69.44063 298.825 68.84688 298.5594Q68.26875 298.27814 67.94063 297.79376Q67.6125 297.3094 67.6125 296.7469L68.69063 296.7469Q68.72188 297.29376 69.12813 297.6219Q69.53438 297.9344 70.20625 297.9344Q70.81563 297.9344 71.19063 297.6844Q71.56563 297.4344 71.56563 297.0125Z" fill-rule="nonzero"/><path fill="#000000" d="M40.940624 401.38913L38.190624 401.38913L38.190624 408.9985L37.08125 408.9985L37.08125 401.38913L34.33125 401.38913L34.33125 400.46725L40.940624 400.46725L40.940624 401.38913ZM44.940624 403.6235Q44.690624 403.59225 44.409374 403.59225Q43.33125 403.59225 42.95625 404.4985L42.95625 408.9985L41.878124 408.9985L41.878124 402.65475L42.925 402.65475L42.940624 403.38913Q43.471874 402.54538 44.45625 402.54538Q44.76875 402.54538 44.940624 402.6235L44.940624 403.6235ZM49.784374 408.9985Q49.690624 408.811 49.628124 408.32663Q48.878124 409.1235 47.83125 409.1235Q46.89375 409.1235 46.284374 408.59225Q45.690624 408.061 45.690624 407.23288Q45.690624 406.2485 46.440624 405.70163Q47.190624 405.15475 48.565624 405.15475L49.6125 405.15475L49.6125 404.65475Q49.6125 404.09225 49.26875 403.76413Q48.940624 403.42038 48.26875 403.42038Q47.690624 403.42038 47.3 403.71725Q46.909374 403.9985 46.909374 404.42038L45.815624 404.42038Q45.815624 403.936 46.14375 403.4985Q46.4875 403.061 47.065624 402.811Q47.64375 402.54538 48.33125 402.54538Q49.440624 402.54538 50.05 403.09225Q50.675 403.63913 50.70625 404.59225L50.70625 407.51413Q50.70625 408.38913 50.925 408.90475L50.925 408.9985L49.784374 408.9985ZM47.9875 408.17038Q48.503124 408.17038 48.95625 407.90475Q49.409374 407.63913 49.6125 407.21725L49.6125 405.92038L48.76875 405.92038Q46.76875 405.92038 46.76875 407.09225Q46.76875 407.59225 47.1125 407.88913Q47.45625 408.17038 47.9875 408.17038ZM55.409374 408.23288Q55.9875 408.23288 56.425 407.88913Q56.8625 407.52975 56.909374 406.9985L57.940624 406.9985Q57.909374 407.54538 57.55 408.04538Q57.20625 408.52975 56.628124 408.82663Q56.065624 409.1235 55.409374 409.1235Q54.1125 409.1235 53.346874 408.26413Q52.596874 407.38913 52.596874 405.88913L52.596874 405.70163Q52.596874 404.77975 52.925 404.061Q53.26875 403.34225 53.89375 402.95163Q54.534374 402.54538 55.409374 402.54538Q56.471874 402.54538 57.175 403.186Q57.89375 403.811 57.940624 404.84225L56.909374 404.84225Q56.8625 404.21725 56.440624 403.82663Q56.01875 403.436 55.409374 403.436Q54.58125 403.436 54.128124 404.02975Q53.675 404.6235 53.675 405.7485L53.675 405.95163Q53.675 407.04538 54.128124 407.63913Q54.58125 408.23288 55.409374 408.23288ZM60.346874 401.1235L60.346874 402.65475L61.51875 402.65475L61.51875 403.4985L60.346874 403.4985L60.346874 407.42038Q60.346874 407.811 60.503124 407.9985Q60.659374 408.186 61.034374 408.186Q61.221874 408.186 61.55 408.1235L61.55 408.9985Q61.128124 409.1235 60.721874 409.1235Q60.003124 409.1235 59.628124 408.686Q59.253124 408.23288 59.253124 407.42038L59.253124 403.4985L58.096874 403.4985L58.096874 402.65475L59.253124 402.65475L59.253124 401.1235L60.346874 401.1235ZM62.58125 405.76413Q62.58125 404.84225 62.940624 404.09225Q63.315624 403.34225 63.971874 402.95163Q64.62813 402.54538 65.45625 402.54538Q66.75313 402.54538 67.55 403.436Q68.3625 404.32663 68.3625 405.82663L68.3625 405.90475Q68.3625 406.82663 68.00313 407.561Q67.64375 408.29538 66.9875 408.71725Q66.33125 409.1235 65.47188 409.1235Q64.19063 409.1235 63.378124 408.23288Q62.58125 407.32663 62.58125 405.84225L62.58125 405.76413ZM63.675 405.90475Q63.675 406.95163 64.15938 407.59225Q64.65938 408.23288 65.47188 408.23288Q66.3 408.23288 66.78438 407.59225Q67.26875 406.936 67.26875 405.76413Q67.26875 404.73288 66.76875 404.09225Q66.28438 403.436 65.45625 403.436Q64.65938 403.436 64.15938 404.07663Q63.675 404.70163 63.675 405.90475ZM72.94063 403.6235Q72.69063 403.59225 72.40938 403.59225Q71.33125 403.59225 70.95625 404.4985L70.95625 408.9985L69.87813 408.9985L69.87813 402.65475L70.925 402.65475L70.94063 403.38913Q71.47188 402.54538 72.45625 402.54538Q72.76875 402.54538 72.94063 402.6235L72.94063 403.6235Z" fill-rule="nonzero"/><path fill="#000000" d="M81.6125 493.3094Q81.6125 495.21564 80.95625 496.15314Q80.31563 497.075 78.925 497.075Q77.56563 497.075 76.90938 496.16876Q76.25313 495.2625 76.22188 493.45L76.22188 492.0125Q76.22188 490.1219 76.8625 489.21564Q77.51875 488.29376 78.90938 488.29376Q80.28438 488.29376 80.94063 489.1844Q81.59688 490.0594 81.6125 491.90314L81.6125 493.3094ZM80.51875 491.825Q80.51875 490.45 80.12813 489.825Q79.75313 489.1844 78.90938 489.1844Q78.08125 489.1844 77.69063 489.825Q77.31563 490.45 77.31563 491.7469L77.31563 493.48126Q77.31563 494.85626 77.70625 495.52814Q78.1125 496.1844 78.925 496.1844Q79.72188 496.1844 80.1125 495.5594Q80.50313 494.9344 80.51875 493.60626L80.51875 491.825Z" fill-rule="nonzero"/><path fill="#000000" d="M278.07187 496.95L272.47812 496.95L272.47812 496.16876L275.43124 492.8875Q276.0875 492.1375 276.3375 491.6844Q276.5875 491.21564 276.5875 490.71564Q276.5875 490.04376 276.18124 489.6219Q275.79062 489.1844 275.10312 489.1844Q274.30624 489.1844 273.85312 489.65314Q273.4 490.10626 273.4 490.9344L272.32187 490.9344Q272.32187 489.7469 273.07187 489.02814Q273.8375 488.29376 275.10312 488.29376Q276.30624 488.29376 276.99374 488.91876Q277.68124 489.54376 277.68124 490.59064Q277.68124 491.84064 276.07187 493.59064L273.79062 496.0594L278.07187 496.0594L278.07187 496.95ZM279.97812 492.66876L280.41562 488.41876L284.79062 488.41876L284.79062 489.41876L281.3375 489.41876L281.07187 491.7469Q281.7125 491.3719 282.50937 491.3719Q283.66562 491.3719 284.35312 492.15314Q285.04062 492.91876 285.04062 494.23126Q285.04062 495.54376 284.32187 496.3094Q283.61874 497.075 282.3375 497.075Q281.2125 497.075 280.49374 496.45Q279.775 495.8094 279.68124 494.7L280.69687 494.7Q280.80624 495.4344 281.22812 495.8094Q281.65 496.1844 282.3375 496.1844Q283.0875 496.1844 283.525 495.66876Q283.9625 495.15314 283.9625 494.2469Q283.9625 493.3875 283.49374 492.8719Q283.025 492.35626 282.24374 492.35626Q281.54062 492.35626 281.13437 492.65314L280.85312 492.8875L279.97812 492.66876Z" fill-rule="nonzero"/><path fill="#000000" d="M472.70312 492.66876L473.14062 488.41876L477.51562 488.41876L477.51562 489.41876L474.0625 489.41876L473.79688 491.7469Q474.4375 491.3719 475.23438 491.3719Q476.39062 491.3719 477.07812 492.15314Q477.76562 492.91876 477.76562 494.23126Q477.76562 495.54376 477.04688 496.3094Q476.34375 497.075 475.0625 497.075Q473.9375 497.075 473.21875 496.45Q472.5 495.8094 472.40625 494.7L473.42188 494.7Q473.53125 495.4344 473.95312 495.8094Q474.375 496.1844 475.0625 496.1844Q475.8125 496.1844 476.25 495.66876Q476.6875 495.15314 476.6875 494.2469Q476.6875 493.3875 476.21875 492.8719Q475.75 492.35626 474.96875 492.35626Q474.26562 492.35626 473.85938 492.65314L473.57812 492.8875L472.70312 492.66876ZM484.5625 493.3094Q484.5625 495.21564 483.90625 496.15314Q483.26562 497.075 481.875 497.075Q480.51562 497.075 479.85938 496.16876Q479.20312 495.2625 479.17188 493.45L479.17188 492.0125Q479.17188 490.1219 479.8125 489.21564Q480.46875 488.29376 481.85938 488.29376Q483.23438 488.29376 483.89062 489.1844Q484.54688 490.0594 484.5625 491.90314L484.5625 493.3094ZM483.46875 491.825Q483.46875 490.45 483.07812 489.825Q482.70312 489.1844 481.85938 489.1844Q481.03125 489.1844 480.64062 489.825Q480.26562 490.45 480.26562 491.7469L480.26562 493.48126Q480.26562 494.85626 480.65625 495.52814Q481.0625 496.1844 481.875 496.1844Q482.67188 496.1844 483.0625 495.5594Q483.45312 494.9344 483.46875 493.60626L483.46875 491.825Z" fill-rule="nonzero"/><path fill="#000000" d="M677.4437 489.02814L673.9125 496.95L672.77185 496.95L676.2875 489.3094L671.6781 489.3094L671.6781 488.41876L677.4437 488.41876L677.4437 489.02814ZM679.4281 492.66876L679.8656 488.41876L684.2406 488.41876L684.2406 489.41876L680.7875 489.41876L680.52185 491.7469Q681.1625 491.3719 681.95935 491.3719Q683.1156 491.3719 683.8031 492.15314Q684.4906 492.91876 684.4906 494.23126Q684.4906 495.54376 683.77185 496.3094Q683.0687 497.075 681.7875 497.075Q680.6625 497.075 679.9437 496.45Q679.225 495.8094 679.1312 494.7L680.14685 494.7Q680.2562 495.4344 680.6781 495.8094Q681.1 496.1844 681.7875 496.1844Q682.5375 496.1844 682.975 495.66876Q683.4125 495.15314 683.4125 494.2469Q683.4125 493.3875 682.9437 492.8719Q682.475 492.35626 681.6937 492.35626Q680.9906 492.35626 680.58435 492.65314L680.3031 492.8875L679.4281 492.66876Z" fill-rule="nonzero"/><path fill="#000000" d="M871.71564 496.95L870.6375 496.95L870.6375 489.73126L868.45 490.52814L868.45 489.54376L871.5594 488.3719L871.71564 488.3719L871.71564 496.95ZM880.5125 493.3094Q880.5125 495.21564 879.85626 496.15314Q879.21564 497.075 877.825 497.075Q876.46564 497.075 875.8094 496.16876Q875.15314 495.2625 875.1219 493.45L875.1219 492.0125Q875.1219 490.1219 875.7625 489.21564Q876.41876 488.29376 877.8094 488.29376Q879.1844 488.29376 879.84064 489.1844Q880.4969 490.0594 880.5125 491.90314L880.5125 493.3094ZM879.41876 491.825Q879.41876 490.45 879.02814 489.825Q878.65314 489.1844 877.8094 489.1844Q876.98126 489.1844 876.59064 489.825Q876.21564 490.45 876.21564 491.7469L876.21564 493.48126Q876.21564 494.85626 876.60626 495.52814Q877.0125 496.1844 877.825 496.1844Q878.6219 496.1844 879.0125 495.5594Q879.40314 494.9344 879.41876 493.60626L879.41876 491.825ZM887.5125 493.3094Q887.5125 495.21564 886.85626 496.15314Q886.21564 497.075 884.825 497.075Q883.46564 497.075 882.8094 496.16876Q882.15314 495.2625 882.1219 493.45L882.1219 492.0125Q882.1219 490.1219 882.7625 489.21564Q883.41876 488.29376 884.8094 488.29376Q886.1844 488.29376 886.84064 489.1844Q887.4969 490.0594 887.5125 491.90314L887.5125 493.3094ZM886.41876 491.825Q886.41876 490.45 886.02814 489.825Q885.65314 489.1844 884.8094 489.1844Q883.98126 489.1844 883.59064 489.825Q883.21564 490.45 883.21564 491.7469L883.21564 493.48126Q883.21564 494.85626 883.60626 495.52814Q884.0125 496.1844 884.825 496.1844Q885.6219 496.1844 886.0125 495.5594Q886.40314 494.9344 886.41876 493.60626L886.41876 491.825Z" fill-rule="nonzero"/><path fill="#8f86fb" d="M315.5 78.25C315.5 77.697716 315.94772 77.25 316.5 77.25L326.5 77.25C327.05228 77.25 327.5 77.697716 327.5 78.25L327.5 88.25C327.5 88.802284 327.05228 89.25 326.5 89.25L316.5 89.25C315.94772 89.25 315.5 88.802284 315.5 88.25Z" fill-rule="nonzero"/><path fill="#1a1a1a" d="M336.48438 87.75L336.48438 79.21875L339.28125 79.21875Q340.67188 79.21875 341.35938 79.796875Q342.0625 80.359375 342.0625 81.484375Q342.0625 82.09375 341.71875 82.5625Q341.39062 83.015625 340.79688 83.265625Q341.5 83.453125 341.89062 84.0Q342.29688 84.53125 342.29688 85.28125Q342.29688 86.4375 341.54688 87.09375Q340.8125 87.75 339.45312 87.75L336.48438 87.75ZM337.60938 83.765625L337.60938 86.828125L339.46875 86.828125Q340.26562 86.828125 340.71875 86.421875Q341.17188 86.015625 341.17188 85.296875Q341.17188 83.765625 339.48438 83.765625L337.60938 83.765625ZM337.60938 82.859375L339.3125 82.859375Q340.04688 82.859375 340.48438 82.5Q340.9375 82.125 340.9375 81.484375Q340.9375 80.78125 340.53125 80.46875Q340.125 80.140625 339.28125 80.140625L337.60938 80.140625L337.60938 82.859375ZM344.5 87.75L343.42188 87.75L343.42188 81.40625L344.5 81.40625L344.5 87.75ZM343.32812 79.734375Q343.32812 79.46875 343.48438 79.28125Q343.65625 79.09375 343.96875 79.09375Q344.28125 79.09375 344.4375 79.28125Q344.60938 79.46875 344.60938 79.734375Q344.60938 79.984375 344.4375 80.171875Q344.28125 80.34375 343.96875 80.34375Q343.65625 80.34375 343.48438 80.171875Q343.32812 79.984375 343.32812 79.734375ZM348.85938 86.984375Q349.4375 86.984375 349.875 86.640625Q350.3125 86.28125 350.35938 85.75L351.39062 85.75Q351.35938 86.296875 351.0 86.796875Q350.65625 87.28125 350.07812 87.578125Q349.51562 87.875 348.85938 87.875Q347.5625 87.875 346.79688 87.015625Q346.04688 86.140625 346.04688 84.640625L346.04688 84.453125Q346.04688 83.53125 346.375 82.8125Q346.71875 82.09375 347.34375 81.703125Q347.98438 81.296875 348.85938 81.296875Q349.92188 81.296875 350.625 81.9375Q351.34375 82.5625 351.39062 83.59375L350.35938 83.59375Q350.3125 82.96875 349.89062 82.578125Q349.46875 82.1875 348.85938 82.1875Q348.03125 82.1875 347.57812 82.78125Q347.125 83.375 347.125 84.5L347.125 84.703125Q347.125 85.796875 347.57812 86.390625Q348.03125 86.984375 348.85938 86.984375ZM356.23438 87.125Q355.60938 87.875 354.375 87.875Q353.35938 87.875 352.82812 87.28125Q352.29688 86.6875 352.29688 85.53125L352.29688 81.40625L353.375 81.40625L353.375 85.5Q353.375 86.953125 354.54688 86.953125Q355.79688 86.953125 356.20312 86.015625L356.20312 81.40625L357.29688 81.40625L357.29688 87.75L356.26562 87.75L356.23438 87.125ZM364.6875 84.65625Q364.6875 86.109375 364.01562 87.0Q363.35938 87.875 362.23438 87.875Q361.03125 87.875 360.375 87.015625L360.3125 87.75L359.32812 87.75L359.32812 78.75L360.40625 78.75L360.40625 82.109375Q361.0625 81.296875 362.21875 81.296875Q363.375 81.296875 364.03125 82.171875Q364.6875 83.03125 364.6875 84.5625L364.6875 84.65625ZM363.60938 84.53125Q363.60938 83.421875 363.17188 82.828125Q362.75 82.21875 361.95312 82.21875Q360.875 82.21875 360.40625 83.203125L360.40625 85.953125Q360.90625 86.953125 361.95312 86.953125Q362.73438 86.953125 363.17188 86.34375Q363.60938 85.734375 363.60938 84.53125ZM367.5 87.75L366.42188 87.75L366.42188 81.40625L367.5 81.40625L367.5 87.75ZM366.32812 79.734375Q366.32812 79.46875 366.48438 79.28125Q366.65625 79.09375 366.96875 79.09375Q367.28125 79.09375 367.4375 79.28125Q367.60938 79.46875 367.60938 79.734375Q367.60938 79.984375 367.4375 80.171875Q367.28125 80.34375 366.96875 80.34375Q366.65625 80.34375 366.48438 80.171875Q366.32812 79.984375 366.32812 79.734375ZM371.85938 86.984375Q372.4375 86.984375 372.875 86.640625Q373.3125 86.28125 373.35938 85.75L374.39062 85.75Q374.35938 86.296875 374.0 86.796875Q373.65625 87.28125 373.07812 87.578125Q372.51562 87.875 371.85938 87.875Q370.5625 87.875 369.79688 87.015625Q369.04688 86.140625 369.04688 84.640625L369.04688 84.453125Q369.04688 83.53125 369.375 82.8125Q369.71875 82.09375 370.34375 81.703125Q370.98438 81.296875 371.85938 81.296875Q372.92188 81.296875 373.625 81.9375Q374.34375 82.5625 374.39062 83.59375L373.35938 83.59375Q373.3125 82.96875 372.89062 82.578125Q372.46875 82.1875 371.85938 82.1875Q371.03125 82.1875 370.57812 82.78125Q370.125 83.375 370.125 84.5L370.125 84.703125Q370.125 85.796875 370.57812 86.390625Q371.03125 86.984375 371.85938 86.984375Z" fill-rule="nonzero"/><path fill="#5445ff" d="M390.5 78.25C390.5 77.697716 390.94772 77.25 391.5 77.25L401.5 77.25C402.05228 77.25 402.5 77.697716 402.5 78.25L402.5 88.25C402.5 88.802284 402.05228 89.25 401.5 89.25L391.5 89.25C390.94772 89.25 390.5 88.802284 390.5 88.25Z" fill-rule="nonzero"/><path fill="#1a1a1a" d="M414.3125 86.25L416.75 79.21875L417.98438 79.21875L414.8125 87.75L413.82812 87.75L410.67188 79.21875L411.89062 79.21875L414.3125 86.25ZM421.95312 87.875Q420.65625 87.875 419.84375 87.03125Q419.04688 86.171875 419.04688 84.75L419.04688 84.5625Q419.04688 83.609375 419.40625 82.875Q419.76562 82.125 420.40625 81.71875Q421.0625 81.296875 421.8125 81.296875Q423.04688 81.296875 423.73438 82.109375Q424.42188 82.921875 424.42188 84.4375L424.42188 84.890625L420.125 84.890625Q420.15625 85.828125 420.67188 86.40625Q421.20312 86.984375 422.01562 86.984375Q422.57812 86.984375 422.96875 86.75Q423.375 86.515625 423.6875 86.125L424.34375 86.640625Q423.54688 87.875 421.95312 87.875ZM421.8125 82.1875Q421.15625 82.1875 420.70312 82.671875Q420.26562 83.140625 420.17188 84.0L423.34375 84.0L423.34375 83.921875Q423.29688 83.09375 422.89062 82.640625Q422.5 82.1875 421.8125 82.1875ZM427.85938 86.984375Q428.4375 86.984375 428.875 86.640625Q429.3125 86.28125 429.35938 85.75L430.39062 85.75Q430.35938 86.296875 430.0 86.796875Q429.65625 87.28125 429.07812 87.578125Q428.51562 87.875 427.85938 87.875Q426.5625 87.875 425.79688 87.015625Q425.04688 86.140625 425.04688 84.640625L425.04688 84.453125Q425.04688 83.53125 425.375 82.8125Q425.71875 82.09375 426.34375 81.703125Q426.98438 81.296875 427.85938 81.296875Q428.92188 81.296875 429.625 81.9375Q430.34375 82.5625 430.39062 83.59375L429.35938 83.59375Q429.3125 82.96875 428.89062 82.578125Q428.46875 82.1875 427.85938 82.1875Q427.03125 82.1875 426.57812 82.78125Q426.125 83.375 426.125 84.5L426.125 84.703125Q426.125 85.796875 426.57812 86.390625Q427.03125 86.984375 427.85938 86.984375ZM432.79688 79.875L432.79688 81.40625L433.96875 81.40625L433.96875 82.25L432.79688 82.25L432.79688 86.171875Q432.79688 86.5625 432.95312 86.75Q433.10938 86.9375 433.48438 86.9375Q433.67188 86.9375 434.0 86.875L434.0 87.75Q433.57812 87.875 433.17188 87.875Q432.45312 87.875 432.07812 87.4375Q431.70312 86.984375 431.70312 86.171875L431.70312 82.25L430.54688 82.25L430.54688 81.40625L431.70312 81.40625L431.70312 79.875L432.79688 79.875ZM435.03125 84.515625Q435.03125 83.59375 435.39062 82.84375Q435.76562 82.09375 436.42188 81.703125Q437.07812 81.296875 437.90625 81.296875Q439.20312 81.296875 440.0 82.1875Q440.8125 83.078125 440.8125 84.578125L440.8125 84.65625Q440.8125 85.578125 440.45312 86.3125Q440.09375 87.046875 439.4375 87.46875Q438.78125 87.875 437.92188 87.875Q436.64062 87.875 435.82812 86.984375Q435.03125 86.078125 435.03125 84.59375L435.03125 84.515625ZM436.125 84.65625Q436.125 85.703125 436.60938 86.34375Q437.10938 86.984375 437.92188 86.984375Q438.75 86.984375 439.23438 86.34375Q439.71875 85.6875 439.71875 84.515625Q439.71875 83.484375 439.21875 82.84375Q438.73438 82.1875 437.90625 82.1875Q437.10938 82.1875 436.60938 82.828125Q436.125 83.453125 436.125 84.65625ZM445.39062 82.375Q445.14062 82.34375 444.85938 82.34375Q443.78125 82.34375 443.40625 83.25L443.40625 87.75L442.32812 87.75L442.32812 81.40625L443.375 81.40625L443.39062 82.140625Q443.92188 81.296875 444.90625 81.296875Q445.21875 81.296875 445.39062 81.375L445.39062 82.375ZM447.5 87.75L446.42188 87.75L446.42188 78.75L447.5 78.75L447.5 87.75ZM451.39062 86.15625L452.875 81.40625L454.03125 81.40625L451.48438 88.734375Q450.89062 90.3125 449.60938 90.3125L449.39062 90.296875L449.0 90.21875L449.0 89.34375L449.28125 89.359375Q449.84375 89.359375 450.14062 89.140625Q450.45312 88.921875 450.65625 88.328125L450.89062 87.671875L448.625 81.40625L449.8125 81.40625L451.39062 86.15625ZM460.57812 84.5625L457.71875 84.5625L457.71875 83.6875L460.57812 83.6875L460.57812 84.5625ZM470.79688 86.625Q470.35938 87.25 469.57812 87.5625Q468.79688 87.875 467.76562 87.875Q466.73438 87.875 465.92188 87.390625Q465.10938 86.890625 464.67188 85.984375Q464.23438 85.078125 464.21875 83.890625L464.21875 83.15625Q464.21875 81.21875 465.10938 80.15625Q466.01562 79.09375 467.64062 79.09375Q468.98438 79.09375 469.79688 79.78125Q470.60938 80.46875 470.79688 81.71875L469.67188 81.71875Q469.34375 80.03125 467.65625 80.03125Q466.51562 80.03125 465.9375 80.828125Q465.35938 81.609375 465.34375 83.125L465.34375 83.8125Q465.34375 85.25 466.0 86.109375Q466.65625 86.953125 467.78125 86.953125Q468.40625 86.953125 468.875 86.8125Q469.35938 86.671875 469.67188 86.328125L469.67188 84.421875L467.70312 84.421875L467.70312 83.5L470.79688 83.5L470.79688 86.625ZM474.95312 87.875Q473.65625 87.875 472.84375 87.03125Q472.04688 86.171875 472.04688 84.75L472.04688 84.5625Q472.04688 83.609375 472.40625 82.875Q472.76562 82.125 473.40625 81.71875Q474.0625 81.296875 474.8125 81.296875Q476.04688 81.296875 476.73438 82.109375Q477.42188 82.921875 477.42188 84.4375L477.42188 84.890625L473.125 84.890625Q473.15625 85.828125 473.67188 86.40625Q474.20312 86.984375 475.01562 86.984375Q475.57812 86.984375 475.96875 86.75Q476.375 86.515625 476.6875 86.125L477.34375 86.640625Q476.54688 87.875 474.95312 87.875ZM474.8125 82.1875Q474.15625 82.1875 473.70312 82.671875Q473.26562 83.140625 473.17188 84.0L476.34375 84.0L476.34375 83.921875Q476.29688 83.09375 475.89062 82.640625Q475.5 82.1875 474.8125 82.1875ZM479.34375 81.40625L479.375 82.203125Q480.10938 81.296875 481.28125 81.296875Q483.29688 81.296875 483.3125 83.5625L483.3125 87.75L482.21875 87.75L482.21875 83.546875Q482.21875 82.875 481.90625 82.546875Q481.60938 82.21875 480.95312 82.21875Q480.42188 82.21875 480.01562 82.5Q479.625 82.78125 479.40625 83.234375L479.40625 87.75L478.32812 87.75L478.32812 81.40625L479.34375 81.40625ZM487.95312 87.875Q486.65625 87.875 485.84375 87.03125Q485.04688 86.171875 485.04688 84.75L485.04688 84.5625Q485.04688 83.609375 485.40625 82.875Q485.76562 82.125 486.40625 81.71875Q487.0625 81.296875 487.8125 81.296875Q489.04688 81.296875 489.73438 82.109375Q490.42188 82.921875 490.42188 84.4375L490.42188 84.890625L486.125 84.890625Q486.15625 85.828125 486.67188 86.40625Q487.20312 86.984375 488.01562 86.984375Q488.57812 86.984375 488.96875 86.75Q489.375 86.515625 489.6875 86.125L490.34375 86.640625Q489.54688 87.875 487.95312 87.875ZM487.8125 82.1875Q487.15625 82.1875 486.70312 82.671875Q486.26562 83.140625 486.17188 84.0L489.34375 84.0L489.34375 83.921875Q489.29688 83.09375 488.89062 82.640625Q488.5 82.1875 487.8125 82.1875ZM494.39062 82.375Q494.14062 82.34375 493.85938 82.34375Q492.78125 82.34375 492.40625 83.25L492.40625 87.75L491.32812 87.75L491.32812 81.40625L492.375 81.40625L492.39062 82.140625Q492.92188 81.296875 493.90625 81.296875Q494.21875 81.296875 494.39062 81.375L494.39062 82.375ZM499.23438 87.75Q499.14062 87.5625 499.07812 87.078125Q498.32812 87.875 497.28125 87.875Q496.34375 87.875 495.73438 87.34375Q495.14062 86.8125 495.14062 85.984375Q495.14062 85.0 495.89062 84.453125Q496.64062 83.90625 498.01562 83.90625L499.0625 83.90625L499.0625 83.40625Q499.0625 82.84375 498.71875 82.515625Q498.39062 82.171875 497.71875 82.171875Q497.14062 82.171875 496.75 82.46875Q496.35938 82.75 496.35938 83.171875L495.26562 83.171875Q495.26562 82.6875 495.59375 82.25Q495.9375 81.8125 496.51562 81.5625Q497.09375 81.296875 497.78125 81.296875Q498.89062 81.296875 499.5 81.84375Q500.125 82.390625 500.15625 83.34375L500.15625 86.265625Q500.15625 87.140625 500.375 87.65625L500.375 87.75L499.23438 87.75ZM497.4375 86.921875Q497.95312 86.921875 498.40625 86.65625Q498.85938 86.390625 499.0625 85.96875L499.0625 84.671875L498.21875 84.671875Q496.21875 84.671875 496.21875 85.84375Q496.21875 86.34375 496.5625 86.640625Q496.90625 86.921875 497.4375 86.921875ZM503.5 87.75L502.42188 87.75L502.42188 78.75L503.5 78.75L503.5 87.75ZM514.5 79.21875L514.5 85.015625Q514.4844 86.21875 513.7344 87.0Q512.9844 87.765625 511.70312 87.859375L511.39062 87.875Q510.0 87.875 509.15625 87.125Q508.32812 86.359375 508.32812 85.03125L508.32812 79.21875L509.4375 79.21875L509.4375 85.0Q509.4375 85.921875 509.9375 86.4375Q510.45312 86.953125 511.39062 86.953125Q512.3594 86.953125 512.8594 86.4375Q513.3594 85.921875 513.3594 85.0L513.3594 79.21875L514.5 79.21875ZM521.6719 84.65625Q521.6719 86.09375 521.0156 86.984375Q520.3594 87.875 519.21875 87.875Q518.0625 87.875 517.40625 87.140625L517.40625 90.1875L516.3281 90.1875L516.3281 81.40625L517.3125 81.40625L517.3594 82.109375Q518.03125 81.296875 519.2031 81.296875Q520.34375 81.296875 521.0 82.15625Q521.6719 83.015625 521.6719 84.546875L521.6719 84.65625ZM520.59375 84.53125Q520.59375 83.453125 520.125 82.84375Q519.6719 82.21875 518.875 82.21875Q517.8906 82.21875 517.40625 83.078125L517.40625 86.109375Q517.8906 86.984375 518.8906 86.984375Q519.6719 86.984375 520.125 86.375Q520.59375 85.75 520.59375 84.53125ZM527.0156 86.0625Q527.0156 85.625 526.6719 85.390625Q526.34375 85.140625 525.5156 84.96875Q524.7031 84.796875 524.21875 84.546875Q523.7344 84.296875 523.5 83.96875Q523.28125 83.625 523.28125 83.15625Q523.28125 82.375 523.9375 81.84375Q524.59375 81.296875 525.625 81.296875Q526.7031 81.296875 527.3594 81.859375Q528.03125 82.40625 528.03125 83.265625L526.9531 83.265625Q526.9531 82.828125 526.5625 82.515625Q526.1875 82.1875 525.625 82.1875Q525.03125 82.1875 524.6875 82.453125Q524.3594 82.703125 524.3594 83.109375Q524.3594 83.5 524.6719 83.703125Q524.9844 83.90625 525.7969 84.09375Q526.6094 84.265625 527.1094 84.515625Q527.6094 84.765625 527.84375 85.125Q528.09375 85.484375 528.09375 85.984375Q528.09375 86.84375 527.40625 87.359375Q526.7344 87.875 525.65625 87.875Q524.8906 87.875 524.2969 87.609375Q523.71875 87.328125 523.3906 86.84375Q523.0625 86.359375 523.0625 85.796875L524.1406 85.796875Q524.1719 86.34375 524.5781 86.671875Q524.9844 86.984375 525.65625 86.984375Q526.2656 86.984375 526.6406 86.734375Q527.0156 86.484375 527.0156 86.0625ZM531.8594 86.984375Q532.4375 86.984375 532.875 86.640625Q533.3125 86.28125 533.3594 85.75L534.3906 85.75Q534.3594 86.296875 534.0 86.796875Q533.65625 87.28125 533.0781 87.578125Q532.5156 87.875 531.8594 87.875Q530.5625 87.875 529.7969 87.015625Q529.0469 86.140625 529.0469 84.640625L529.0469 84.453125Q529.0469 83.53125 529.375 82.8125Q529.71875 82.09375 530.34375 81.703125Q530.9844 81.296875 531.8594 81.296875Q532.9219 81.296875 533.625 81.9375Q534.34375 82.5625 534.3906 83.59375L533.3594 83.59375Q533.3125 82.96875 532.8906 82.578125Q532.46875 82.1875 531.8594 82.1875Q531.03125 82.1875 530.5781 82.78125Q530.125 83.375 530.125 84.5L530.125 84.703125Q530.125 85.796875 530.5781 86.390625Q531.03125 86.984375 531.8594 86.984375ZM539.2344 87.75Q539.1406 87.5625 539.0781 87.078125Q538.3281 87.875 537.28125 87.875Q536.34375 87.875 535.7344 87.34375Q535.1406 86.8125 535.1406 85.984375Q535.1406 85.0 535.8906 84.453125Q536.6406 83.90625 538.0156 83.90625L539.0625 83.90625L539.0625 83.40625Q539.0625 82.84375 538.71875 82.515625Q538.3906 82.171875 537.71875 82.171875Q537.1406 82.171875 536.75 82.46875Q536.3594 82.75 536.3594 83.171875L535.2656 83.171875Q535.2656 82.6875 535.59375 82.25Q535.9375 81.8125 536.5156 81.5625Q537.09375 81.296875 537.78125 81.296875Q538.8906 81.296875 539.5 81.84375Q540.125 82.390625 540.15625 83.34375L540.15625 86.265625Q540.15625 87.140625 540.375 87.65625L540.375 87.75L539.2344 87.75ZM537.4375 86.921875Q537.9531 86.921875 538.40625 86.65625Q538.8594 86.390625 539.0625 85.96875L539.0625 84.671875L538.21875 84.671875Q536.21875 84.671875 536.21875 85.84375Q536.21875 86.34375 536.5625 86.640625Q536.90625 86.921875 537.4375 86.921875ZM543.5 87.75L542.4219 87.75L542.4219 78.75L543.5 78.75L543.5 87.75ZM547.9531 87.875Q546.65625 87.875 545.84375 87.03125Q545.0469 86.171875 545.0469 84.75L545.0469 84.5625Q545.0469 83.609375 545.40625 82.875Q545.7656 82.125 546.40625 81.71875Q547.0625 81.296875 547.8125 81.296875Q549.0469 81.296875 549.7344 82.109375Q550.4219 82.921875 550.4219 84.4375L550.4219 84.890625L546.125 84.890625Q546.15625 85.828125 546.6719 86.40625Q547.2031 86.984375 548.0156 86.984375Q548.5781 86.984375 548.96875 86.75Q549.375 86.515625 549.6875 86.125L550.34375 86.640625Q549.5469 87.875 547.9531 87.875ZM547.8125 82.1875Q547.15625 82.1875 546.7031 82.671875Q546.2656 83.140625 546.1719 84.0L549.34375 84.0L549.34375 83.921875Q549.2969 83.09375 548.8906 82.640625Q548.5 82.1875 547.8125 82.1875ZM554.3906 82.375Q554.1406 82.34375 553.8594 82.34375Q552.78125 82.34375 552.40625 83.25L552.40625 87.75L551.3281 87.75L551.3281 81.40625L552.375 81.40625L552.3906 82.140625Q552.9219 81.296875 553.90625 81.296875Q554.21875 81.296875 554.3906 81.375L554.3906 82.375ZM559.9375 79.21875L562.7344 86.171875L565.5156 79.21875L566.9844 79.21875L566.9844 87.75L565.8594 87.75L565.8594 84.421875L565.96875 80.84375L563.15625 87.75L562.2969 87.75L559.5 80.859375L559.6094 84.421875L559.6094 87.75L558.4844 87.75L558.4844 79.21875L559.9375 79.21875ZM568.03125 84.515625Q568.03125 83.59375 568.3906 82.84375Q568.7656 82.09375 569.4219 81.703125Q570.0781 81.296875 570.90625 81.296875Q572.2031 81.296875 573.0 82.1875Q573.8125 83.078125 573.8125 84.578125L573.8125 84.65625Q573.8125 85.578125 573.4531 86.3125Q573.09375 87.046875 572.4375 87.46875Q571.78125 87.875 570.9219 87.875Q569.6406 87.875 568.8281 86.984375Q568.03125 86.078125 568.03125 84.59375L568.03125 84.515625ZM569.125 84.65625Q569.125 85.703125 569.6094 86.34375Q570.1094 86.984375 570.9219 86.984375Q571.75 86.984375 572.2344 86.34375Q572.71875 85.6875 572.71875 84.515625Q572.71875 83.484375 572.21875 82.84375Q571.7344 82.1875 570.90625 82.1875Q570.1094 82.1875 569.6094 82.828125Q569.125 83.453125 569.125 84.65625ZM575.0625 84.53125Q575.0625 83.0625 575.75 82.1875Q576.4375 81.296875 577.5625 81.296875Q578.6719 81.296875 579.3281 82.046875L579.3281 78.75L580.40625 78.75L580.40625 87.75L579.40625 87.75L579.3594 87.0625Q578.7031 87.875 577.5469 87.875Q576.4531 87.875 575.75 86.96875Q575.0625 86.0625 575.0625 84.609375L575.0625 84.53125ZM576.1406 84.65625Q576.1406 85.734375 576.5781 86.34375Q577.03125 86.953125 577.8125 86.953125Q578.84375 86.953125 579.3281 86.015625L579.3281 83.109375Q578.84375 82.21875 577.8281 82.21875Q577.03125 82.21875 576.5781 82.828125Q576.1406 83.4375 576.1406 84.65625ZM584.9531 87.875Q583.65625 87.875 582.84375 87.03125Q582.0469 86.171875 582.0469 84.75L582.0469 84.5625Q582.0469 83.609375 582.40625 82.875Q582.7656 82.125 583.40625 81.71875Q584.0625 81.296875 584.8125 81.296875Q586.0469 81.296875 586.7344 82.109375Q587.4219 82.921875 587.4219 84.4375L587.4219 84.890625L583.125 84.890625Q583.15625 85.828125 583.6719 86.40625Q584.2031 86.984375 585.0156 86.984375Q585.5781 86.984375 585.96875 86.75Q586.375 86.515625 586.6875 86.125L587.34375 86.640625Q586.5469 87.875 584.9531 87.875ZM584.8125 82.1875Q584.15625 82.1875 583.7031 82.671875Q583.2656 83.140625 583.1719 84.0L586.34375 84.0L586.34375 83.921875Q586.2969 83.09375 585.8906 82.640625Q585.5 82.1875 584.8125 82.1875ZM589.5 87.75L588.4219 87.75L588.4219 78.75L589.5 78.75L589.5 87.75Z" fill-rule="nonzero"/><path fill="#000000" d="M35.878124 46.815624L39.753124 33.9875L43.659374 33.9875L37.721874 51.05L34.05 51.05L28.128124 33.9875L32.034374 33.9875L35.878124 46.815624ZM51.190624 51.284374Q48.39375 51.284374 46.64375 49.58125Q44.89375 47.8625 44.89375 45.01875L44.89375 44.690624Q44.89375 42.76875 45.628124 41.26875Q46.378124 39.76875 47.721874 38.95625Q49.08125 38.128124 50.815624 38.128124Q53.409374 38.128124 54.909374 39.76875Q56.409374 41.409374 56.409374 44.425L56.409374 45.815624L48.33125 45.815624Q48.4875 47.05 49.315624 47.8Q50.14375 48.55 51.409374 48.55Q53.3625 48.55 54.471874 47.128124L56.128124 49.003124Q55.378124 50.08125 54.065624 50.690624Q52.76875 51.284374 51.190624 51.284374ZM50.8 40.878124Q49.8 40.878124 49.159374 41.565624Q48.534374 42.2375 48.3625 43.503124L53.08125 43.503124L53.08125 43.2375Q53.05 42.1125 52.45625 41.503124Q51.878124 40.878124 50.8 40.878124ZM63.628124 48.55Q64.56563 48.55 65.14375 48.034374Q65.7375 47.51875 65.75313 46.659374L68.94063 46.659374Q68.925 47.95625 68.22188 49.034374Q67.53438 50.096874 66.33125 50.690624Q65.14375 51.284374 63.690624 51.284374Q60.971874 51.284374 59.39375 49.565624Q57.83125 47.83125 57.83125 44.784374L57.83125 44.55Q57.83125 41.628124 59.378124 39.878124Q60.940624 38.128124 63.659374 38.128124Q66.03438 38.128124 67.47188 39.4875Q68.90938 40.846874 68.94063 43.096874L65.75313 43.096874Q65.7375 42.1125 65.14375 41.503124Q64.56563 40.878124 63.596874 40.878124Q62.425 40.878124 61.815624 41.7375Q61.20625 42.596874 61.20625 44.534374L61.20625 44.878124Q61.20625 46.846874 61.8 47.70625Q62.409374 48.55 63.628124 48.55ZM75.40938 35.253124L75.40938 38.3625L77.58125 38.3625L77.58125 40.846874L75.40938 40.846874L75.40938 47.175Q75.40938 47.878124 75.675 48.190624Q75.94063 48.4875 76.70625 48.4875Q77.26875 48.4875 77.70625 48.409374L77.70625 50.971874Q76.70625 51.284374 75.65938 51.284374Q72.09688 51.284374 72.01875 47.690624L72.01875 40.846874L70.175 40.846874L70.175 38.3625L72.01875 38.3625L72.01875 35.253124L75.40938 35.253124ZM78.83125 44.596874Q78.83125 42.70625 79.55 41.2375Q80.28438 39.753124 81.64375 38.940624Q83.00313 38.128124 84.81563 38.128124Q87.37813 38.128124 89.00313 39.70625Q90.62813 41.26875 90.81563 43.971874L90.83125 44.83125Q90.83125 47.753124 89.20625 49.51875Q87.58125 51.284374 84.83125 51.284374Q82.09688 51.284374 80.45625 49.534374Q78.83125 47.76875 78.83125 44.7375L78.83125 44.596874ZM82.20625 44.83125Q82.20625 46.64375 82.87813 47.596874Q83.56563 48.55 84.83125 48.55Q86.06563 48.55 86.75313 47.6125Q87.45625 46.659374 87.45625 44.596874Q87.45625 42.815624 86.75313 41.846874Q86.06563 40.878124 84.81563 40.878124Q83.56563 40.878124 82.87813 41.846874Q82.20625 42.815624 82.20625 44.83125ZM100.47188 41.55Q99.78438 41.45625 99.25313 41.45625Q97.33125 41.45625 96.7375 42.753124L96.7375 51.05L93.34688 51.05L93.34688 38.3625L96.55 38.3625L96.64375 39.878124Q97.65938 38.128124 99.47188 38.128124Q100.03438 38.128124 100.51875 38.284374L100.47188 41.55ZM105.925 51.05L102.53438 51.05L102.53438 33.05L105.925 33.05L105.925 51.05ZM113.08125 46.253124L115.425 38.3625L119.06563 38.3625L113.97188 53.01875L113.69063 53.690624Q112.55 56.175 109.94063 56.175Q109.19063 56.175 108.44063 55.95625L108.44063 53.378124L108.95625 53.39375Q109.90938 53.39375 110.37813 53.096874Q110.8625 52.815624 111.12813 52.128124L111.53438 51.08125L107.08125 38.3625L110.7375 38.3625L113.08125 46.253124ZM135.425 46.565624Q135.425 45.58125 134.72188 45.05Q134.01875 44.503124 132.19063 43.925Q130.3625 43.33125 129.3 42.753124Q126.39375 41.175 126.39375 38.51875Q126.39375 37.14375 127.15938 36.065624Q127.94063 34.971874 129.39375 34.3625Q130.8625 33.753124 132.675 33.753124Q134.50313 33.753124 135.925 34.425Q137.3625 35.08125 138.15938 36.284374Q138.95625 37.4875 138.95625 39.01875L135.44063 39.01875Q135.44063 37.846874 134.69063 37.20625Q133.95625 36.55 132.62813 36.55Q131.33125 36.55 130.6125 37.096874Q129.90938 37.64375 129.90938 38.534374Q129.90938 39.3625 130.7375 39.925Q131.58125 40.4875 133.20625 40.9875Q136.20625 41.878124 137.58125 43.221874Q138.95625 44.55 138.95625 46.55Q138.95625 48.76875 137.26875 50.034374Q135.59688 51.284374 132.76875 51.284374Q130.8 51.284374 129.175 50.565624Q127.56563 49.846874 126.70625 48.596874Q125.8625 47.33125 125.8625 45.675L129.39375 45.675Q129.39375 48.503124 132.76875 48.503124Q134.01875 48.503124 134.72188 48.003124Q135.425 47.4875 135.425 46.565624ZM148.94063 49.753124Q147.69063 51.284374 145.47188 51.284374Q143.44063 51.284374 142.3625 50.1125Q141.3 48.940624 141.26875 46.675L141.26875 38.3625L144.65938 38.3625L144.65938 46.565624Q144.65938 48.534374 146.45625 48.534374Q148.19063 48.534374 148.83125 47.346874L148.83125 38.3625L152.22188 38.3625L152.22188 51.05L149.03438 51.05L148.94063 49.753124ZM165.76875 44.83125Q165.76875 47.753124 164.44063 49.51875Q163.1125 51.284374 160.84688 51.284374Q158.925 51.284374 157.7375 49.940624L157.7375 55.925L154.34688 55.925L154.34688 38.3625L157.4875 38.3625L157.6125 39.6125Q158.84688 38.128124 160.81563 38.128124Q163.15938 38.128124 164.45625 39.8625Q165.76875 41.596874 165.76875 44.64375L165.76875 44.83125ZM162.37813 44.58125Q162.37813 42.815624 161.75313 41.8625Q161.12813 40.89375 159.925 40.89375Q158.33125 40.89375 157.7375 42.1125L157.7375 47.3Q158.3625 48.55 159.95625 48.55Q162.37813 48.55 162.37813 44.58125ZM174.19063 51.284374Q171.39375 51.284374 169.64375 49.58125Q167.89375 47.8625 167.89375 45.01875L167.89375 44.690624Q167.89375 42.76875 168.62813 41.26875Q169.37813 39.76875 170.72188 38.95625Q172.08125 38.128124 173.81563 38.128124Q176.40938 38.128124 177.90938 39.76875Q179.40938 41.409374 179.40938 44.425L179.40938 45.815624L171.33125 45.815624Q171.4875 47.05 172.31563 47.8Q173.14375 48.55 174.40938 48.55Q176.3625 48.55 177.47188 47.128124L179.12813 49.003124Q178.37813 50.08125 177.06563 50.690624Q175.76875 51.284374 174.19063 51.284374ZM173.8 40.878124Q172.8 40.878124 172.15938 41.565624Q171.53438 42.2375 171.3625 43.503124L176.08125 43.503124L176.08125 43.2375Q176.05 42.1125 175.45625 41.503124Q174.87813 40.878124 173.8 40.878124ZM188.47188 41.55Q187.78438 41.45625 187.25313 41.45625Q185.33125 41.45625 184.7375 42.753124L184.7375 51.05L181.34688 51.05L181.34688 38.3625L184.55 38.3625L184.64375 39.878124Q185.65938 38.128124 187.47188 38.128124Q188.03438 38.128124 188.51875 38.284374L188.47188 41.55ZM202.89375 44.8L200.09688 44.8L200.09688 51.05L196.58125 51.05L196.58125 33.9875L202.90938 33.9875Q205.94063 33.9875 207.58125 35.33125Q209.22188 36.675 209.22188 39.14375Q209.22188 40.89375 208.45625 42.065624Q207.70625 43.221874 206.175 43.909374L209.8625 50.878124L209.8625 51.05L206.09688 51.05L202.89375 44.8ZM200.09688 41.95625L202.925 41.95625Q204.25313 41.95625 204.97188 41.284374Q205.70625 40.6125 205.70625 39.425Q205.70625 38.221874 205.01875 37.534374Q204.33125 36.83125 202.90938 36.83125L200.09688 36.83125L200.09688 41.95625ZM217.19063 51.284374Q214.39375 51.284374 212.64375 49.58125Q210.89375 47.8625 210.89375 45.01875L210.89375 44.690624Q210.89375 42.76875 211.62813 41.26875Q212.37813 39.76875 213.72188 38.95625Q215.08125 38.128124 216.81563 38.128124Q219.40938 38.128124 220.90938 39.76875Q222.40938 41.409374 222.40938 44.425L222.40938 45.815624L214.33125 45.815624Q214.4875 47.05 215.31563 47.8Q216.14375 48.55 217.40938 48.55Q219.3625 48.55 220.47188 47.128124L222.12813 49.003124Q221.37813 50.08125 220.06563 50.690624Q218.76875 51.284374 217.19063 51.284374ZM216.8 40.878124Q215.8 40.878124 215.15938 41.565624Q214.53438 42.2375 214.3625 43.503124L219.08125 43.503124L219.08125 43.2375Q219.05 42.1125 218.45625 41.503124Q217.87813 40.878124 216.8 40.878124ZM231.22188 47.55Q231.22188 46.925 230.59688 46.565624Q229.9875 46.20625 228.62813 45.925Q224.1125 44.971874 224.1125 42.08125Q224.1125 40.39375 225.50313 39.26875Q226.90938 38.128124 229.175 38.128124Q231.58125 38.128124 233.01875 39.26875Q234.47188 40.409374 234.47188 42.221874L231.09688 42.221874Q231.09688 41.503124 230.62813 41.034374Q230.15938 40.55 229.15938 40.55Q228.3 40.55 227.83125 40.940624Q227.3625 41.315624 227.3625 41.925Q227.3625 42.4875 227.89375 42.83125Q228.425 43.175 229.69063 43.425Q230.95625 43.675 231.83125 43.9875Q234.51875 44.971874 234.51875 47.409374Q234.51875 49.14375 233.01875 50.221874Q231.53438 51.284374 229.175 51.284374Q227.58125 51.284374 226.34688 50.721874Q225.1125 50.14375 224.40938 49.159374Q223.70625 48.159374 223.70625 47.01875L226.925 47.01875Q226.97188 47.925 227.58125 48.409374Q228.20625 48.878124 229.25313 48.878124Q230.22188 48.878124 230.72188 48.51875Q231.22188 48.14375 231.22188 47.55ZM235.83125 44.596874Q235.83125 42.70625 236.55 41.2375Q237.28438 39.753124 238.64375 38.940624Q240.00313 38.128124 241.81563 38.128124Q244.37813 38.128124 246.00313 39.70625Q247.62813 41.26875 247.81563 43.971874L247.83125 44.83125Q247.83125 47.753124 246.20625 49.51875Q244.58125 51.284374 241.83125 51.284374Q239.09688 51.284374 237.45625 49.534374Q235.83125 47.76875 235.83125 44.7375L235.83125 44.596874ZM239.20625 44.83125Q239.20625 46.64375 239.87813 47.596874Q240.56563 48.55 241.83125 48.55Q243.06563 48.55 243.75313 47.6125Q244.45625 46.659374 244.45625 44.596874Q244.45625 42.815624 243.75313 41.846874Q243.06563 40.878124 241.81563 40.878124Q240.56563 40.878124 239.87813 41.846874Q239.20625 42.815624 239.20625 44.83125ZM253.925 51.05L250.53438 51.05L250.53438 33.05L253.925 33.05L253.925 51.05ZM263.9406 49.753124Q262.6906 51.284374 260.47186 51.284374Q258.4406 51.284374 257.3625 50.1125Q256.3 48.940624 256.26874 46.675L256.26874 38.3625L259.65936 38.3625L259.65936 46.565624Q259.65936 48.534374 261.45624 48.534374Q263.1906 48.534374 263.83124 47.346874L263.83124 38.3625L267.22186 38.3625L267.22186 51.05L264.03436 51.05L263.9406 49.753124ZM273.40936 35.253124L273.40936 38.3625L275.58124 38.3625L275.58124 40.846874L273.40936 40.846874L273.40936 47.175Q273.40936 47.878124 273.675 48.190624Q273.9406 48.4875 274.70624 48.4875Q275.26874 48.4875 275.70624 48.409374L275.70624 50.971874Q274.70624 51.284374 273.65936 51.284374Q270.09686 51.284374 270.01874 47.690624L270.01874 40.846874L268.175 40.846874L268.175 38.3625L270.01874 38.3625L270.01874 35.253124L273.40936 35.253124ZM280.925 51.05L277.53436 51.05L277.53436 38.3625L280.925 38.3625L280.925 51.05ZM277.33124 35.08125Q277.33124 34.33125 277.83124 33.846874Q278.34686 33.346874 279.22186 33.346874Q280.09686 33.346874 280.6125 33.846874Q281.1281 34.33125 281.1281 35.08125Q281.1281 35.8625 280.59686 36.3625Q280.08124 36.846874 279.22186 36.846874Q278.3781 36.846874 277.84686 36.3625Q277.33124 35.8625 277.33124 35.08125ZM282.83124 44.596874Q282.83124 42.70625 283.55 41.2375Q284.28436 39.753124 285.64374 38.940624Q287.0031 38.128124 288.8156 38.128124Q291.3781 38.128124 293.0031 39.70625Q294.6281 41.26875 294.8156 43.971874L294.83124 44.83125Q294.83124 47.753124 293.20624 49.51875Q291.58124 51.284374 288.83124 51.284374Q286.09686 51.284374 284.45624 49.534374Q282.83124 47.76875 282.83124 44.7375L282.83124 44.596874ZM286.20624 44.83125Q286.20624 46.64375 286.8781 47.596874Q287.5656 48.55 288.83124 48.55Q290.0656 48.55 290.7531 47.6125Q291.45624 46.659374 291.45624 44.596874Q291.45624 42.815624 290.7531 41.846874Q290.0656 40.878124 288.8156 40.878124Q287.5656 40.878124 286.8781 41.846874Q286.20624 42.815624 286.20624 44.83125ZM300.47186 38.3625L300.58124 39.83125Q301.9406 38.128124 304.22186 38.128124Q306.2375 38.128124 307.22186 39.315624Q308.20624 40.503124 308.22186 42.8625L308.22186 51.05L304.84686 51.05L304.84686 42.940624Q304.84686 41.8625 304.3781 41.378124Q303.90936 40.89375 302.8156 40.89375Q301.3781 40.89375 300.675 42.1125L300.675 51.05L297.28436 51.05L297.28436 38.3625L300.47186 38.3625ZM321.09686 46.909374L323.45624 38.3625L326.9875 38.3625L322.72186 51.05L319.4875 51.05L315.20624 38.3625L318.7375 38.3625L321.09686 46.909374ZM335.22186 47.55Q335.22186 46.925 334.59686 46.565624Q333.9875 46.20625 332.6281 45.925Q328.1125 44.971874 328.1125 42.08125Q328.1125 40.39375 329.5031 39.26875Q330.90936 38.128124 333.175 38.128124Q335.58124 38.128124 337.01874 39.26875Q338.47186 40.409374 338.47186 42.221874L335.09686 42.221874Q335.09686 41.503124 334.6281 41.034374Q334.15936 40.55 333.15936 40.55Q332.3 40.55 331.83124 40.940624Q331.3625 41.315624 331.3625 41.925Q331.3625 42.4875 331.89374 42.83125Q332.425 43.175 333.6906 43.425Q334.95624 43.675 335.83124 43.9875Q338.51874 44.971874 338.51874 47.409374Q338.51874 49.14375 337.01874 50.221874Q335.53436 51.284374 333.175 51.284374Q331.58124 51.284374 330.34686 50.721874Q329.1125 50.14375 328.40936 49.159374Q327.70624 48.159374 327.70624 47.01875L330.925 47.01875Q330.97186 47.925 331.58124 48.409374Q332.20624 48.878124 333.2531 48.878124Q334.22186 48.878124 334.72186 48.51875Q335.22186 48.14375 335.22186 47.55ZM346.58124 51.05L346.58124 33.9875L352.55 33.9875Q355.65936 33.9875 357.2531 35.175Q358.8625 36.3625 358.8625 38.659374Q358.8625 39.909374 358.22186 40.878124Q357.58124 41.83125 356.425 42.26875Q357.7375 42.596874 358.4875 43.596874Q359.2531 44.596874 359.2531 46.034374Q359.2531 48.4875 357.675 49.753124Q356.1125 51.01875 353.20624 51.05L346.58124 51.05ZM350.09686 43.6125L350.09686 48.221874L353.09686 48.221874Q354.34686 48.221874 355.03436 47.628124Q355.7375 47.034374 355.7375 46.003124Q355.7375 43.659374 353.3156 43.6125L350.09686 43.6125ZM350.09686 41.128124L352.6906 41.128124Q355.34686 41.08125 355.34686 39.01875Q355.34686 37.846874 354.675 37.346874Q354.0031 36.83125 352.55 36.83125L350.09686 36.83125L350.09686 41.128124ZM364.925 51.05L361.53436 51.05L361.53436 38.3625L364.925 38.3625L364.925 51.05ZM361.33124 35.08125Q361.33124 34.33125 361.83124 33.846874Q362.34686 33.346874 363.22186 33.346874Q364.09686 33.346874 364.6125 33.846874Q365.1281 34.33125 365.1281 35.08125Q365.1281 35.8625 364.59686 36.3625Q364.08124 36.846874 363.22186 36.846874Q362.3781 36.846874 361.84686 36.3625Q361.33124 35.8625 361.33124 35.08125ZM372.6281 48.55Q373.5656 48.55 374.14374 48.034374Q374.7375 47.51875 374.7531 46.659374L377.9406 46.659374Q377.925 47.95625 377.22186 49.034374Q376.53436 50.096874 375.33124 50.690624Q374.14374 51.284374 372.6906 51.284374Q369.97186 51.284374 368.39374 49.565624Q366.83124 47.83125 366.83124 44.784374L366.83124 44.55Q366.83124 41.628124 368.3781 39.878124Q369.9406 38.128124 372.65936 38.128124Q375.03436 38.128124 376.47186 39.4875Q377.90936 40.846874 377.9406 43.096874L374.7531 43.096874Q374.7375 42.1125 374.14374 41.503124Q373.5656 40.878124 372.59686 40.878124Q371.425 40.878124 370.8156 41.7375Q370.20624 42.596874 370.20624 44.534374L370.20624 44.878124Q370.20624 46.846874 370.8 47.70625Q371.40936 48.55 372.6281 48.55ZM387.9406 49.753124Q386.6906 51.284374 384.47186 51.284374Q382.4406 51.284374 381.3625 50.1125Q380.3 48.940624 380.26874 46.675L380.26874 38.3625L383.65936 38.3625L383.65936 46.565624Q383.65936 48.534374 385.45624 48.534374Q387.1906 48.534374 387.83124 47.346874L387.83124 38.3625L391.22186 38.3625L391.22186 51.05L388.03436 51.05L387.9406 49.753124ZM404.78436 44.83125Q404.78436 47.878124 403.47186 49.58125Q402.175 51.284374 399.84686 51.284374Q397.78436 51.284374 396.55 49.70625L396.39374 51.05L393.34686 51.05L393.34686 33.05L396.7375 33.05L396.7375 39.503124Q397.90936 38.128124 399.8156 38.128124Q402.14374 38.128124 403.45624 39.846874Q404.78436 41.55 404.78436 44.64375L404.78436 44.83125ZM401.39374 44.58125Q401.39374 42.659374 400.78436 41.784374Q400.175 40.89375 398.97186 40.89375Q397.34686 40.89375 396.7375 42.20625L396.7375 47.221874Q397.3625 48.55 398.9875 48.55Q400.6281 48.55 401.14374 46.940624Q401.39374 46.159374 401.39374 44.58125ZM410.925 51.05L407.53436 51.05L407.53436 38.3625L410.925 38.3625L410.925 51.05ZM407.33124 35.08125Q407.33124 34.33125 407.83124 33.846874Q408.34686 33.346874 409.22186 33.346874Q410.09686 33.346874 410.6125 33.846874Q411.1281 34.33125 411.1281 35.08125Q411.1281 35.8625 410.59686 36.3625Q410.08124 36.846874 409.22186 36.846874Q408.3781 36.846874 407.84686 36.3625Q407.33124 35.8625 407.33124 35.08125ZM418.6281 48.55Q419.5656 48.55 420.14374 48.034374Q420.7375 47.51875 420.7531 46.659374L423.9406 46.659374Q423.925 47.95625 423.22186 49.034374Q422.53436 50.096874 421.33124 50.690624Q420.14374 51.284374 418.6906 51.284374Q415.97186 51.284374 414.39374 49.565624Q412.83124 47.83125 412.83124 44.784374L412.83124 44.55Q412.83124 41.628124 414.3781 39.878124Q415.9406 38.128124 418.65936 38.128124Q421.03436 38.128124 422.47186 39.4875Q423.90936 40.846874 423.9406 43.096874L420.7531 43.096874Q420.7375 42.1125 420.14374 41.503124Q419.5656 40.878124 418.59686 40.878124Q417.425 40.878124 416.8156 41.7375Q416.20624 42.596874 416.20624 44.534374L416.20624 44.878124Q416.20624 46.846874 416.8 47.70625Q417.40936 48.55 418.6281 48.55ZM445.4875 33.9875L445.4875 45.221874Q445.4875 48.01875 443.7375 49.659374Q441.9875 51.284374 438.95624 51.284374Q435.95624 51.284374 434.1906 49.70625Q432.4406 48.1125 432.40936 45.346874L432.40936 33.9875L435.925 33.9875L435.925 45.253124Q435.925 46.925 436.72186 47.690624Q437.53436 48.45625 438.95624 48.45625Q441.90936 48.45625 441.95624 45.346874L441.95624 33.9875L445.4875 33.9875ZM459.76874 44.83125Q459.76874 47.753124 458.4406 49.51875Q457.1125 51.284374 454.84686 51.284374Q452.925 51.284374 451.7375 49.940624L451.7375 55.925L448.34686 55.925L448.34686 38.3625L451.4875 38.3625L451.6125 39.6125Q452.84686 38.128124 454.8156 38.128124Q457.15936 38.128124 458.45624 39.8625Q459.76874 41.596874 459.76874 44.64375L459.76874 44.83125ZM456.3781 44.58125Q456.3781 42.815624 455.7531 41.8625Q455.1281 40.89375 453.925 40.89375Q452.33124 40.89375 451.7375 42.1125L451.7375 47.3Q452.3625 48.55 453.95624 48.55Q456.3781 48.55 456.3781 44.58125ZM469.22186 47.55Q469.22186 46.925 468.59686 46.565624Q467.9875 46.20625 466.6281 45.925Q462.1125 44.971874 462.1125 42.08125Q462.1125 40.39375 463.5031 39.26875Q464.90936 38.128124 467.175 38.128124Q469.58124 38.128124 471.01874 39.26875Q472.47186 40.409374 472.47186 42.221874L469.09686 42.221874Q469.09686 41.503124 468.6281 41.034374Q468.15936 40.55 467.15936 40.55Q466.3 40.55 465.83124 40.940624Q465.3625 41.315624 465.3625 41.925Q465.3625 42.4875 465.89374 42.83125Q466.425 43.175 467.6906 43.425Q468.95624 43.675 469.83124 43.9875Q472.51874 44.971874 472.51874 47.409374Q472.51874 49.14375 471.01874 50.221874Q469.53436 51.284374 467.175 51.284374Q465.58124 51.284374 464.34686 50.721874Q463.1125 50.14375 462.40936 49.159374Q461.70624 48.159374 461.70624 47.01875L464.925 47.01875Q464.97186 47.925 465.58124 48.409374Q466.20624 48.878124 467.2531 48.878124Q468.22186 48.878124 468.72186 48.51875Q469.22186 48.14375 469.22186 47.55ZM479.6281 48.55Q480.5656 48.55 481.14374 48.034374Q481.7375 47.51875 481.7531 46.659374L484.9406 46.659374Q484.925 47.95625 484.22186 49.034374Q483.53436 50.096874 482.33124 50.690624Q481.14374 51.284374 479.6906 51.284374Q476.97186 51.284374 475.39374 49.565624Q473.83124 47.83125 473.83124 44.784374L473.83124 44.55Q473.83124 41.628124 475.3781 39.878124Q476.9406 38.128124 479.65936 38.128124Q482.03436 38.128124 483.47186 39.4875Q484.90936 40.846874 484.9406 43.096874L481.7531 43.096874Q481.7375 42.1125 481.14374 41.503124Q480.5656 40.878124 479.59686 40.878124Q478.425 40.878124 477.8156 41.7375Q477.20624 42.596874 477.20624 44.534374L477.20624 44.878124Q477.20624 46.846874 477.8 47.70625Q478.40936 48.55 479.6281 48.55ZM494.70624 51.05Q494.47186 50.596874 494.3625 49.909374Q493.1281 51.284374 491.15936 51.284374Q489.3 51.284374 488.0656 50.20625Q486.84686 49.128124 486.84686 47.4875Q486.84686 45.471874 488.33124 44.39375Q489.83124 43.315624 492.65936 43.3L494.22186 43.3L494.22186 42.58125Q494.22186 41.690624 493.76874 41.175Q493.3156 40.64375 492.34686 40.64375Q491.4875 40.64375 491.0031 41.05Q490.51874 41.45625 490.51874 42.175L487.1281 42.175Q487.1281 41.08125 487.8 40.14375Q488.4875 39.20625 489.72186 38.675Q490.97186 38.128124 492.51874 38.128124Q494.8625 38.128124 496.2375 39.315624Q497.6125 40.4875 497.6125 42.628124L497.6125 48.1125Q497.6281 49.925 498.1281 50.846874L498.1281 51.05L494.70624 51.05ZM491.89374 48.690624Q492.64374 48.690624 493.26874 48.3625Q493.90936 48.01875 494.22186 47.45625L494.22186 45.284374L492.95624 45.284374Q490.40936 45.284374 490.2531 47.034374L490.2375 47.2375Q490.2375 47.878124 490.675 48.284374Q491.1281 48.690624 491.89374 48.690624ZM503.925 51.05L500.53436 51.05L500.53436 33.05L503.925 33.05L503.925 51.05ZM509.925 51.05L506.53436 51.05L506.53436 38.3625L509.925 38.3625L509.925 51.05ZM506.33124 35.08125Q506.33124 34.33125 506.83124 33.846874Q507.34686 33.346874 508.22186 33.346874Q509.09686 33.346874 509.6125 33.846874Q510.1281 34.33125 510.1281 35.08125Q510.1281 35.8625 509.59686 36.3625Q509.08124 36.846874 508.22186 36.846874Q507.3781 36.846874 506.84686 36.3625Q506.33124 35.8625 506.33124 35.08125ZM515.47186 38.3625L515.58124 39.83125Q516.9406 38.128124 519.22186 38.128124Q521.2375 38.128124 522.22186 39.315624Q523.20624 40.503124 523.22186 42.8625L523.22186 51.05L519.84686 51.05L519.84686 42.940624Q519.84686 41.8625 519.3781 41.378124Q518.90936 40.89375 517.8156 40.89375Q516.3781 40.89375 515.675 42.1125L515.675 51.05L512.28436 51.05L512.28436 38.3625L515.47186 38.3625ZM524.8625 44.6125Q524.8625 41.690624 526.2531 39.909374Q527.64374 38.128124 529.9875 38.128124Q532.08124 38.128124 533.2375 39.565624L533.3781 38.3625L536.45624 38.3625L536.45624 50.628124Q536.45624 52.3 535.6906 53.51875Q534.9406 54.753124 533.5656 55.39375Q532.1906 56.05 530.3625 56.05Q528.95624 56.05 527.6281 55.4875Q526.3156 54.925 525.6281 54.05L527.1281 51.9875Q528.39374 53.409374 530.20624 53.409374Q531.55 53.409374 532.3 52.690624Q533.05 51.971874 533.05 50.64375L533.05 49.95625Q531.8781 51.284374 529.97186 51.284374Q527.6906 51.284374 526.26874 49.503124Q524.8625 47.70625 524.8625 44.753124L524.8625 44.6125ZM528.2531 44.8625Q528.2531 46.58125 528.9406 47.565624Q529.6281 48.534374 530.83124 48.534374Q532.3781 48.534374 533.05 47.378124L533.05 42.05Q532.3781 40.89375 530.8625 40.89375Q529.64374 40.89375 528.9406 41.89375Q528.2531 42.878124 528.2531 44.8625Z" fill-rule="nonzero"/></svg>