<?xml version="1.0" encoding="UTF-8" standalone="no"?>
<!DOCTYPE svg PUBLIC "-//W3C//DTD SVG 1.1//EN" "http://www.w3.org/Graphics/SVG/1.1/DTD/svg11.dtd">
<svg viewBox="0 0 960 384" height="384.0pt" width="960.0pt" xmlns="http://www.w3.org/2000/svg" version="1.1">
<path d="M 0.00 0.00 L 960.00 0.00 L 960.00 384.00 L 0.00 384.00 L 0.00 0.00 Z" fill="#ffffff" />
<path d="M 142.54 93.85 C 162.13 91.53 182.23 95.63 199.10 105.92 C 215.67 115.83 228.68 131.28 235.73 149.25 C 246.74 176.80 242.79 209.33 225.28 233.31 C 214.67 248.08 199.44 259.41 182.23 265.29 C 167.79 270.31 151.94 271.24 136.94 268.54 C 119.57 265.28 103.28 256.72 90.85 244.15 C 78.99 232.42 70.69 217.19 67.10 200.92 C 63.07 182.80 64.87 163.47 72.30 146.46 C 78.25 132.81 87.67 120.55 99.54 111.54 C 111.96 101.91 126.96 95.78 142.54 93.85 Z" fill="#4a86e8" />
<path d="M 143.75 126.15 C 145.37 126.47 146.98 126.81 148.59 127.14 C 148.34 133.20 149.24 139.62 148.00 145.56 C 142.94 163.82 138.21 182.19 133.15 200.45 C 141.77 184.89 149.52 168.85 157.80 153.10 C 158.50 153.27 159.20 153.43 159.90 153.60 C 152.06 168.89 144.05 184.11 136.36 199.48 C 146.15 190.24 155.69 180.72 165.37 171.37 C 167.89 169.29 169.49 165.69 173.21 166.35 C 161.77 178.26 149.37 189.26 137.99 201.23 C 140.34 200.59 142.64 199.87 144.85 198.83 C 156.24 193.49 167.73 188.36 179.14 183.03 C 180.91 182.07 182.38 182.41 184.30 182.65 C 179.23 185.64 173.63 187.75 168.31 190.32 C 158.39 194.77 148.60 199.51 138.59 203.77 C 144.17 203.91 149.52 202.81 154.99 201.95 C 165.93 200.38 176.81 198.38 187.78 197.10 C 187.68 197.79 187.58 198.47 187.48 199.16 C 171.40 201.27 155.45 204.31 139.36 206.27 C 152.52 207.13 165.81 206.45 179.00 206.64 C 185.17 206.85 191.93 205.92 197.78 207.67 C 201.05 208.53 204.30 209.49 207.56 210.42 C 207.55 212.16 207.54 213.91 207.53 215.66 C 183.31 215.75 159.10 215.68 134.89 215.75 C 133.76 217.77 132.63 220.29 130.82 221.79 C 126.44 225.44 119.84 225.26 115.76 221.24 C 111.24 217.18 110.96 209.59 115.29 205.30 C 117.55 202.77 120.39 202.24 123.50 201.38 C 130.36 176.33 136.96 151.22 143.75 126.15 Z" fill="#ffffff" />
<path d="M 349.38 132.76 C 355.75 132.74 362.12 132.75 368.50 132.75 C 368.51 165.17 368.50 197.58 368.50 230.00 C 363.64 230.00 358.77 230.00 353.91 230.00 C 352.63 226.85 351.35 223.71 350.04 220.58 C 346.85 224.52 343.75 228.10 338.79 229.79 C 331.05 232.50 321.12 231.72 314.65 226.36 C 308.76 221.60 305.57 214.23 304.24 206.93 C 302.92 199.56 302.90 191.39 304.15 184.00 C 305.46 176.37 308.66 168.78 314.84 163.83 C 321.74 158.28 332.18 157.54 340.23 160.74 C 344.81 162.55 347.77 165.91 350.89 169.53 C 348.53 157.08 349.62 145.51 349.38 132.76 Z" fill="#434343" />
<path d="M 558.00 138.63 C 564.46 138.63 570.91 138.63 577.37 138.63 C 577.37 163.75 577.37 188.87 577.37 213.99 C 589.75 214.01 602.12 213.99 614.50 214.00 C 614.50 219.33 614.50 224.67 614.50 230.00 C 595.67 230.00 576.83 230.00 558.00 230.00 C 558.00 199.54 558.00 169.09 558.00 138.63 Z" fill="#434343" />
<path d="M 476.80 145.41 C 480.78 145.01 484.86 145.33 488.87 145.26 C 488.87 150.21 488.87 155.17 488.88 160.12 C 495.37 160.13 501.87 160.12 508.37 160.13 C 508.37 164.92 508.37 169.71 508.37 174.50 C 501.87 174.50 495.38 174.50 488.88 174.50 C 488.85 185.00 488.91 195.50 488.84 206.00 C 488.91 208.26 488.74 211.01 490.06 212.96 C 491.38 214.93 493.69 215.84 495.97 216.06 C 500.37 216.40 504.90 215.10 509.13 214.03 C 509.13 218.76 509.12 223.50 509.14 228.24 C 501.78 231.08 493.77 231.90 485.97 230.88 C 481.21 230.15 476.70 228.14 473.87 224.09 C 470.32 218.96 469.84 213.07 469.75 207.01 C 469.73 196.17 469.76 185.34 469.75 174.50 C 466.71 174.50 463.67 174.50 460.63 174.50 C 460.63 171.83 460.62 169.16 460.61 166.49 C 464.01 164.24 467.83 162.46 471.01 159.92 C 473.42 155.35 474.46 150.04 476.80 145.41 Z" fill="#434343" />
<path d="M 412.24 159.23 C 420.87 158.19 429.61 159.21 437.10 163.87 C 442.75 167.32 446.81 172.69 449.20 178.82 C 452.30 186.84 452.61 196.08 451.19 204.49 C 449.76 212.63 445.84 220.16 439.11 225.13 C 431.62 230.67 422.04 231.92 412.97 231.01 C 404.14 230.02 395.82 225.67 390.74 218.26 C 385.21 210.26 383.75 200.51 384.37 190.97 C 384.92 182.84 387.23 174.95 392.78 168.80 C 397.82 163.17 404.82 160.14 412.24 159.23 Z" fill="#434343" />
<path d="M 668.77 160.30 C 676.94 162.55 683.58 168.50 686.58 176.44 C 689.62 184.15 688.94 191.77 688.99 199.87 C 673.93 199.88 658.86 199.86 643.80 199.88 C 644.31 203.57 644.72 206.97 646.81 210.16 C 649.26 214.05 653.45 216.35 657.96 216.89 C 667.44 217.86 676.41 215.59 685.00 211.70 C 685.00 216.64 685.02 221.58 684.96 226.53 C 679.86 228.76 674.58 230.43 669.01 230.91 C 659.50 231.72 649.61 231.60 640.99 227.00 C 633.06 222.86 627.61 215.20 625.75 206.51 C 623.95 197.87 624.21 188.43 626.84 179.98 C 629.42 171.72 635.34 164.71 643.44 161.44 C 651.36 158.29 660.58 158.13 668.77 160.30 Z" fill="#434343" />
<path d="M 741.48 159.37 C 747.48 160.37 753.46 162.75 757.38 167.59 C 760.93 172.03 762.10 177.40 762.14 182.99 C 762.12 198.66 762.13 214.32 762.13 230.00 C 757.70 230.00 753.28 230.00 748.85 230.00 C 747.59 226.76 746.33 223.52 745.06 220.28 C 741.09 224.73 737.29 228.73 731.27 230.20 C 724.58 231.74 716.41 232.03 710.15 228.84 C 704.75 226.12 701.36 220.84 700.35 214.96 C 699.34 209.14 699.67 202.17 703.17 197.16 C 706.02 193.01 710.58 190.72 715.27 189.27 C 724.10 186.54 734.10 186.92 743.31 186.57 C 743.21 183.50 743.43 179.93 741.80 177.19 C 740.14 174.37 737.16 173.18 734.02 172.93 C 726.64 172.44 719.34 175.09 712.63 177.88 C 710.55 173.58 708.45 169.29 706.33 165.01 C 717.11 159.52 729.53 157.59 741.48 159.37 Z" fill="#434343" />
<path d="M 827.24 159.31 C 826.77 165.24 826.28 171.18 825.82 177.12 C 819.36 176.34 812.82 176.33 807.30 180.27 C 802.84 183.46 800.92 188.61 800.89 193.97 C 800.83 205.97 800.90 217.99 800.87 230.00 C 794.50 230.00 788.13 230.00 781.75 230.00 C 781.75 206.71 781.75 183.42 781.75 160.13 C 786.58 160.12 791.41 160.12 796.23 160.14 C 797.20 164.24 798.14 168.34 799.26 172.41 C 802.53 168.08 805.49 163.98 810.48 161.45 C 815.79 158.49 821.38 158.58 827.24 159.31 Z" fill="#434343" />
<path d="M 896.24 163.75 C 902.11 168.43 904.21 175.73 904.36 182.98 C 904.39 198.64 904.36 214.33 904.37 230.00 C 898.04 230.00 891.71 230.01 885.37 229.99 C 885.38 216.66 885.37 203.33 885.39 189.99 C 885.33 186.06 885.10 181.51 882.85 178.14 C 881.31 175.81 878.78 174.51 876.04 174.23 C 871.19 173.74 865.96 174.79 862.93 178.93 C 859.78 183.31 859.19 189.76 859.02 194.99 C 858.95 206.66 859.03 218.33 859.00 230.00 C 852.62 230.00 846.25 230.00 839.87 230.00 C 839.87 206.71 839.87 183.42 839.88 160.13 C 844.75 160.13 849.61 160.12 854.48 160.14 C 855.38 163.28 856.27 166.43 857.22 169.55 C 860.84 165.63 864.15 161.98 869.48 160.43 C 877.88 157.77 889.05 158.16 896.24 163.75 Z" fill="#434343" />
<path d="M 668.85 178.15 C 670.58 180.94 670.78 183.95 671.29 187.12 C 662.27 187.13 653.24 187.14 644.21 187.11 C 644.85 183.87 645.19 180.84 647.00 177.99 C 651.41 170.40 664.51 170.60 668.85 178.15 Z" fill="#ffffff" />
<path d="M 333.45 174.59 C 339.12 173.74 345.50 175.24 348.21 180.79 C 351.04 186.84 350.98 194.50 350.52 201.03 C 350.00 206.14 348.65 212.15 343.61 214.63 C 338.84 216.84 331.92 216.89 327.91 213.07 C 324.14 209.51 323.02 203.97 322.66 199.01 C 322.33 193.39 322.60 187.07 324.93 181.86 C 326.56 178.25 329.45 175.35 333.45 174.59 Z" fill="#ffffff" />
<path d="M 414.45 174.57 C 419.32 173.69 425.19 174.36 428.45 178.51 C 431.88 182.90 432.45 189.64 432.51 195.00 C 432.45 200.40 431.89 207.07 428.55 211.55 C 425.00 216.39 417.28 216.93 412.10 214.91 C 406.86 212.75 404.95 207.21 404.16 202.03 C 403.33 195.46 403.30 188.04 405.78 181.80 C 407.35 177.93 410.32 175.35 414.45 174.57 Z" fill="#ffffff" />
<path d="M 743.27 197.71 C 743.19 202.21 743.78 207.22 741.21 211.18 C 737.71 216.93 729.53 218.69 723.51 216.45 C 717.47 213.93 718.49 203.63 723.75 200.75 C 729.14 197.43 737.15 197.97 743.27 197.71 Z" fill="#ffffff" /></svg>