<svg version="1.1" viewBox="0.0 0.0 3840.0 1200.0" fill="none" stroke="none" stroke-linecap="square" stroke-miterlimit="10" xmlns:xlink="http://www.w3.org/1999/xlink" xmlns="http://www.w3.org/2000/svg"><clipPath id="p.0"><path d="m0 0l3840.0 0l0 1200.0l-3840.0 0l0 -1200.0z" clip-rule="nonzero"/></clipPath><g clip-path="url(#p.0)"><path fill="#000000" fill-opacity="0.0" d="m0 0l3840.0 0l0 1200.0l-3840.0 0z" fill-rule="evenodd"/><path fill="#4a86e8" d="m203.19423 600.0l0 0c0 -240.23083 194.74556 -434.97638 434.97638 -434.97638l0 0c115.362915 0 226.00085 45.827744 307.57477 127.40164c81.57385 81.57388 127.40161 192.21182 127.40161 307.57474l0 0c0 240.23083 -194.74554 434.97632 -434.97638 434.97632l0 0c-240.2308 0 -434.97638 -194.74548 -434.97638 -434.97632z" fill-rule="evenodd"/><path fill="#ffffff" d="m607.1153 853.6692l188.27081 -405.4661l-65.06244 -30.218628l156.53235 -85.98273l35.31018 175.08508l-65.06244 -30.218628l-188.27081 405.4661z" fill-rule="evenodd"/><path fill="#ffffff" d="m403.67935 484.08914l62.236206 -29.13385l186.36221 399.14963l-62.236206 29.13385z" fill-rule="evenodd"/><path fill="#ffffff" d="m548.6988 864.383l0 0c0 -43.61743 35.358948 -78.97638 78.97638 -78.97638l0 0c20.945862 0 41.033813 8.320679 55.844727 23.131653c14.810974 14.810913 23.131653 34.898865 23.131653 55.844727l0 0c0 43.61743 -35.358887 78.97638 -78.97638 78.97638l0 0c-43.61743 0 -78.97638 -35.358948 -78.97638 -78.97638z" fill-rule="evenodd"/><path fill="#ffffff" d="m351.86856 465.57986l0 0c0 -43.61743 35.358917 -78.97638 78.97638 -78.97638l0 0c20.945831 0 41.033783 8.320709 55.844727 23.131653c14.810944 14.810944 23.131653 34.898895 23.131653 55.844727l0 0c0 43.617462 -35.358917 78.97641 -78.97638 78.97641l0 0c-43.617462 0 -78.97638 -35.358948 -78.97638 -78.97641z" fill-rule="evenodd"/><path fill="#000000" fill-opacity="0.0" d="m1372.9291 287.45145l2314.9922 0l0 580.1575l-2314.9922 0z" fill-rule="evenodd"/><path fill="#434343" d="m1647.0385 427.7327l81.5 0l-129.42188 380.71872l-88.015625 0l-129.17188 -380.71872l81.515625 0l71.609375 226.54684q5.984375 20.0625 12.359375 46.75q6.390625 26.6875 7.953125 37.109375q2.859375 -23.953125 19.53125 -83.859375l72.140625 -226.54684zm243.7362 140.60934q-25.25 0 -39.578125 16.015625q-14.328125 16.015625 -16.40625 45.453125l111.453125 0q-0.515625 -29.4375 -15.359375 -45.453125q-14.84375 -16.015625 -40.109375 -16.015625zm11.203125 245.3125q-70.3125 0 -109.90625 -38.796875q-39.578125 -38.796875 -39.578125 -109.890625q0 -73.1875 36.59375 -113.15625q36.59375 -39.96872 101.171875 -39.96872q61.71875 0 96.09375 35.15622q34.375 35.15625 34.375 97.125l0 38.546875l-187.76562 0q1.3125 33.859375 20.0625 52.875q18.75 19.0 52.59375 19.0q26.3125 0 49.75 -5.46875q23.4375 -5.46875 48.953125 -17.453125l0 61.46875q-20.828125 10.40625 -44.53125 15.484375q-23.703125 5.078125 -57.8125 5.078125zm301.5542 0q-135.9375 0 -135.9375 -149.21875q0 -74.21875 36.984375 -113.40625q36.984375 -39.18747 105.984375 -39.18747q50.53125 0 90.625 19.796844l-23.4375 61.453125q-18.75 -7.5625 -34.890625 -12.375q-16.140625 -4.8125 -32.296875 -4.8125q-61.96875 0 -61.96875 88.015625q0 85.421875 61.96875 85.421875q22.921875 0 42.453125 -6.125q19.53125 -6.125 39.0625 -19.140625l0 67.96875q-19.265625 12.234375 -38.9375 16.921875q-19.65625 4.6875 -49.609375 4.6875zm278.65356 -63.28125q20.828125 0 50.0 -9.109375l0 59.109375q-29.6875 13.28125 -72.921875 13.28125q-47.65625 0 -69.40625 -24.078125q-21.734375 -24.09375 -21.734375 -72.265625l0 -140.375l-38.03125 0l0 -33.59375l43.75 -26.546875l22.921875 -61.46872l50.78125 0l0 61.984344l81.515625 0l0 59.625l-81.515625 0l0 140.375q0 16.921875 9.5 25.0q9.515625 8.0625 25.140625 8.0625zm172.1333 -88.015625q0 43.234375 14.1875 65.375q14.1875 22.125 46.21875 22.125q31.78125 0 45.703125 -22.0q13.9375 -22.015625 13.9375 -65.5q0 -43.234375 -14.0625 -64.84375q-14.0625 -21.609375 -46.09375 -21.609375q-31.765625 0 -45.828125 21.484375q-14.0625 21.484375 -14.0625 64.96875zm201.29688 0q0 71.09375 -37.5 111.203125q-37.5 40.09375 -104.421875 40.09375q-41.9375 0 -73.96875 -18.359375q-32.03125 -18.359375 -49.21875 -52.734375q-17.1875 -34.375 -17.1875 -80.203125q0 -71.359375 37.234375 -110.9375q37.25 -39.578094 104.703125 -39.578094q41.921875 0 73.953125 18.234344q32.03125 18.21875 49.21875 52.34375q17.1875 34.109375 17.1875 79.9375zm228.12695 -150.5156q16.140625 0 26.8125 2.3437195l-5.984375 74.46875q-9.640625 -2.59375 -23.4375 -2.59375q-38.015625 0 -59.25 19.53125q-21.21875 19.53125 -21.21875 54.6875l0 148.17188l-79.421875 0l0 -291.14062l60.15625 0l11.71875 48.953125l3.90625 0q13.53125 -24.484375 36.578125 -39.453125q23.046875 -14.9687195 50.140625 -14.9687195zm159.10693 296.60934l-79.421875 0l0 -405.2031l79.421875 0l0 405.2031zm41.66504 -291.14062l86.984375 0l54.9375 163.79688q7.03125 21.359375 9.640625 50.515625l1.5625 0q2.859375 -26.8125 11.203125 -50.515625l53.90625 -163.79688l85.140625 0l-123.171875 328.375q-16.921875 45.578125 -48.3125 68.234375q-31.375 22.65625 -73.296875 22.65625q-20.578125 0 -40.359375 -4.421875l0 -63.03125q14.3125 3.390625 31.25 3.390625q21.09375 0 36.84375 -12.890625q15.75 -12.890625 24.609375 -38.9375l4.6875 -14.3125l-115.625 -289.0625z" fill-rule="nonzero"/></g></svg>