<svg version="1.1" viewBox="0.0 0.0 2880.0 960.0" fill="none" stroke="none" stroke-linecap="square" stroke-miterlimit="10" xmlns:xlink="http://www.w3.org/1999/xlink" xmlns="http://www.w3.org/2000/svg"><clipPath id="p.0"><path d="m0 0l2880.0 0l0 960.0l-2880.0 0l0 -960.0z" clip-rule="nonzero"/></clipPath><g clip-path="url(#p.0)"><path fill="#ffffff" d="m0 0l2880.0 0l0 960.0l-2880.0 0z" fill-rule="evenodd"/><path fill="#4a86e8" d="m277.08792 455.52493l0 0c0 -180.76672 146.54037 -327.30707 327.3071 -327.30707l0 0c86.80725 0 170.05908 34.48404 231.44104 95.86603c61.38202 61.381973 95.86603 144.63383 95.86603 231.44106l0 0c0 180.7667 -146.54034 327.3071 -327.30707 327.3071l0 0c-180.76672 0 -327.3071 -146.5404 -327.3071 -327.3071z" fill-rule="evenodd"/><path fill="#ffffff" d="m581.0363 642.8162l141.6623 -305.1005l-48.965088 -22.741394l117.80231 -64.710556l26.575684 131.76567l-48.965088 -22.741394l-141.6623 305.10043z" fill-rule="evenodd"/><path fill="#ffffff" d="m427.94836 364.71396l46.80316 -21.921265l140.22046 300.34647l-46.80316 21.921265z" fill-rule="evenodd"/><path fill="#000000" fill-opacity="0.0" d="m975.47766 277.3596l1680.693 0l0 201.00787l-1680.693 0z" fill-rule="evenodd"/><path fill="#434343" d="m1106.1652 490.28146q-18.953125 0 -29.703125 12.015625q-10.734375 11.9999695 -12.296875 34.078094l83.59375 0q-0.390625 -22.078125 -11.53125 -34.078094q-11.125 -12.015625 -30.0625 -12.015625zm8.390625 183.98434q-52.734375 0 -82.421875 -29.09375q-29.6875 -29.109375 -29.6875 -82.4375q0 -54.87497 27.4375 -84.859344q27.453125 -29.984375 75.890625 -29.984375q46.28125 0 72.0625 26.375q25.78125 26.359375 25.78125 72.84372l0 28.90625l-140.8125 0q0.96875 25.390625 15.03125 39.65625q14.0625 14.25 39.453125 14.25q19.734375 0 37.3125 -4.09375q17.578125 -4.109375 36.71875 -13.09375l0 46.09375q-15.625 7.8125 -33.40625 11.625q-17.765625 3.8125 -43.359375 3.8125zm226.17188 0q-101.953125 0 -101.953125 -111.921875q0 -55.65622 27.734375 -85.046844q27.734375 -29.40625 79.5 -29.40625q37.890625 0 67.96875 14.84375l-17.578125 46.09375q-14.0625 -5.65625 -26.171875 -9.265625q-12.109375 -3.625 -24.21875 -3.625q-46.484375 0 -46.484375 66.015594q0 64.0625 46.484375 64.0625q17.1875 0 31.828125 -4.578125q14.65625 -4.59375 29.296875 -14.359375l0 50.96875q-14.453125 9.1875 -29.203125 12.703125q-14.734375 3.515625 -37.203125 3.515625zm208.99219 -47.46875q15.625 0 37.5 -6.828125l0 44.328125q-22.265625 9.96875 -54.6875 9.96875q-35.75 0 -52.0625 -18.0625q-16.296875 -18.078125 -16.296875 -54.203125l0 -105.28122l-28.515625 0l0 -25.1875l32.8125 -19.921875l17.1875 -46.09375l38.078125 0l0 46.484375l61.140625 0l0 44.71875l-61.140625 0l0 105.28122q0 12.6875 7.125 18.75q7.140625 6.046875 18.859375 6.046875zm129.10156 -66.015625q0 32.421875 10.640625 49.03125q10.640625 16.59375 34.671875 16.59375q23.828125 0 34.265625 -16.5q10.453125 -16.5 10.453125 -49.125q0 -32.421875 -10.546875 -48.625q-10.546875 -16.21872 -34.5625 -16.21872q-23.828125 0 -34.375 16.12497q-10.546875 16.109375 -10.546875 48.71875zm150.96875 0q0 53.328125 -28.125 83.40625q-28.125 30.078125 -78.3125 30.078125q-31.453125 0 -55.484375 -13.765625q-24.015625 -13.78125 -36.90625 -39.5625q-12.890625 -25.78125 -12.890625 -60.15625q0 -53.515594 27.921875 -83.203094q27.9375 -29.6875 78.53125 -29.6875q31.4375 0 55.453125 13.671875q24.03125 13.671875 36.921875 39.265625q12.890625 25.578094 12.890625 59.953094zm171.09375 -112.890594q12.109375 0 20.125 1.765625l-4.5 55.859375q-7.21875 -1.953125 -17.578125 -1.953125q-28.515625 0 -44.4375 14.6562195q-15.90625 14.640625 -15.90625 41.0l0 111.140625l-59.578125 0l0 -218.35934l45.125 0l8.78125 36.71875l2.9375 0q10.15625 -18.359375 27.4375 -29.59375q17.28125 -11.234375 37.59375 -11.234375zm119.34387 222.46872l-59.578125 0l0 -303.90622l59.578125 0l0 303.90622zm31.242188 -218.35934l65.234375 0l41.21875 122.84372q5.265625 16.015625 7.21875 37.890625l1.171875 0q2.15625 -20.109375 8.40625 -37.890625l40.421875 -122.84372l63.875 0l-92.390625 246.29684q-12.6875 34.171875 -36.234375 51.15625q-23.53125 17.0 -54.96875 17.0q-15.4375 0 -30.28125 -3.3125l0 -47.265625q10.75 2.53125 23.4375 2.53125q15.828125 0 27.640625 -9.671875q11.8125 -9.65625 18.453125 -29.1875l3.515625 -10.75l-86.71875 -216.79684z" fill-rule="nonzero"/><path fill="#ffffff" d="m537.0722 650.8808l0 0c0 -32.823975 26.60907 -59.433105 59.433044 -59.433105l0 0c15.762634 0 30.879639 6.2617188 42.025513 17.407532c11.145874 11.145874 17.407532 26.26294 17.407532 42.025574l0 0c0 32.823975 -26.60907 59.433044 -59.433044 59.433044l0 0c-32.823975 0 -59.433044 -26.60907 -59.433044 -59.433044z" fill-rule="evenodd"/><path fill="#ffffff" d="m388.96194 350.79153l0 0c0 -32.823975 26.6091 -59.433075 59.433075 -59.433075l0 0c15.762634 0 30.87967 6.261688 42.025513 17.407562c11.145874 11.1458435 17.407562 26.262878 17.407562 42.025513l0 0c0 32.823975 -26.6091 59.433075 -59.433075 59.433075l0 0c-32.823975 0 -59.433075 -26.6091 -59.433075 -59.433075z" fill-rule="evenodd"/></g></svg>